<svg xmlns="http://www.w3.org/2000/svg" width="85" height="61.355" viewBox="0 0 85 61.355">
  <g id="video" transform="translate(0 -71.212)">
    <g id="Grupo_57665" data-name="Grupo 57665" transform="translate(1.245 72.46)">
      <path id="Trazado_103237" data-name="Trazado 103237" d="M7.5,84.264v47.793a5.552,5.552,0,0,0,5.536,5.536H84.472a5.552,5.552,0,0,0,5.536-5.536V84.264a5.552,5.552,0,0,0-5.536-5.536H13.035A5.552,5.552,0,0,0,7.5,84.264Z" transform="translate(-7.499 -78.728)" fill="#695d67"/>
      <path id="Trazado_103238" data-name="Trazado 103238" d="M13.23,132.057V84.264a5.552,5.552,0,0,1,5.536-5.536h-5.73A5.552,5.552,0,0,0,7.5,84.264v47.793a5.552,5.552,0,0,0,5.536,5.536h5.73A5.552,5.552,0,0,1,13.23,132.057Z" transform="translate(-7.5 -78.728)" fill="#544e55"/>
      <path id="Trazado_103239" data-name="Trazado 103239" d="M40.013,111.379v47.793a.159.159,0,0,0,.138.138h66.58a.159.159,0,0,0,.138-.138V111.379a.159.159,0,0,0-.138-.138H40.151a.159.159,0,0,0-.138.138Z" transform="translate(-34.615 -105.843)" fill="#ff656f"/>
      <path id="Trazado_103240" data-name="Trazado 103240" d="M45.743,159.172V111.379a.159.159,0,0,1,.138-.138h-5.73a.159.159,0,0,0-.138.138v47.793a.159.159,0,0,0,.138.138h5.73A.159.159,0,0,1,45.743,159.172Z" transform="translate(-34.615 -105.843)" fill="#ff4756"/>
      <path id="Trazado_103241" data-name="Trazado 103241" d="M185.717,163.587A10.881,10.881,0,1,0,196.6,174.468a10.913,10.913,0,0,0-10.881-10.881Z" transform="translate(-147.055 -149.499)" fill="#dfebfa"/>
      <path id="Trazado_103242" data-name="Trazado 103242" d="M182.639,174.468a10.92,10.92,0,0,1,6.98-10.151,10.778,10.778,0,0,0-3.9-.73,10.881,10.881,0,0,0,0,21.762,10.777,10.777,0,0,0,3.9-.73A10.92,10.92,0,0,1,182.639,174.468Z" transform="translate(-147.055 -149.499)" fill="#b1dbfc"/>
      <path id="Trazado_103243" data-name="Trazado 103243" d="M228.118,203.724,221.933,200a1.136,1.136,0,0,0-1.722.973v7.451a1.136,1.136,0,0,0,1.722.973l6.185-3.725a1.136,1.136,0,0,0,0-1.946Z" transform="translate(-184.898 -179.729)" fill="#ff656f"/>
      <path id="Trazado_103244" data-name="Trazado 103244" d="M118.5,334.587H81.7a2.324,2.324,0,1,0,0,4.648h36.8Z" transform="translate(-67.445 -292.111)" fill="#dfebfa"/>
      <path id="Trazado_103245" data-name="Trazado 103245" d="M327.053,334.587H315.045v4.648h12.008a2.324,2.324,0,1,0,0-4.648Z" transform="translate(-263.988 -292.111)" fill="#ff4756"/>
    </g>
    <g id="Grupo_57666" data-name="Grupo 57666" transform="translate(0 71.212)">
      <path id="Trazado_103246" data-name="Trazado 103246" d="M465.3,245.431v-2.144a1.245,1.245,0,1,0-2.49,0v2.144a1.245,1.245,0,0,0,2.49,0Z" transform="translate(-385.98 -213.682)"/>
      <path id="Trazado_103247" data-name="Trazado 103247" d="M191.589,168.2a12.126,12.126,0,1,0-12.126,12.126A12.14,12.14,0,0,0,191.589,168.2Zm-21.762,0a9.636,9.636,0,1,1,9.636,9.636A9.647,9.647,0,0,1,169.827,168.2Z" transform="translate(-139.557 -141.983)"/>
      <path id="Trazado_103248" data-name="Trazado 103248" d="M222.507,196.384l-6.185-3.726a2.383,2.383,0,0,0-3.61,2.04v7.451a2.384,2.384,0,0,0,3.61,2.04l6.185-3.725A2.381,2.381,0,0,0,222.507,196.384Zm-7.3,5.572v-7.065l5.864,3.532Z" transform="translate(-177.399 -172.21)"/>
      <path id="Trazado_103249" data-name="Trazado 103249" d="M112.247,329.228a1.245,1.245,0,0,0,1.245-1.245v-.028h10.763a3.569,3.569,0,1,0,0-7.139H113.493a1.245,1.245,0,1,0-2.49,0H75.447a3.569,3.569,0,1,0,0,7.139H111v.028A1.245,1.245,0,0,0,112.247,329.228Zm1.245-5.921h10.763a1.079,1.079,0,1,1,0,2.158H113.493Zm-38.045,2.158a1.079,1.079,0,1,1,0-2.158H111v2.158Z" transform="translate(-59.945 -278.34)"/>
      <path id="Trazado_103250" data-name="Trazado 103250" d="M6.781,132.567H78.219A6.789,6.789,0,0,0,85,125.786V77.993a6.789,6.789,0,0,0-6.781-6.781H45.405a1.245,1.245,0,1,0,0,2.49H78.219a4.3,4.3,0,0,1,4.291,4.291v47.793a4.3,4.3,0,0,1-4.291,4.291H6.781a4.3,4.3,0,0,1-4.291-4.291V77.993A4.3,4.3,0,0,1,6.781,73.7H39.595a1.245,1.245,0,1,0,0-2.49H6.781A6.789,6.789,0,0,0,0,77.993v47.793a6.789,6.789,0,0,0,6.781,6.781Z" transform="translate(0 -71.212)"/>
      <path id="Trazado_103251" data-name="Trazado 103251" d="M100.614,127.346a1.245,1.245,0,0,0,1.245-1.245V105.11a1.4,1.4,0,0,0-1.384-1.384H33.9a1.4,1.4,0,0,0-1.383,1.384V152.9a1.4,1.4,0,0,0,1.383,1.384h66.58a1.4,1.4,0,0,0,1.384-1.384V131.911a1.245,1.245,0,0,0-2.49,0V151.8H35V106.216H99.369V126.1a1.245,1.245,0,0,0,1.245,1.245Z" transform="translate(-27.115 -98.328)"/>
    </g>
  </g>
</svg>
