<svg xmlns="http://www.w3.org/2000/svg" width="120" height="108.572" viewBox="0 0 120 108.572">
  <g id="folders" transform="translate(0 -24.38)">
    <path id="Trazado_102969" data-name="Trazado 102969" d="M38.274,147.13H10.35a2.813,2.813,0,0,1-2.813-2.812V48.237a2.813,2.813,0,0,1,2.813-2.812H38.274a2.813,2.813,0,0,1,2.812,2.813v96.08A2.813,2.813,0,0,1,38.274,147.13Z" transform="translate(-5.771 -16.112)" fill="#05e29a"/>
    <path id="Trazado_102970" data-name="Trazado 102970" d="M38.26,45.425H32.541V127.7a11.2,11.2,0,0,1-11.2,11.2H7.537v5.4a2.826,2.826,0,0,0,2.826,2.826h27.9a2.826,2.826,0,0,0,2.826-2.826V48.251a2.826,2.826,0,0,0-2.826-2.826Z" transform="translate(-5.771 -16.112)" fill="#1dd08d"/>
    <path id="Trazado_102971" data-name="Trazado 102971" d="M51.754,388.59h-7.48a5.779,5.779,0,0,1-5.779-5.779v-.057a5.779,5.779,0,0,1,5.779-5.779h7.48a5.779,5.779,0,0,1,5.779,5.779v.057A5.779,5.779,0,0,1,51.754,388.59Z" transform="translate(-29.473 -269.954)" fill="#586b76"/>
    <path id="Trazado_102972" data-name="Trazado 102972" d="M52.578,376.974H50.869a5.812,5.812,0,0,1-5.547,7.535H39.609a5.81,5.81,0,0,0,5.547,4.081h7.423a5.808,5.808,0,1,0,0-11.616Z" transform="translate(-30.326 -269.954)" fill="#465961"/>
    <path id="Trazado_102973" data-name="Trazado 102973" d="M54.352,150.795H37.058a1.579,1.579,0,0,1-1.579-1.579V101.8a1.579,1.579,0,0,1,1.579-1.579H54.352A1.579,1.579,0,0,1,55.93,101.8v47.412A1.578,1.578,0,0,1,54.352,150.795Z" transform="translate(-27.164 -58.068)" fill="#fff0e1"/>
    <path id="Trazado_102974" data-name="Trazado 102974" d="M54.344,100.225H49.381v42.726a1.586,1.586,0,0,1-1.586,1.586H35.479v4.671a1.587,1.587,0,0,0,1.586,1.587H54.344a1.586,1.586,0,0,0,1.586-1.587v-47.4A1.586,1.586,0,0,0,54.344,100.225Z" transform="translate(-27.164 -58.068)" fill="#ffeccf"/>
    <path id="Trazado_102975" data-name="Trazado 102975" d="M181.377,147.13H153.453a2.813,2.813,0,0,1-2.812-2.812V48.237a2.813,2.813,0,0,1,2.813-2.812h27.925a2.813,2.813,0,0,1,2.813,2.813v96.08A2.813,2.813,0,0,1,181.377,147.13Z" transform="translate(-115.334 -16.112)" fill="#fcb143"/>
    <path id="Trazado_102976" data-name="Trazado 102976" d="M181.363,45.425h-5.719V127.7a11.2,11.2,0,0,1-11.2,11.2h-13.8v5.4a2.826,2.826,0,0,0,2.826,2.826h27.9a2.826,2.826,0,0,0,2.826-2.826V48.251a2.826,2.826,0,0,0-2.826-2.826Z" transform="translate(-115.334 -16.112)" fill="#fba615"/>
    <path id="Trazado_102977" data-name="Trazado 102977" d="M194.857,388.59h-7.48a5.779,5.779,0,0,1-5.779-5.779v-.057a5.779,5.779,0,0,1,5.779-5.779h7.48a5.779,5.779,0,0,1,5.779,5.779v.057A5.779,5.779,0,0,1,194.857,388.59Z" transform="translate(-139.036 -269.954)" fill="#586b76"/>
    <path id="Trazado_102978" data-name="Trazado 102978" d="M195.68,376.974h-1.709a5.812,5.812,0,0,1-5.547,7.535h-5.714a5.81,5.81,0,0,0,5.547,4.081h7.423a5.808,5.808,0,1,0,0-11.616Z" transform="translate(-139.888 -269.954)" fill="#465961"/>
    <path id="Trazado_102979" data-name="Trazado 102979" d="M197.456,150.795H180.162a1.579,1.579,0,0,1-1.579-1.579V101.8a1.579,1.579,0,0,1,1.579-1.579h17.294a1.579,1.579,0,0,1,1.579,1.579v47.412A1.579,1.579,0,0,1,197.456,150.795Z" transform="translate(-136.728 -58.068)" fill="#fff0e1"/>
    <path id="Trazado_102980" data-name="Trazado 102980" d="M197.449,100.225h-4.962v42.726a1.586,1.586,0,0,1-1.586,1.586H178.584v4.671a1.587,1.587,0,0,0,1.587,1.587h17.278a1.586,1.586,0,0,0,1.587-1.587v-47.4A1.587,1.587,0,0,0,197.449,100.225Z" transform="translate(-136.728 -58.068)" fill="#ffeccf"/>
    <path id="Trazado_102981" data-name="Trazado 102981" d="M340.819,132.19,313.3,136.908a2.813,2.813,0,0,1-3.247-2.3l-16.232-94.7a2.813,2.813,0,0,1,2.3-3.247l27.523-4.718a2.813,2.813,0,0,1,3.247,2.3l16.232,94.7a2.812,2.812,0,0,1-2.3,3.247Z" transform="translate(-224.922 -5.762)" fill="#fc6b55"/>
    <path id="Trazado_102982" data-name="Trazado 102982" d="M373.809,31.957l-5.775.92,13.905,81.317a11.2,11.2,0,0,1-9.147,12.932L359.325,129.5l.908,5.1a2.827,2.827,0,0,0,3.263,2.308l27.5-4.713a2.827,2.827,0,0,0,2.308-3.263L377.072,34.265a2.827,2.827,0,0,0-3.263-2.308Z" transform="translate(-275.108 -5.769)" fill="#fc534e"/>
    <path id="Trazado_102983" data-name="Trazado 102983" d="M396.395,377.407l-7.372,1.264a5.779,5.779,0,0,1-6.673-4.72l-.01-.056a5.779,5.779,0,0,1,4.72-6.673l7.372-1.264a5.779,5.779,0,0,1,6.673,4.72l.01.056A5.779,5.779,0,0,1,396.395,377.407Z" transform="translate(-292.665 -261.456)" fill="#586b76"/>
    <path id="Trazado_102984" data-name="Trazado 102984" d="M396.489,365.978l-1.684.289a5.812,5.812,0,0,1-4.194,8.364l-5.631.965a5.81,5.81,0,0,0,6.156,3.085l7.316-1.254a5.808,5.808,0,0,0-1.962-11.449Z" transform="translate(-294.75 -261.471)" fill="#465961"/>
    <path id="Trazado_102985" data-name="Trazado 102985" d="M356.663,139.693l-17.045,2.922a1.579,1.579,0,0,1-1.823-1.289l-8.01-46.731a1.578,1.578,0,0,1,1.289-1.823L348.12,89.85a1.578,1.578,0,0,1,1.823,1.289l8.01,46.731A1.579,1.579,0,0,1,356.663,139.693Z" transform="translate(-252.474 -50.107)" fill="#fff0e1"/>
    <path id="Trazado_102986" data-name="Trazado 102986" d="M371.9,89.856,367,90.694l7.256,42.4a1.587,1.587,0,0,1-1.3,1.832l-12.139,2.081.751,4.311a1.587,1.587,0,0,0,1.832,1.3l17.03-2.919a1.586,1.586,0,0,0,1.3-1.832l-8.008-46.716a1.586,1.586,0,0,0-1.832-1.3Z" transform="translate(-276.257 -50.112)" fill="#ffeccf"/>
    <path id="Trazado_102987" data-name="Trazado 102987" d="M45.954,369.437H38.531a7.574,7.574,0,0,0,0,15.149h7.423a7.574,7.574,0,0,0,0-15.149Zm0,11.616H38.531a4.041,4.041,0,1,1,0-8.083h7.423a4.041,4.041,0,1,1,0,8.083Z" transform="translate(-23.701 -264.184)"/>
    <path id="Trazado_102988" data-name="Trazado 102988" d="M51.927,96.04a3.357,3.357,0,0,0-3.353-3.353H31.3a3.357,3.357,0,0,0-3.353,3.353v47.4A3.357,3.357,0,0,0,31.3,146.79H48.574a3.357,3.357,0,0,0,3.353-3.353Zm-3.533,47.217H31.476V96.22H48.394Z" transform="translate(-21.394 -52.297)"/>
    <path id="Trazado_102989" data-name="Trazado 102989" d="M59.145,178.186a1.766,1.766,0,0,0,1.766-1.766V154.576a1.766,1.766,0,0,0-3.533,0V176.42A1.766,1.766,0,0,0,59.145,178.186Z" transform="translate(-43.931 -98.329)"/>
    <path id="Trazado_102990" data-name="Trazado 102990" d="M87.531,196.994a1.766,1.766,0,0,0,1.766-1.766V179.141a1.766,1.766,0,0,0-3.533,0v16.086A1.767,1.767,0,0,0,87.531,196.994Z" transform="translate(-65.664 -117.136)"/>
    <path id="Trazado_102991" data-name="Trazado 102991" d="M189.058,369.437h-7.422a7.574,7.574,0,0,0,0,15.149h7.422a7.574,7.574,0,1,0,0-15.149Zm0,11.616h-7.422a4.041,4.041,0,1,1,0-8.083h7.422a4.041,4.041,0,1,1,0,8.083Z" transform="translate(-133.265 -264.184)"/>
    <path id="Trazado_102992" data-name="Trazado 102992" d="M195.03,96.04a3.357,3.357,0,0,0-3.353-3.353H174.4a3.357,3.357,0,0,0-3.353,3.353v47.4a3.357,3.357,0,0,0,3.353,3.353h17.278a3.357,3.357,0,0,0,3.353-3.353ZM191.5,143.257H174.579V96.22H191.5Z" transform="translate(-130.957 -52.297)"/>
    <path id="Trazado_102993" data-name="Trazado 102993" d="M202.248,178.186a1.766,1.766,0,0,0,1.766-1.766V154.576a1.766,1.766,0,0,0-3.533,0V176.42A1.766,1.766,0,0,0,202.248,178.186Z" transform="translate(-153.494 -98.329)"/>
    <path id="Trazado_102994" data-name="Trazado 102994" d="M230.635,178.186a1.766,1.766,0,0,0,1.766-1.766V154.576a1.766,1.766,0,0,0-3.533,0V176.42A1.766,1.766,0,0,0,230.635,178.186Z" transform="translate(-175.228 -98.329)"/>
    <path id="Trazado_102995" data-name="Trazado 102995" d="M119.933,122.869,103.705,28.2a4.6,4.6,0,0,0-5.3-3.751l-27.5,4.713a4.594,4.594,0,0,0-1.121.345,4.588,4.588,0,0,0-3.756-1.958h-27.9a4.564,4.564,0,0,0-2.82.976,4.567,4.567,0,0,0-2.823-.976H17.641a1.766,1.766,0,1,0,0,3.533H32.49a1.058,1.058,0,0,1,1.054,1c0,.021,0,.042,0,.064v81.131a1.766,1.766,0,0,0,3.533,0V32.139a1.061,1.061,0,0,1,1.06-1.06h27.9a1.061,1.061,0,0,1,1.06,1.06v96.052a1.061,1.061,0,0,1-1.06,1.06h-27.9a1.058,1.058,0,0,1-1.054-1c0-.021,0-.042,0-.064a1.768,1.768,0,0,0-.01-.184v-6.689a1.766,1.766,0,0,0-3.533,0v6.874c0,.022,0,.042,0,.064a1.058,1.058,0,0,1-1.054,1H4.593a1.061,1.061,0,0,1-1.06-1.06V32.139a1.061,1.061,0,0,1,1.06-1.06H9.476a1.766,1.766,0,0,0,0-3.533H4.593A4.6,4.6,0,0,0,0,32.139v96.052a4.6,4.6,0,0,0,4.593,4.593h27.9a4.565,4.565,0,0,0,2.822-.977,4.565,4.565,0,0,0,2.822.977h27.9a4.6,4.6,0,0,0,4.593-4.593V54.686l12.761,74.448a4.6,4.6,0,0,0,4.517,3.818,4.646,4.646,0,0,0,.786-.067l27.5-4.713a4.592,4.592,0,0,0,3.751-5.3Zm-3.661,1.388a1.052,1.052,0,0,1-.686.432l-27.5,4.713a1.06,1.06,0,0,1-1.224-.866L70.638,33.866a1.052,1.052,0,0,1,.077-.613h0a1.061,1.061,0,0,1,.788-.61L99,27.929a1.058,1.058,0,0,1,1.224.866l16.228,94.671a1.052,1.052,0,0,1-.179.791Z" transform="translate(0 0)"/>
    <path id="Trazado_102996" data-name="Trazado 102996" d="M388.347,358.466l-7.316,1.254a7.575,7.575,0,0,0,1.264,15.042,7.674,7.674,0,0,0,1.3-.111l7.316-1.254a7.574,7.574,0,1,0-2.56-14.931Zm4.579,9.8a4.015,4.015,0,0,1-2.617,1.65l-7.316,1.254a4.041,4.041,0,0,1-1.366-7.966l7.316-1.254a4.041,4.041,0,0,1,3.982,6.317Z" transform="translate(-286.907 -255.7)"/>
    <path id="Trazado_102997" data-name="Trazado 102997" d="M337.579,136.208a1.767,1.767,0,0,0-2.04-1.443l-1.8.309-7.947-46.361,16.675-2.858,7.947,46.361-6.792,1.164a1.767,1.767,0,0,0,.6,3.482l6.969-1.195a3.357,3.357,0,0,0,2.738-3.871l-8.007-46.715a3.353,3.353,0,0,0-3.871-2.738l-17.03,2.919a3.357,3.357,0,0,0-2.738,3.871l8.007,46.715a3.355,3.355,0,0,0,3.3,2.787,3.417,3.417,0,0,0,.574-.049l1.979-.339a1.766,1.766,0,0,0,1.443-2.04Z" transform="translate(-246.707 -44.34)"/>
    <path id="Trazado_102998" data-name="Trazado 102998" d="M361.823,150.3a1.767,1.767,0,0,0-1.443,2.04l3.69,21.529a1.766,1.766,0,1,0,3.482-.6l-3.69-21.529a1.767,1.767,0,0,0-2.039-1.443Z" transform="translate(-275.896 -96.389)"/>
    <path id="Trazado_102999" data-name="Trazado 102999" d="M393.788,170.543a1.767,1.767,0,0,0,1.743-2.065l-3.69-21.529a1.766,1.766,0,1,0-3.482.6l3.69,21.529A1.767,1.767,0,0,0,393.788,170.543Z" transform="translate(-297.317 -92.717)"/>
  </g>
</svg>
