<svg xmlns="http://www.w3.org/2000/svg" width="100.831" height="121" viewBox="0 0 100.831 121">
  <g id="click" transform="translate(0)">
    <path id="Trazado_102891" data-name="Trazado 102891" d="M272.911,216.619l-55.458-45.375a2.521,2.521,0,0,0-4.114,1.951V248.82a2.52,2.52,0,0,0,4.618,1.4l19.421-29.126h33.94a2.521,2.521,0,0,0,1.593-4.472Z" transform="translate(-173.006 -130.341)" fill="#339ce9"/>
    <g id="Grupo_57330" data-name="Grupo 57330" transform="translate(0)">
      <path id="Trazado_102892" data-name="Trazado 102892" d="M215.86,25.208a2.521,2.521,0,0,1-2.521-2.521V2.521a2.521,2.521,0,1,1,5.042,0V22.687A2.521,2.521,0,0,1,215.86,25.208Z" transform="translate(-173.006)" fill="#455a64"/>
      <path id="Trazado_102893" data-name="Trazado 102893" d="M65.36,175.708H45.194a2.521,2.521,0,1,1,0-5.042H65.36a2.521,2.521,0,1,1,0,5.042Z" transform="translate(-42.673 -130.333)" fill="#455a64"/>
      <path id="Trazado_102894" data-name="Trazado 102894" d="M321.36,175.708H301.194a2.521,2.521,0,1,1,0-5.042H321.36a2.521,2.521,0,1,1,0,5.042Z" transform="translate(-238.173 -130.333)" fill="#455a64"/>
      <path id="Trazado_102895" data-name="Trazado 102895" d="M109.42,69.268a2.52,2.52,0,0,1-1.785-.736L93.373,54.284A2.535,2.535,0,0,1,96.957,50.7L111.2,64.963a2.521,2.521,0,0,1-1.785,4.306h0Z" transform="translate(-80.824 -38.151)" fill="#455a64"/>
      <path id="Trazado_102896" data-name="Trazado 102896" d="M95.163,250.394a2.521,2.521,0,0,1-1.785-4.306l14.263-14.263a2.521,2.521,0,0,1,3.565,3.564L96.963,249.658A2.52,2.52,0,0,1,95.163,250.394Z" transform="translate(-80.83 -176.498)" fill="#455a64"/>
      <path id="Trazado_102897" data-name="Trazado 102897" d="M276.176,69.38a2.521,2.521,0,0,1-1.785-4.306l14.248-14.263a2.521,2.521,0,0,1,3.565,3.564L277.961,68.638A2.52,2.52,0,0,1,276.176,69.38Z" transform="translate(-219.064 -38.263)" fill="#455a64"/>
    </g>
    <path id="Trazado_102898" data-name="Trazado 102898" d="M215.861,251.341a2.492,2.492,0,0,1-.731-.106,2.521,2.521,0,0,1-1.79-2.415V173.2a2.521,2.521,0,0,1,4.114-1.951l55.458,45.375a2.521,2.521,0,0,1-1.593,4.472H237.379l-19.42,29.126A2.521,2.521,0,0,1,215.861,251.341Zm2.521-72.827V240.5l15.548-23.323a2.52,2.52,0,0,1,2.1-1.124h28.233Z" transform="translate(-173.006 -130.341)"/>
    <path id="Trazado_102899" data-name="Trazado 102899" d="M215.86,25.208a2.521,2.521,0,0,1-2.521-2.521V2.521a2.521,2.521,0,1,1,5.042,0V22.687A2.521,2.521,0,0,1,215.86,25.208Z" transform="translate(-173.006)"/>
    <path id="Trazado_102900" data-name="Trazado 102900" d="M65.36,175.708H45.194a2.521,2.521,0,1,1,0-5.042H65.36a2.521,2.521,0,1,1,0,5.042Z" transform="translate(-42.673 -130.333)"/>
    <path id="Trazado_102901" data-name="Trazado 102901" d="M321.36,175.708H301.194a2.521,2.521,0,1,1,0-5.042H321.36a2.521,2.521,0,1,1,0,5.042Z" transform="translate(-238.173 -130.333)"/>
    <path id="Trazado_102902" data-name="Trazado 102902" d="M109.42,69.268a2.52,2.52,0,0,1-1.785-.736L93.373,54.284A2.535,2.535,0,0,1,96.957,50.7L111.2,64.963a2.521,2.521,0,0,1-1.785,4.306h0Z" transform="translate(-80.824 -38.151)"/>
    <path id="Trazado_102903" data-name="Trazado 102903" d="M95.163,250.394a2.521,2.521,0,0,1-1.785-4.306l14.263-14.263a2.521,2.521,0,0,1,3.565,3.564L96.963,249.658A2.52,2.52,0,0,1,95.163,250.394Z" transform="translate(-80.83 -176.498)"/>
    <path id="Trazado_102904" data-name="Trazado 102904" d="M276.176,69.38a2.521,2.521,0,0,1-1.785-4.306l14.248-14.263a2.521,2.521,0,0,1,3.565,3.564L277.961,68.638A2.52,2.52,0,0,1,276.176,69.38Z" transform="translate(-219.064 -38.263)"/>
  </g>
</svg>
