<svg xmlns="http://www.w3.org/2000/svg" xmlns:xlink="http://www.w3.org/1999/xlink" width="343.377" height="212.597" viewBox="0 0 343.377 212.597">
  <defs>
    <clipPath id="clip-path">
      <path id="Trazado_103167" data-name="Trazado 103167" d="M1363.759,183.707a26.671,26.671,0,1,1-53.343,0,25.618,25.618,0,0,1,.2-3.234,26.67,26.67,0,0,1,53.143,3.234Z" transform="translate(-1310.416 -157.036)" fill="none"/>
    </clipPath>
  </defs>
  <g id="Grupo_57611" data-name="Grupo 57611" transform="translate(-335.471 -1420.658)">
    <g id="Grupo_57605" data-name="Grupo 57605" transform="translate(-805.725 1381.957)">
      <path id="Trazado_103170" data-name="Trazado 103170" d="M1190.681,65.5c15.941-12.631,37.706-14.943,56.3-7.92,24.7,9.329,42.88,32.958,66.869,44.305a74.98,74.98,0,0,0,53.861,3.971c8.6-2.638,16.957-6.869,25.88-7.153,7.9-.251,15.708,2.682,22.426,7.257,19.768,13.459,29.69,42.169,23.029,66.628-3.567,13.1-11.226,24.471-20.146,34.011-18.43,19.709-42.879,32.518-68.434,35.853-14.261,1.863-28.73.852-42.941-1.436-30.967-4.984-61.477-16.275-86.977-36.19-30.525-23.839-60.779-65.426-49.35-108.776A58.1,58.1,0,0,1,1190.681,65.5Z" fill="#fbe5ef"/>
      <path id="Trazado_103171" data-name="Trazado 103171" d="M1346.051,88.516c-1-2.566-1.838-5.825-.146-7.913a4.683,4.683,0,0,1,2.465-1.5c4.469-1.208,8.852,2.231,11.968,5.945a52.934,52.934,0,0,1,7.328,11.515,20.3,20.3,0,0,1,2.086,6.767,9,9,0,0,1-1.842,6.664C1357.712,121.607,1348.835,95.629,1346.051,88.516Z" transform="translate(83.928 11.999)" fill="#fbe5ef"/>
    </g>
    <g id="Grupo_57606" data-name="Grupo 57606" transform="translate(-61.152 -34.7)">
      <g id="Grupo_57345" data-name="Grupo 57345" transform="translate(644.01 1582.902)">
        <g id="Grupo_57344" data-name="Grupo 57344">
          <path id="Trazado_102909" data-name="Trazado 102909" d="M373.064,353.86a115.543,115.543,0,0,0,19.674-19.7c.077.106.147.213.233.318.148.183.3.353.457.513-1.4,1.793-2.845,3.557-4.358,5.26a116.2,116.2,0,0,1-28.967,23.6,111.4,111.4,0,0,1-19.2,8.735c-.639.221-1.031-.757-.389-.978A112.185,112.185,0,0,0,373.064,353.86Z" transform="translate(-340.188 -334.164)" fill="#febb09"/>
        </g>
      </g>
      <g id="Grupo_57346" data-name="Grupo 57346" transform="translate(681.332 1597.873)">
        <path id="Trazado_102910" data-name="Trazado 102910" d="M373.165,348.884c5.833,3.98,13.633,8.249,21.2,10.112a32.6,32.6,0,0,0,13.5.912c2.161-.389,4.406-1.218,5.513-2.715,1.644-2.222.055-4.937-2.372-6.426-2.628-1.613-6.059-2.313-9.445-2.828-9.006-1.368-19.052.17-28.4.945" transform="translate(-373.165 -347.392)" fill="#febb09"/>
      </g>
      <g id="Grupo_57347" data-name="Grupo 57347" transform="translate(693.089 1575.632)">
        <path id="Trazado_102911" data-name="Trazado 102911" d="M383.554,339.98c7.793,2.183,17.829,3.954,26.731,3.2,5.039-.427,10.339-1.393,14.992-3.961,2.2-1.215,4.336-2.939,4.989-4.971.97-3.016-1.751-5.38-4.933-6.107-3.444-.787-7.427-.289-11.292.395-10.28,1.819-20.623,7.173-30.487,11.444" transform="translate(-383.554 -327.739)" fill="#febb09"/>
      </g>
      <g id="Grupo_57348" data-name="Grupo 57348" transform="translate(695.301 1533.582)">
        <path id="Trazado_102912" data-name="Trazado 102912" d="M385.508,342.59c8.725-5.591,18.967-13.676,25.83-22.83,3.884-5.181,7.474-11.072,8.983-17.709.715-3.141.885-6.649-.5-9-2.058-3.5-6.635-2.909-10.041-.485-3.687,2.622-6.6,6.855-9.242,11.132-7.018,11.378-10.709,25.827-15.029,38.9" transform="translate(-385.508 -290.585)" fill="#febb09"/>
      </g>
      <g id="Grupo_57349" data-name="Grupo 57349" transform="translate(679.04 1547.174)">
        <path id="Trazado_102913" data-name="Trazado 102913" d="M385.614,342.752a52.522,52.522,0,0,0,.886-21.244,37.014,37.014,0,0,0-4.877-13.183,14.51,14.51,0,0,0-5.032-5.191c-2.893-1.461-4.886.252-5.314,2.7-.464,2.655.315,6.036,1.256,9.36,2.506,8.841,8.317,18.513,13.08,27.554" transform="translate(-371.14 -302.595)" fill="#febb09"/>
      </g>
      <g id="Grupo_57350" data-name="Grupo 57350" transform="translate(666.856 1559.208)">
        <path id="Trazado_102914" data-name="Trazado 102914" d="M374.85,353.385a52.525,52.525,0,0,0,.885-21.244,37.013,37.013,0,0,0-4.877-13.183,14.486,14.486,0,0,0-5.032-5.192c-2.892-1.46-4.885.254-5.314,2.706-.464,2.655.315,6.036,1.257,9.36,2.506,8.841,8.317,18.512,13.08,27.554" transform="translate(-360.375 -313.227)" fill="#febb09"/>
      </g>
      <g id="Grupo_57351" data-name="Grupo 57351" transform="translate(667.18 1609.924)">
        <path id="Trazado_102915" data-name="Trazado 102915" d="M360.661,358.04a47.651,47.651,0,0,0,13.308,9.035,22.313,22.313,0,0,0,9.044,2.012,6.083,6.083,0,0,0,4.012-1.269c1.342-1.334.547-3.336-.942-4.595a17.622,17.622,0,0,0-6.1-2.889c-5.955-1.856-12.914-1.853-19.321-2.294" transform="translate(-360.661 -358.04)" fill="#febb09"/>
      </g>
      <g id="Grupo_57352" data-name="Grupo 57352" transform="translate(657.343 1582.52)">
        <path id="Trazado_102916" data-name="Trazado 102916" d="M361.88,361.322a35.981,35.981,0,0,0,.607-14.546,25.344,25.344,0,0,0-3.34-9.027,9.935,9.935,0,0,0-3.445-3.555c-1.981-1-3.345.173-3.639,1.853-.317,1.819.216,4.133.861,6.409,1.715,6.054,5.7,12.676,8.956,18.866" transform="translate(-351.969 -333.826)" fill="#febb09"/>
      </g>
    </g>
    <g id="Grupo_57608" data-name="Grupo 57608">
      <g id="Grupo_57355" data-name="Grupo 57355" transform="translate(637.445 1609.101)">
        <g id="Grupo_57354" data-name="Grupo 57354">
          <path id="Trazado_102917" data-name="Trazado 102917" d="M322.982,412.379a3.745,3.745,0,1,1,3.745-3.745A3.75,3.75,0,0,1,322.982,412.379Zm0-6.366a2.621,2.621,0,1,0,2.621,2.621A2.624,2.624,0,0,0,322.982,406.013Z" transform="translate(-319.237 -404.889)" fill="#fcb610"/>
        </g>
      </g>
      <g id="Grupo_57356" data-name="Grupo 57356" transform="translate(641.112 1586.661)">
        <rect id="Rectángulo_6621" data-name="Rectángulo 6621" width="9.75" height="9.75" transform="translate(6.595 0) rotate(42.563)" fill="#ff4900"/>
      </g>
    </g>
    <g id="Grupo_57609" data-name="Grupo 57609" transform="translate(1068.371 3037.249) rotate(180)">
      <g id="Grupo_57355-2" data-name="Grupo 57355" transform="translate(637.445 1609.101)">
        <g id="Grupo_57354-2" data-name="Grupo 57354">
          <path id="Trazado_102917-2" data-name="Trazado 102917" d="M322.982,412.379a3.745,3.745,0,1,1,3.745-3.745A3.75,3.75,0,0,1,322.982,412.379Zm0-6.366a2.621,2.621,0,1,0,2.621,2.621A2.624,2.624,0,0,0,322.982,406.013Z" transform="translate(-319.237 -404.889)" fill="#fcb610"/>
        </g>
      </g>
      <g id="Grupo_57356-2" data-name="Grupo 57356" transform="translate(641.112 1586.661)">
        <rect id="Rectángulo_6621-2" data-name="Rectángulo 6621" width="9.75" height="9.75" transform="translate(6.595 0) rotate(42.563)" fill="#ff4900"/>
      </g>
    </g>
    <g id="Grupo_57359" data-name="Grupo 57359" transform="translate(619.369 1444.846)">
      <g id="Grupo_57357" data-name="Grupo 57357" transform="translate(4.452)">
        <path id="Trazado_102918" data-name="Trazado 102918" d="M342.513,359.324h0a1.289,1.289,0,0,1-1.289-1.289v-8.906a1.289,1.289,0,0,1,1.289-1.289h0a1.289,1.289,0,0,1,1.29,1.289v8.906A1.289,1.289,0,0,1,342.513,359.324Z" transform="translate(-341.224 -347.84)" fill="#4b0263"/>
      </g>
      <g id="Grupo_57358" data-name="Grupo 57358" transform="translate(0 4.452)">
        <path id="Trazado_102919" data-name="Trazado 102919" d="M348.774,353.064h0a1.289,1.289,0,0,1-1.289,1.289h-8.906a1.289,1.289,0,0,1-1.289-1.289h0a1.289,1.289,0,0,1,1.289-1.29h8.906A1.289,1.289,0,0,1,348.774,353.064Z" transform="translate(-337.29 -351.774)" fill="#4b0263"/>
      </g>
    </g>
    <g id="Grupo_57610" data-name="Grupo 57610" transform="translate(367.516 1586.661)">
      <g id="Grupo_57357-2" data-name="Grupo 57357" transform="translate(4.452)">
        <path id="Trazado_102918-2" data-name="Trazado 102918" d="M342.513,359.324h0a1.289,1.289,0,0,1-1.289-1.289v-8.906a1.289,1.289,0,0,1,1.289-1.289h0a1.289,1.289,0,0,1,1.29,1.289v8.906A1.289,1.289,0,0,1,342.513,359.324Z" transform="translate(-341.224 -347.84)" fill="#4b0263"/>
      </g>
      <g id="Grupo_57358-2" data-name="Grupo 57358" transform="translate(0 4.452)">
        <path id="Trazado_102919-2" data-name="Trazado 102919" d="M348.774,353.064h0a1.289,1.289,0,0,1-1.289,1.289h-8.906a1.289,1.289,0,0,1-1.289-1.289h0a1.289,1.289,0,0,1,1.289-1.29h8.906A1.289,1.289,0,0,1,348.774,353.064Z" transform="translate(-337.29 -351.774)" fill="#4b0263"/>
      </g>
    </g>
    <g id="Grupo_57607" data-name="Grupo 57607" transform="translate(319.495 1467.369) rotate(-41)">
      <g id="Grupo_57402" data-name="Grupo 57402" transform="translate(25.999 47.147)">
        <g id="Grupo_57401" data-name="Grupo 57401" transform="translate(0)">
          <path id="Trazado_102935" data-name="Trazado 102935" d="M108.591,315.064a94.844,94.844,0,0,1,2.419-22.726c-.108.006-.212.016-.323.016-.194,0-.381-.01-.563-.028-.42,1.822-.8,3.652-1.109,5.5A95.415,95.415,0,0,0,108.9,328.5a91.556,91.556,0,0,0,4.332,16.765c.19.521,1.016.267.825-.256A92.1,92.1,0,0,1,108.591,315.064Z" transform="translate(-107.715 -292.326)" fill="#febb09"/>
        </g>
      </g>
      <g id="Grupo_57403" data-name="Grupo 57403" transform="translate(0 41.355)">
        <path id="Trazado_102936" data-name="Trazado 102936" d="M107.5,310.938l-1.254-.377c-4.016-1.207-11.635-3.9-17.547-8.392a26.806,26.806,0,0,1-7.678-8.294c-.78-1.423-1.613-3.491-1.154-5.261a3.147,3.147,0,0,1,1.6-2.043,5.542,5.542,0,0,1,4.332-.082,21.515,21.515,0,0,1,6.839,4.666c4.468,4.082,8.071,9.549,11.555,14.837.86,1.3,1.714,2.6,2.572,3.862ZM83.573,287.019a3.583,3.583,0,0,0-1.672.372,2.212,2.212,0,0,0-1.137,1.457,6.743,6.743,0,0,0,1.069,4.58,25.925,25.925,0,0,0,7.426,8c5.228,3.97,11.845,6.517,15.995,7.851q-.918-1.374-1.84-2.777c-3.452-5.24-7.022-10.659-11.406-14.662a20.732,20.732,0,0,0-6.522-4.475A5.764,5.764,0,0,0,83.573,287.019Z" transform="translate(-79.733 -286.093)" fill="#febb09"/>
      </g>
      <g id="Grupo_57404" data-name="Grupo 57404" transform="translate(6.173 17.251)">
        <path id="Trazado_102937" data-name="Trazado 102937" d="M108.915,295.977l-1.068-.759c-3.914-2.782-11.191-8.5-15.956-15.532-2.947-4.35-4.626-8.1-5.282-11.8-.323-1.819-.469-4.352.666-6.086a3.54,3.54,0,0,1,2.441-1.6,6.272,6.272,0,0,1,4.68,1.487c2.366,1.86,4.136,4.73,5.7,7.553,3.351,6.063,5.255,13.317,7.1,20.333.455,1.732.907,3.453,1.375,5.139Zm-18.509-34.9a3.319,3.319,0,0,0-.54.043,2.6,2.6,0,0,0-1.813,1.193c-.756,1.154-.944,3.077-.53,5.415.634,3.564,2.265,7.2,5.137,11.436,4.28,6.319,10.645,11.571,14.658,14.524-.347-1.278-.687-2.574-1.029-3.876-1.828-6.96-3.716-14.157-7.011-20.118-1.513-2.738-3.22-5.515-5.457-7.273A5.763,5.763,0,0,0,90.406,261.078Z" transform="translate(-86.377 -260.15)" fill="#febb09"/>
      </g>
      <g id="Grupo_57405" data-name="Grupo 57405" transform="translate(27.577)">
        <path id="Trazado_102938" data-name="Trazado 102938" d="M110.19,290.926l-.144-1.3c-.675-6.1-1.408-17.912,1.253-28.439,1.645-6.506,3.791-11.287,6.754-15.049,1.449-1.84,3.719-4.114,6.3-4.5a4.4,4.4,0,0,1,3.509.942,7.91,7.91,0,0,1,2.516,5.647c.236,3.822-1,7.944-2.362,11.83-2.938,8.353-8.247,16.347-13.382,24.078-1.268,1.909-2.527,3.806-3.74,5.69Zm14.894-48.415a4.021,4.021,0,0,0-.59.046c-1.781.265-3.809,1.741-5.711,4.155-2.879,3.655-4.971,8.327-6.582,14.7-2.447,9.68-1.982,20.487-1.367,26.8.99-1.523,2.008-3.054,3.03-4.594,5.1-7.683,10.38-15.629,13.279-23.873,1.334-3.793,2.537-7.807,2.312-11.464a6.982,6.982,0,0,0-2.174-4.982A3.411,3.411,0,0,0,125.084,242.511Z" transform="translate(-109.414 -241.583)" fill="#febb09"/>
      </g>
      <g id="Grupo_57406" data-name="Grupo 57406" transform="translate(26.919 35.57)">
        <path id="Trazado_102939" data-name="Trazado 102939" d="M108.706,296.381l.751-.978a43.9,43.9,0,0,1,13.252-11.657,30.532,30.532,0,0,1,11.1-3.743,12.359,12.359,0,0,1,6.157.57,3.417,3.417,0,0,1,2.152,2.364,3.665,3.665,0,0,1-.977,3.153c-1.529,1.751-4.168,3.03-6.791,4.15-5.605,2.394-12.64,3.7-19.443,4.956-1.684.312-3.356.622-4.991.945ZM135.977,280.8a17.556,17.556,0,0,0-2.06.127,29.635,29.635,0,0,0-10.767,3.639,42.2,42.2,0,0,0-12.184,10.425c1.242-.238,2.5-.471,3.77-.705,6.753-1.251,13.736-2.544,19.247-4.9,2.522-1.077,5.05-2.3,6.456-3.907a2.759,2.759,0,0,0,.769-2.344,2.585,2.585,0,0,0-1.625-1.714A9.019,9.019,0,0,0,135.977,280.8Z" transform="translate(-108.706 -279.866)" fill="#febb09"/>
      </g>
      <g id="Grupo_57407" data-name="Grupo 57407" transform="translate(25.526 49.559)">
        <path id="Trazado_102940" data-name="Trazado 102940" d="M107.206,311.436l.75-.978A43.933,43.933,0,0,1,121.209,298.8a30.518,30.518,0,0,1,11.1-3.743,12.369,12.369,0,0,1,6.157.57,3.417,3.417,0,0,1,2.152,2.364,3.664,3.664,0,0,1-.977,3.153c-1.529,1.751-4.168,3.03-6.791,4.15-5.608,2.4-12.647,3.7-19.455,4.959-1.681.311-3.349.62-4.98.941Zm27.271-15.582a17.76,17.76,0,0,0-2.06.126,29.669,29.669,0,0,0-10.767,3.639,42.226,42.226,0,0,0-12.184,10.427c1.239-.239,2.5-.471,3.759-.705,6.757-1.25,13.745-2.543,19.259-4.9,2.522-1.077,5.05-2.3,6.456-3.907a2.759,2.759,0,0,0,.769-2.344,2.587,2.587,0,0,0-1.626-1.714A8.979,8.979,0,0,0,134.477,295.854Z" transform="translate(-107.206 -294.922)" fill="#febb09"/>
      </g>
      <g id="Grupo_57408" data-name="Grupo 57408" transform="translate(6.88 65.764)">
        <path id="Trazado_102941" data-name="Trazado 102941" d="M108.7,327.105l-1.3-.183a40.126,40.126,0,0,1-12.794-3.885,18.474,18.474,0,0,1-6.1-4.861,5.447,5.447,0,0,1-1.355-3.545,2.3,2.3,0,0,1,.931-1.651,3.949,3.949,0,0,1,3.039-.529,14.865,14.865,0,0,1,5.165,2.473c3.462,2.312,6.471,5.648,9.383,8.876.715.793,1.425,1.58,2.135,2.345ZM90.2,313.292a2.65,2.65,0,0,0-1.559.434,1.37,1.37,0,0,0-.56,1,4.476,4.476,0,0,0,1.167,2.887,17.618,17.618,0,0,0,5.806,4.609,37.535,37.535,0,0,0,11.175,3.577c-.414-.454-.829-.914-1.245-1.375-2.873-3.185-5.844-6.478-9.209-8.725a14.089,14.089,0,0,0-4.823-2.334A4.031,4.031,0,0,0,90.2,313.292Z" transform="translate(-87.137 -312.364)" fill="#febb09"/>
      </g>
      <g id="Grupo_57409" data-name="Grupo 57409" transform="translate(25.992 68.885)">
        <path id="Trazado_102942" data-name="Trazado 102942" d="M107.708,327.395l.751-.977a30.21,30.21,0,0,1,9.121-8.021,21.056,21.056,0,0,1,7.651-2.579,8.629,8.629,0,0,1,4.293.4,2.477,2.477,0,0,1,1.556,1.722,2.652,2.652,0,0,1-.7,2.286,13.253,13.253,0,0,1-4.7,2.881c-3.856,1.646-8.684,2.54-13.353,3.4-1.149.213-2.29.424-3.406.644Zm19.028-10.742a12.168,12.168,0,0,0-1.4.086,20.2,20.2,0,0,0-7.32,2.475A28.514,28.514,0,0,0,109.979,326c.718-.137,1.446-.271,2.175-.406,4.62-.855,9.4-1.74,13.157-3.346a12.538,12.538,0,0,0,4.369-2.638,1.744,1.744,0,0,0,.493-1.476,1.633,1.633,0,0,0-1.029-1.072A6.005,6.005,0,0,0,126.736,316.653Z" transform="translate(-107.708 -315.723)" fill="#febb09"/>
      </g>
    </g>
    <g id="Grupo_57604" data-name="Grupo 57604" transform="translate(-801.295 1374.543)">
      <g id="Grupo_57508" data-name="Grupo 57508" transform="translate(1320.351 62.053)">
        <g id="Grupo_57501" data-name="Grupo 57501">
          <rect id="Rectángulo_6695" data-name="Rectángulo 6695" width="76.919" height="92.794" rx="11.653" fill="#fff"/>
        </g>
        <g id="Grupo_57507" data-name="Grupo 57507" transform="translate(11.37 17.444)">
          <g id="Grupo_57502" data-name="Grupo 57502" transform="translate(0 0.003)">
            <path id="Trazado_103089" data-name="Trazado 103089" d="M1310.71,71.147v57.9h-13.544c1.559-9.7,3.236-46.957,3.236-46.957l-14.544,5.353-2.235-6.98a121.484,121.484,0,0,1,18.722-7.811,44.775,44.775,0,0,1,4.638-1.131A21.677,21.677,0,0,1,1310.71,71.147Z" transform="translate(-1283.623 -71.147)" fill="#339ce9"/>
          </g>
          <g id="Grupo_57503" data-name="Grupo 57503" transform="translate(27.09)">
            <path id="Trazado_103090" data-name="Trazado 103090" d="M1302.108,71.145c9.429,0,27.09,9.315,27.09,9.315l-2.238,6.986-14.544-5.356s1.678,37.259,3.236,46.96h-13.544" transform="translate(-1302.108 -71.145)" fill="#339ce9"/>
          </g>
          <g id="Grupo_57504" data-name="Grupo 57504" transform="translate(18.722 0.375)">
            <path id="Trazado_103091" data-name="Trazado 103091" d="M1297.622,81.032l1.943-2.166-2.484-.075-.683-6.259a44.775,44.775,0,0,1,4.638-1.131l3.727,19.262Z" transform="translate(-1296.398 -71.401)" fill="#dedede"/>
          </g>
          <g id="Grupo_57505" data-name="Grupo 57505" transform="translate(27.09 0.375)">
            <path id="Trazado_103092" data-name="Trazado 103092" d="M1309.249,81.032l-1.945-2.166,2.484-.075.683-6.259a44.66,44.66,0,0,0-4.638-1.131l-3.725,19.262Z" transform="translate(-1302.108 -71.401)" fill="#dedede"/>
          </g>
          <g id="Grupo_57506" data-name="Grupo 57506" transform="translate(21.935 19.167)">
            <path id="Trazado_103093" data-name="Trazado 103093" d="M1299.062,123.43a.472.472,0,0,1,0-.944,4.217,4.217,0,0,0,4.212-4.212V84.7a.471.471,0,1,1,.942,0v33.579A5.16,5.16,0,0,1,1299.062,123.43Z" transform="translate(-1298.591 -84.224)" fill="#855db5"/>
          </g>
        </g>
      </g>
      <g id="Grupo_57534" data-name="Grupo 57534" transform="translate(1354.307 85.722)">
        <g id="Grupo_57521" data-name="Grupo 57521" transform="translate(27.655)">
          <g id="Grupo_57509" data-name="Grupo 57509">
            <rect id="Rectángulo_6696" data-name="Rectángulo 6696" width="13.411" height="100.543" transform="translate(13.074) rotate(7.471)" fill="#f9edb0"/>
          </g>
          <g id="Grupo_57520" data-name="Grupo 57520" transform="translate(9.505 11.002)">
            <g id="Grupo_57510" data-name="Grupo 57510" transform="translate(10.361)">
              <path id="Trazado_103094" data-name="Trazado 103094" d="M1336.609,84.456a.436.436,0,0,1-.062,0l-4.676-.614a.473.473,0,0,1-.407-.528.464.464,0,0,1,.529-.406l4.677.613a.472.472,0,0,1-.06.939Z" transform="translate(-1331.461 -82.9)" fill="#f9e478"/>
            </g>
            <g id="Grupo_57511" data-name="Grupo 57511" transform="translate(9.211 8.777)">
              <path id="Trazado_103095" data-name="Trazado 103095" d="M1335.823,90.447a.435.435,0,0,1-.062,0l-4.675-.614a.471.471,0,1,1,.122-.934l4.676.613a.472.472,0,0,1-.062.939Z" transform="translate(-1330.676 -88.889)" fill="#f9e478"/>
            </g>
            <g id="Grupo_57512" data-name="Grupo 57512" transform="translate(8.059 17.556)">
              <path id="Trazado_103096" data-name="Trazado 103096" d="M1335.038,96.437a.437.437,0,0,1-.062,0l-4.676-.614a.471.471,0,1,1,.123-.934l4.676.613a.472.472,0,0,1-.062.939Z" transform="translate(-1329.89 -94.88)" fill="#f9e478"/>
            </g>
            <g id="Grupo_57513" data-name="Grupo 57513" transform="translate(6.908 26.335)">
              <path id="Trazado_103097" data-name="Trazado 103097" d="M1334.252,102.425a.434.434,0,0,1-.062,0l-4.676-.614a.471.471,0,1,1,.123-.934l4.677.613a.471.471,0,0,1-.062.938Z" transform="translate(-1329.104 -100.87)" fill="#f9e478"/>
            </g>
            <g id="Grupo_57514" data-name="Grupo 57514" transform="translate(5.758 35.112)">
              <path id="Trazado_103098" data-name="Trazado 103098" d="M1333.466,108.415a.445.445,0,0,1-.062,0l-4.675-.614a.471.471,0,0,1-.406-.529.462.462,0,0,1,.529-.4l4.675.613a.471.471,0,0,1-.062.938Z" transform="translate(-1328.319 -106.859)" fill="#f9e478"/>
            </g>
            <g id="Grupo_57515" data-name="Grupo 57515" transform="translate(4.606 43.891)">
              <path id="Trazado_103099" data-name="Trazado 103099" d="M1332.68,114.405a.3.3,0,0,1-.062,0l-4.675-.613a.471.471,0,0,1-.406-.529.462.462,0,0,1,.529-.4l4.675.613a.471.471,0,0,1-.062.938Z" transform="translate(-1327.533 -112.85)" fill="#f9e478"/>
            </g>
            <g id="Grupo_57516" data-name="Grupo 57516" transform="translate(3.454 52.669)">
              <path id="Trazado_103100" data-name="Trazado 103100" d="M1331.9,120.4a.3.3,0,0,1-.062,0l-4.676-.613a.471.471,0,0,1-.406-.529.465.465,0,0,1,.529-.406l4.676.614a.471.471,0,0,1-.062.938Z" transform="translate(-1326.747 -118.839)" fill="#f9e478"/>
            </g>
            <g id="Grupo_57517" data-name="Grupo 57517" transform="translate(2.304 61.446)">
              <path id="Trazado_103101" data-name="Trazado 103101" d="M1331.109,126.386a.284.284,0,0,1-.06,0l-4.677-.613a.472.472,0,0,1,.123-.935l4.675.614a.471.471,0,0,1-.062.938Z" transform="translate(-1325.962 -124.828)" fill="#f9e478"/>
            </g>
            <g id="Grupo_57518" data-name="Grupo 57518" transform="translate(1.152 70.225)">
              <path id="Trazado_103102" data-name="Trazado 103102" d="M1330.324,132.375a.437.437,0,0,1-.062,0l-4.675-.613a.471.471,0,1,1,.122-.935l4.676.614a.471.471,0,0,1-.062.938Z" transform="translate(-1325.177 -130.819)" fill="#f9e478"/>
            </g>
            <g id="Grupo_57519" data-name="Grupo 57519" transform="translate(0 79.003)">
              <path id="Trazado_103103" data-name="Trazado 103103" d="M1329.54,138.365a.435.435,0,0,1-.062,0l-4.676-.613a.472.472,0,1,1,.123-.935l4.676.614a.471.471,0,0,1-.062.938Z" transform="translate(-1324.39 -136.809)" fill="#f9e478"/>
            </g>
          </g>
        </g>
        <g id="Grupo_57524" data-name="Grupo 57524" transform="translate(15.89 40.844)">
          <g id="Grupo_57522" data-name="Grupo 57522" transform="translate(0 6.583)">
            <rect id="Rectángulo_6697" data-name="Rectángulo 6697" width="8.941" height="98.456" transform="matrix(0.997, 0.074, -0.074, 0.997, 7.256, 0)" fill="#f9e478"/>
          </g>
          <g id="Grupo_57523" data-name="Grupo 57523" transform="translate(3.651)">
            <path id="Trazado_103104" data-name="Trazado 103104" d="M1324.935,134.736l-12.567-.929,3.423-26.38a4.623,4.623,0,0,1,4.81-4.152l.678.05a4.624,4.624,0,0,1,4.146,4.814Z" transform="translate(-1312.368 -103.263)" fill="#febb09"/>
          </g>
        </g>
        <g id="Grupo_57528" data-name="Grupo 57528" transform="translate(11.455 17.664)">
          <g id="Grupo_57525" data-name="Grupo 57525" transform="translate(0.003 17.675)">
            <rect id="Rectángulo_6698" data-name="Rectángulo 6698" width="8.374" height="92.211" fill="#12263f"/>
          </g>
          <g id="Grupo_57526" data-name="Grupo 57526">
            <path id="Trazado_103105" data-name="Trazado 103105" d="M1315.229,105.119h-8.379l2.586-10.906,1.6-6.768,1.6,6.768Z" transform="translate(-1306.85 -87.446)" fill="#dedede"/>
          </g>
          <g id="Grupo_57527" data-name="Grupo 57527" transform="translate(2.586)">
            <path id="Trazado_103106" data-name="Trazado 103106" d="M1311.822,94.214h-3.207l1.6-6.768Z" transform="translate(-1308.615 -87.446)" fill="#12263f"/>
          </g>
        </g>
        <g id="Grupo_57532" data-name="Grupo 57532" transform="translate(0.708 41.457)">
          <g id="Grupo_57529" data-name="Grupo 57529" transform="translate(0.002 10.591)">
            <rect id="Rectángulo_6699" data-name="Rectángulo 6699" width="5.269" height="91.15" transform="translate(0 0.8) rotate(-8.738)" fill="#31d9e7"/>
          </g>
          <g id="Grupo_57530" data-name="Grupo 57530">
            <path id="Trazado_103107" data-name="Trazado 103107" d="M1304.728,114.272l-5.21.8.566-7.029.35-4.362,1.644,4.056Z" transform="translate(-1299.517 -103.681)" fill="#dedede"/>
          </g>
          <g id="Grupo_57531" data-name="Grupo 57531" transform="translate(0.566)">
            <path id="Trazado_103108" data-name="Trazado 103108" d="M1301.9,107.737l-1.994.307.35-4.362Z" transform="translate(-1299.903 -103.681)" fill="#31d9e7"/>
          </g>
        </g>
        <g id="Grupo_57533" data-name="Grupo 57533" transform="translate(0 89.799)">
          <path id="Trazado_103109" data-name="Trazado 103109" d="M1335.818,219.86h-26.181a5.56,5.56,0,0,1-5.572-5.175l-5.031-78.017h47.385l-5.031,78.017A5.56,5.56,0,0,1,1335.818,219.86Z" transform="translate(-1299.034 -136.668)" fill="#ff4900"/>
        </g>
      </g>
      <g id="Grupo_57551" data-name="Grupo 57551" transform="translate(1180.295 53.202)">
        <g id="Grupo_57535" data-name="Grupo 57535" transform="translate(108.218 33.366)">
          <path id="Trazado_103110" data-name="Trazado 103110" d="M1297.317,248.114h-24.14l-9.124-83.072-9.914-89.073c3.633,1.405,8.98,3.428,12.854,4.656a131.314,131.314,0,0,0,12.885,3.063c1.37,7.659,5.5,32.741,4.937,53.033a44.569,44.569,0,0,0,1.842,14.1c.323,1.074.659,2.28.994,3.614a110.145,110.145,0,0,1,3.085,27.331C1290.611,205.678,1299.061,227.864,1297.317,248.114Z" transform="translate(-1254.139 -75.97)" fill="#167fcc"/>
        </g>
        <g id="Grupo_57536" data-name="Grupo 57536" transform="translate(43.976 13.411)">
          <path id="Trazado_103111" data-name="Trazado 103111" d="M1293.808,89v71.592H1210.3V88.815L1234.8,76.3l2.645-13.947h26.065l3.83,18.239Z" transform="translate(-1210.303 -62.353)" fill="#636363"/>
        </g>
        <g id="Grupo_57537" data-name="Grupo 57537" transform="translate(44.872 29.503)">
          <path id="Trazado_103112" data-name="Trazado 103112" d="M1313.371,249.341H1210.914V82.593l19.311-9.259L1241.061,84.9c3.139,6.019,7.033,13.169,11.652,21.071.841,1.438,1.706,2.908,2.6,4.394,3.417,5.718,7.184,11.769,11.287,18.012a415.423,415.423,0,0,0,37.855,49.582q2.02,2.253,4.093,4.474l-3.775,10.713a25.224,25.224,0,0,0-.127,16.4A223.191,223.191,0,0,1,1313.371,249.341Z" transform="translate(-1210.914 -73.334)" fill="#339ce9"/>
        </g>
        <g id="Grupo_57538" data-name="Grupo 57538" transform="translate(104.191 31.784)">
          <path id="Trazado_103113" data-name="Trazado 103113" d="M1288.93,154.935c-1.621,4.414-4,8.132-7.366,10.61h-24.809l-5.364-90.656s1.641.659,4.027,1.583c3.633,1.405,8.98,3.428,12.854,4.656a131.3,131.3,0,0,0,12.885,3.063l.083.016a5.935,5.935,0,0,1,4.8,5.541,69.7,69.7,0,0,0,2.433,15.379C1290.791,113.292,1294.884,138.784,1288.93,154.935Z" transform="translate(-1251.391 -74.89)" fill="#167fcc"/>
        </g>
        <g id="Grupo_57539" data-name="Grupo 57539" transform="translate(0.923 29.503)">
          <path id="Trazado_103114" data-name="Trazado 103114" d="M1239.4,232.57a19.037,19.037,0,0,1-.274,13.052l-.2.5-.542,1.357-52.131-1.357-5.325-5.815c2.628-5.1,11.044-6.432,11.044-6.432h0a3.223,3.223,0,0,1-.273-3.035c1.631-3.79.01-3-.709-36.81-.8-37.819,27.8-104.244,27.8-104.244a5.149,5.149,0,0,1-.085-.939,5.239,5.239,0,0,1,2.982-4.726l3.186-1.529,19.311-9.259L1255.02,84.9c3.139,6.019,7.033,13.169,11.652,21.071-7.876,8.539-24.654,29.632-30,59.125-5.776,31.87-.963,50.848.994,57.493a19.481,19.481,0,0,1,.747,4.527A20.529,20.529,0,0,0,1239.4,232.57Z" transform="translate(-1180.925 -73.334)" fill="#339ce9"/>
        </g>
        <g id="Grupo_57540" data-name="Grupo 57540" transform="translate(71.119 10.37)">
          <path id="Trazado_103115" data-name="Trazado 103115" d="M1254.889,63.319h-26.065a3.733,3.733,0,0,1,3.67-3.041h18.726a3.732,3.732,0,0,1,3.654,2.966Z" transform="translate(-1228.824 -60.278)" fill="#1d1c58"/>
        </g>
        <g id="Grupo_57541" data-name="Grupo 57541" transform="translate(50.301 23.374)">
          <path id="Trazado_103116" data-name="Trazado 103116" d="M1264.871,130.323a127.855,127.855,0,0,1-24.563-.22,96.781,96.781,0,0,1-17.321-3.432,11.816,11.816,0,0,1-8.353-11.931l1.974-38.145a5.016,5.016,0,0,1,2.906-4.3l5.8-2.682a5.017,5.017,0,0,1,6.648,2.414c3.35,7.114,10.7,22,21.623,40.281C1257,118.029,1260.768,124.08,1264.871,130.323Z" transform="translate(-1214.618 -69.151)" fill="#f2f2f2"/>
        </g>
        <g id="Grupo_57542" data-name="Grupo 57542" transform="translate(66.785 66.533)">
          <path id="Trazado_103117" data-name="Trazado 103117" d="M1297.49,166.2c-22.825-1.507-50.407-15-65.62-23.41a11.644,11.644,0,0,1-3.686-17.155l20.164-27.03c3.417,5.718,7.184,11.769,11.287,18.012q3.484,5.311,7.289,10.788c4.045,5.8,8.358,11.711,12.923,17.611C1285.356,152.132,1291.246,159.25,1297.49,166.2Z" transform="translate(-1225.867 -98.602)" fill="#f2f2f2"/>
        </g>
        <g id="Grupo_57543" data-name="Grupo 57543" transform="translate(0 192.77)">
          <path id="Trazado_103118" data-name="Trazado 103118" d="M1186.2,197.347h50.494a1.975,1.975,0,0,0,1.662-3.066,7,7,0,0,0-4.223-2.566c-5.767-1.476-8.784-6.974-16.832-6.974s-10.459,5.633-17.433,5.633-5.566-5.163-12.606-5.163a6.9,6.9,0,0,0-6.042,3.237A5.82,5.82,0,0,0,1186.2,197.347Z" transform="translate(-1180.295 -184.741)" fill="#f2f2f2"/>
        </g>
        <g id="Grupo_57544" data-name="Grupo 57544" transform="translate(53.456 84.558)">
          <path id="Trazado_103119" data-name="Trazado 103119" d="M1222.237,229.106a.452.452,0,0,1-.174-.034.47.47,0,0,1-.264-.611l.2-.5a18.615,18.615,0,0,0,.265-12.728,21.222,21.222,0,0,1-1-5.581,19.229,19.229,0,0,0-.731-4.423c-4.644-15.761-4.991-35.716-1.005-57.707a109.519,109.519,0,0,1,4.5-16.9c3.545-8.855,3.715-19.154,3.716-19.258a.473.473,0,0,1,.472-.465h.006a.472.472,0,0,1,.466.478c0,.1-.173,10.574-3.778,19.576a108.593,108.593,0,0,0-4.454,16.737c-3.96,21.846-3.62,41.651.982,57.272a20.154,20.154,0,0,1,.768,4.641,20.3,20.3,0,0,0,.955,5.333,19.563,19.563,0,0,1-.284,13.373l-.2.5A.473.473,0,0,1,1222.237,229.106Z" transform="translate(-1216.771 -110.901)" fill="#855db5"/>
        </g>
        <g id="Grupo_57545" data-name="Grupo 57545" transform="translate(11.496 188.029)">
          <path id="Trazado_103120" data-name="Trazado 103120" d="M1220.016,183.994a.467.467,0,0,1-.209-.05c-5.806-2.878-24.437-.945-31.127.044a.466.466,0,0,1-.535-.4.472.472,0,0,1,.4-.535c6.771-1,25.661-2.943,31.684.044a.472.472,0,0,1-.209.894Z" transform="translate(-1188.139 -181.506)" fill="#855db5"/>
        </g>
        <g id="Grupo_57546" data-name="Grupo 57546" transform="translate(24.322 182.845)">
          <path id="Trazado_103121" data-name="Trazado 103121" d="M1197.363,184.332a.471.471,0,0,1-.182-.906c.5-.208,12.225-5.122,18.736-5.458a.455.455,0,0,1,.5.446.47.47,0,0,1-.446.5c-6.349.328-18.3,5.336-18.421,5.386A.475.475,0,0,1,1197.363,184.332Z" transform="translate(-1196.892 -177.969)" fill="#855db5"/>
        </g>
        <g id="Grupo_57547" data-name="Grupo 57547" transform="translate(99.948 26.571)">
          <path id="Trazado_103122" data-name="Trazado 103122" d="M1248.5,71.333c1.827,8.028,10.276,61.044,7.729,96.963,0,0,16.044-10.178,26.245-26.523a10.015,10.015,0,0,0-1.589-12.543,53.033,53.033,0,0,0-11.246-8.3l6.819-4.5a9.222,9.222,0,0,0,2.557-12.874l-16.9-24.93a15.7,15.7,0,0,0-10.017-6.606Z" transform="translate(-1248.496 -71.333)" fill="#f2f2f2"/>
        </g>
        <g id="Grupo_57548" data-name="Grupo 57548" transform="translate(107.372 94.863)">
          <path id="Trazado_103123" data-name="Trazado 103123" d="M1266.955,136.486a.473.473,0,0,1-.374-.183c-4.354-5.63-8.707-11.561-12.935-17.63a.471.471,0,1,1,.772-.539c4.221,6.055,8.563,11.975,12.91,17.592a.471.471,0,0,1-.085.661A.466.466,0,0,1,1266.955,136.486Z" transform="translate(-1253.562 -117.933)" fill="#ababab"/>
        </g>
        <g id="Grupo_57549" data-name="Grupo 57549" transform="translate(133.485 40.613)">
          <path id="Trazado_103124" data-name="Trazado 103124" d="M1279.625,152.6a.475.475,0,0,1-.459-.358c-.308-1.231-.639-2.44-.988-3.592a45,45,0,0,1-1.86-14.246c.567-20.376-3.632-45.671-4.931-52.938a.472.472,0,0,1,.929-.166c1.3,7.289,5.515,32.663,4.944,53.13a44.071,44.071,0,0,0,1.82,13.949c.352,1.165.689,2.389,1,3.634a.472.472,0,0,1-.343.572A.437.437,0,0,1,1279.625,152.6Z" transform="translate(-1271.38 -80.915)" fill="#855db5"/>
        </g>
        <g id="Grupo_57550" data-name="Grupo 57550" transform="translate(80.888)">
          <path id="Trazado_103125" data-name="Trazado 103125" d="M1242.017,56.466a3.264,3.264,0,1,0-4.918,2.809V64.11h3.309V59.275A3.262,3.262,0,0,0,1242.017,56.466Z" transform="translate(-1235.49 -53.202)" fill="#1d1c58"/>
        </g>
      </g>
      <g id="Grupo_57578" data-name="Grupo 57578" transform="translate(1309.761 133.447)">
        <g id="Grupo_57552" data-name="Grupo 57552" transform="translate(0 55.05)">
          <path id="Trazado_103126" data-name="Trazado 103126" d="M1274.956,145.768s-4.962-.872-5.9.67-.133,4.761.838,4.862a5.538,5.538,0,0,0,2.515-.838,3.631,3.631,0,0,0,4.358-2.047Z" transform="translate(-1268.638 -145.522)" fill="#e7ba8c"/>
        </g>
        <g id="Grupo_57553" data-name="Grupo 57553" transform="translate(31.733 58.303)">
          <path id="Trazado_103127" data-name="Trazado 103127" d="M1311.511,207.6h-8.449a188.107,188.107,0,0,1-10.241-34.476,142.545,142.545,0,0,1-2.531-20.375V149.4l9.682-1.653S1301.99,183.056,1311.511,207.6Z" transform="translate(-1290.291 -147.742)" fill="#febb09"/>
        </g>
        <g id="Grupo_57554" data-name="Grupo 57554" transform="translate(23.743 60.537)">
          <path id="Trazado_103128" data-name="Trazado 103128" d="M1287.72,149.266s-3.3,14.171-2.836,57.622h8.915s.268-34.2,4.023-54.179v-3.442Z" transform="translate(-1284.839 -149.266)" fill="#febb09"/>
        </g>
        <g id="Grupo_57555" data-name="Grupo 57555" transform="translate(28.338)">
          <path id="Trazado_103129" data-name="Trazado 103129" d="M1288.983,114.831a8.379,8.379,0,0,1-.443-6.873,6.017,6.017,0,0,0,.515,3.539,5.7,5.7,0,0,1,2.512-2.795s-2.031,4.155-1.649,6.706Z" transform="translate(-1287.974 -107.958)" fill="#1d1c58"/>
        </g>
        <g id="Grupo_57556" data-name="Grupo 57556" transform="translate(29.853 2.992)">
          <path id="Trazado_103130" data-name="Trazado 103130" d="M1289.008,114.193s-.032-4.292,3.287-4.191,4.358,8.113-1.879,5.632Z" transform="translate(-1289.008 -110)" fill="#1d1c58"/>
        </g>
        <g id="Grupo_57557" data-name="Grupo 57557" transform="translate(28.153 6.677)">
          <path id="Trazado_103131" data-name="Trazado 103131" d="M1290.914,115.268a1.749,1.749,0,0,1-2.633-2.3c.635-.727,1.476-.5,2.2.138S1291.55,114.541,1290.914,115.268Z" transform="translate(-1287.848 -112.514)" fill="#f17781"/>
        </g>
        <g id="Grupo_57558" data-name="Grupo 57558" transform="translate(17.415 6.58)">
          <path id="Trazado_103132" data-name="Trazado 103132" d="M1297.418,132.3l-5.664,2.581-2.349-5.128c-2.57,2.1-4.581,1.019-6.079-1.282l-1.045.478a.432.432,0,0,1-.591-.526l.259-.815a3.056,3.056,0,0,0-.06-2.037,30.592,30.592,0,0,1-1.1-3.526v-.006c-.032-.129-.059-.252-.091-.375,0-.012-.006-.016-.006-.026a7.719,7.719,0,0,1-.133-.859v-.006a6.44,6.44,0,0,1-.038-.74,7.578,7.578,0,1,1,13.9,4.174,2.541,2.541,0,0,0-.4,1.813,2.582,2.582,0,0,0,.317.912Z" transform="translate(-1280.521 -112.448)" fill="#e7ba8c"/>
        </g>
        <g id="Grupo_57559" data-name="Grupo 57559" transform="translate(19.887 18.822)">
          <path id="Trazado_103133" data-name="Trazado 103133" d="M1282.726,121.24c.086.28.053.539-.078.579s-.3-.154-.393-.432-.052-.539.078-.58S1282.639,120.961,1282.726,121.24Z" transform="translate(-1282.208 -120.801)" fill="#1d1c58"/>
        </g>
        <g id="Grupo_57560" data-name="Grupo 57560" transform="translate(17.415 6.58)">
          <path id="Trazado_103134" data-name="Trazado 103134" d="M1294.426,124.2a2.541,2.541,0,0,0-.4,1.813c-.724.5-1.534.724-2.1-.135a3.34,3.34,0,0,0-.821-.851,7.14,7.14,0,0,0-3.571-1.181,2.226,2.226,0,0,1-.73-.155c-1.8-.681-1.181-3.4-1.181-3.4-2.178,1.369-1.373-1.1-1.373-1.1l-.809.649a.626.626,0,0,1-1.01-.589,9.894,9.894,0,0,1,.242-1.133,3.575,3.575,0,0,0-2.107,2.655,6.44,6.44,0,0,1-.038-.74,7.578,7.578,0,1,1,13.9,4.174Z" transform="translate(-1280.521 -112.448)" fill="#1d1c58"/>
        </g>
        <g id="Grupo_57561" data-name="Grupo 57561" transform="translate(24.109 15.668)">
          <path id="Trazado_103135" data-name="Trazado 103135" d="M1286.836,118.678c-1.773-.34-1.747,2.4-1.747,2.4l1.252,1.849C1289.9,123.6,1288.608,119.017,1286.836,118.678Z" transform="translate(-1285.089 -118.649)" fill="#e7ba8c"/>
        </g>
        <g id="Grupo_57562" data-name="Grupo 57562" transform="translate(25.046 18.585)">
          <path id="Trazado_103136" data-name="Trazado 103136" d="M1286.711,122.381a3.874,3.874,0,0,1-.727-.073.314.314,0,0,1-.25-.368.318.318,0,0,1,.368-.249c1.057.2,1.678-.07,1.845-.807a.319.319,0,0,1,.377-.236.314.314,0,0,1,.237.377A1.716,1.716,0,0,1,1286.711,122.381Z" transform="translate(-1285.728 -120.64)" fill="#d9a573"/>
        </g>
        <g id="Grupo_57563" data-name="Grupo 57563" transform="translate(24.663 16.171)">
          <path id="Trazado_103137" data-name="Trazado 103137" d="M1285.861,122.034a.315.315,0,0,1-.309-.255,3.7,3.7,0,0,1,.242-2.333,1.026,1.026,0,0,1,.69-.435,1.1,1.1,0,0,1,.941.242,1.764,1.764,0,0,1,.444,1.285.323.323,0,0,1-.33.3.316.316,0,0,1-.3-.33,1.159,1.159,0,0,0-.236-.786.445.445,0,0,0-.422-.088.391.391,0,0,0-.274.176,3.122,3.122,0,0,0-.138,1.854.315.315,0,0,1-.252.368A.378.378,0,0,1,1285.861,122.034Z" transform="translate(-1285.466 -118.993)" fill="#d9a573"/>
        </g>
        <g id="Grupo_57564" data-name="Grupo 57564" transform="translate(24.712 17.091)">
          <path id="Trazado_103138" data-name="Trazado 103138" d="M1286.652,122.034l-.041,0a.315.315,0,0,1-.27-.353,1.508,1.508,0,0,0-.686-1.471.314.314,0,0,1,.315-.544,2.131,2.131,0,0,1,.993,2.1A.315.315,0,0,1,1286.652,122.034Z" transform="translate(-1285.5 -119.62)" fill="#d9a573"/>
        </g>
        <g id="Grupo_57565" data-name="Grupo 57565" transform="translate(22.23 21.085)">
          <path id="Trazado_103139" data-name="Trazado 103139" d="M1284.121,124.584a.315.315,0,0,1-.195-.561,2.027,2.027,0,0,0,.72-1.375.324.324,0,0,1,.327-.3.313.313,0,0,1,.3.324,2.64,2.64,0,0,1-.958,1.845A.312.312,0,0,1,1284.121,124.584Z" transform="translate(-1283.807 -122.346)" fill="#d9a573"/>
        </g>
        <g id="Grupo_57566" data-name="Grupo 57566" transform="translate(25.244 22.108)">
          <path id="Trazado_103140" data-name="Trazado 103140" d="M1287.085,129.712l-.9-1.382a2.017,2.017,0,0,1,.487-2.714c1.459-1.093,4.134-2.54,6.286-2.572a1.422,1.422,0,0,1,1.3.849l1.07,2.379Z" transform="translate(-1285.863 -123.044)" fill="#f17781"/>
        </g>
        <g id="Grupo_57567" data-name="Grupo 57567" transform="translate(20.141 24.882)">
          <path id="Trazado_103141" data-name="Trazado 103141" d="M1304.8,156.932l.333,3.545-17.653,2.286.208-3.289h0a2.341,2.341,0,0,1-1.451-2.447c.24-2.011.642-5.393.99-8.352.23-1.942-.419-2.242-1.2-2.773-1.062-.72-2.383-1.857-2.147-8.019l-1.5-2.72c.343-.633.654-1.212.928-1.722a11.489,11.489,0,0,1,3.454-3.954l4.023-2.869a9.016,9.016,0,0,1,6.255-1.625l.5.059a6.963,6.963,0,0,1,5.617,4.178,64.787,64.787,0,0,0,.494,16.5,96.563,96.563,0,0,0,1.864,9.548,1.49,1.49,0,0,1-.717,1.659Z" transform="translate(-1282.381 -124.937)" fill="#f17781"/>
        </g>
        <g id="Grupo_57568" data-name="Grupo 57568" transform="translate(5.613 24.882)">
          <path id="Trazado_103142" data-name="Trazado 103142" d="M1308.458,145.725H1306.4l-3.825-11.195-8.1,3.825a51.546,51.546,0,0,1-3.829,7.547,34.56,34.56,0,0,1-15.225,13.572l-2.95-4.468,1.835-1.476a2.732,2.732,0,0,1,.623-2.478c3.91-4.383,9.644-11.443,12.07-15.889.343-.633.654-1.212.928-1.722a11.49,11.49,0,0,1,3.454-3.954l4.023-2.869a9.017,9.017,0,0,1,6.255-1.625l.5.059a6.963,6.963,0,0,1,5.617,4.178c.032.065.058.135.085.2l4.27,10.916A3.941,3.941,0,0,1,1308.458,145.725Z" transform="translate(-1272.468 -124.937)" fill="#f17781"/>
        </g>
        <g id="Grupo_57569" data-name="Grupo 57569" transform="translate(23.317 37.829)">
          <path id="Trazado_103143" data-name="Trazado 103143" d="M1285.02,142.262a.484.484,0,0,1-.249-.07.474.474,0,0,1-.152-.649,51.323,51.323,0,0,0,3.794-7.48.471.471,0,0,1,.872.358,52.179,52.179,0,0,1-3.863,7.618A.472.472,0,0,1,1285.02,142.262Z" transform="translate(-1284.548 -133.771)" fill="#191641"/>
        </g>
        <g id="Grupo_57570" data-name="Grupo 57570" transform="translate(40.174 32.064)">
          <path id="Trazado_103144" data-name="Trazado 103144" d="M1297.291,143.916a.472.472,0,0,1-.466-.4c-.661-4.47-.772-13.112-.774-13.2a.472.472,0,0,1,.466-.478h.006a.473.473,0,0,1,.472.466c0,.086.11,8.665.764,13.072a.471.471,0,0,1-.4.535A.376.376,0,0,1,1297.291,143.916Z" transform="translate(-1296.051 -129.837)" fill="#191641"/>
        </g>
        <g id="Grupo_57571" data-name="Grupo 57571" transform="translate(26.554 56.712)">
          <path id="Trazado_103145" data-name="Trazado 103145" d="M1287.229,149.834a.471.471,0,0,1-.076-.936l13.621-2.235a.464.464,0,0,1,.541.39.471.471,0,0,1-.388.541l-13.62,2.235A.458.458,0,0,1,1287.229,149.834Z" transform="translate(-1286.757 -146.656)" fill="#191641"/>
        </g>
        <g id="Grupo_57572" data-name="Grupo 57572" transform="translate(33.792 63.508)">
          <path id="Trazado_103146" data-name="Trazado 103146" d="M1292.168,171.939h-.039a.473.473,0,0,1-.431-.509c.664-7.911,1.495-14.555,2.469-19.75a.471.471,0,1,1,.926.174c-.969,5.164-1.8,11.777-2.455,19.654A.472.472,0,0,1,1292.168,171.939Z" transform="translate(-1291.696 -151.294)" fill="#191641"/>
        </g>
        <g id="Grupo_57573" data-name="Grupo 57573" transform="translate(14.776 118.158)">
          <path id="Trazado_103147" data-name="Trazado 103147" d="M1296.739,195.693H1278.72l4.876-3.46,5.139-3.648h7.15l.268,2.226Z" transform="translate(-1278.72 -188.585)" fill="#1d1c58"/>
        </g>
        <g id="Grupo_57574" data-name="Grupo 57574" transform="translate(19.651 118.158)">
          <path id="Trazado_103148" data-name="Trazado 103148" d="M1294.6,190.811c-2.022-.9-6.013-.311-8.957,1.331-1.814,1.008-2.94.659-3.6.091l5.139-3.648h7.15Z" transform="translate(-1282.047 -188.585)" fill="#e7ba8c"/>
        </g>
        <g id="Grupo_57575" data-name="Grupo 57575" transform="translate(35.494 120.186)">
          <path id="Trazado_103149" data-name="Trazado 103149" d="M1312.64,195.049h-19.783l4.876-3.46c.659.569,1.786.917,3.6-.091,2.944-1.641,7.6-1.926,9.624-1.024Z" transform="translate(-1292.857 -189.969)" fill="#1d1c58"/>
        </g>
        <g id="Grupo_57576" data-name="Grupo 57576" transform="translate(40.369 118.158)">
          <path id="Trazado_103150" data-name="Trazado 103150" d="M1309.407,191.117c-2.022-.9-6.68-.617-9.624,1.024-1.813,1.008-2.94.659-3.6.091l5.138-3.648h7.152Z" transform="translate(-1296.184 -188.585)" fill="#e48c77"/>
        </g>
        <g id="Grupo_57577" data-name="Grupo 57577" transform="translate(40.369 118.158)">
          <path id="Trazado_103151" data-name="Trazado 103151" d="M1309.407,191.117c-2.022-.9-6.68-.617-9.624,1.024-1.813,1.008-2.94.659-3.6.091l5.138-3.648h7.152Z" transform="translate(-1296.184 -188.585)" fill="#e7ba8c"/>
        </g>
      </g>
      <g id="Grupo_57603" data-name="Grupo 57603" transform="translate(1369.475 169.761)">
        <g id="Grupo_57579" data-name="Grupo 57579" transform="translate(37.598 0)">
          <path id="Trazado_103152" data-name="Trazado 103152" d="M1335.512,173.645a.473.473,0,0,1-.41-.7c1.4-2.465,1.574-5.9,1.76-9.543.251-4.915.533-10.487,4.007-14.75,3.045-3.737,7.084-5.455,10.817-4.59a7.912,7.912,0,0,1,.912.271c.863-.841,1.87-1.649,2.865-2.443,4.007-3.205,6.269-5.368,3.908-8.386a.471.471,0,0,1,.741-.58c3.107,3.969-.7,7.015-4.061,9.7-.87.7-1.751,1.4-2.521,2.119a6.288,6.288,0,0,1,3.274,4.1,3.387,3.387,0,0,1-1,3.636,3.35,3.35,0,0,1-3.577.157,4.2,4.2,0,0,1-1.983-4.26,5.807,5.807,0,0,1,1.634-3.289c-.133-.038-.267-.073-.4-.106-3.371-.778-7.059.815-9.872,4.266-3.28,4.024-3.542,9.2-3.8,14.2-.19,3.755-.371,7.3-1.88,9.961A.472.472,0,0,1,1335.512,173.645Zm17.312-28.2a5.249,5.249,0,0,0-1.641,3.006,3.289,3.289,0,0,0,1.5,3.356,2.388,2.388,0,0,0,2.553-.082,2.464,2.464,0,0,0,.654-2.67A5.4,5.4,0,0,0,1352.824,145.441Z" transform="translate(-1335.04 -132.737)" fill="#a271dc"/>
        </g>
        <g id="Grupo_57580" data-name="Grupo 57580" transform="translate(22.833 20.4)">
          <path id="Trazado_103153" data-name="Trazado 103153" d="M1327.494,167.612a.47.47,0,0,1-.469-.424l-2.057-20.011a.472.472,0,0,1,.938-.1l2.057,20.013a.472.472,0,0,1-.422.517Z" transform="translate(-1324.965 -146.657)" fill="#f9e478"/>
        </g>
        <g id="Grupo_57581" data-name="Grupo 57581" transform="translate(21.794 19.359)">
          <circle id="Elipse_4257" data-name="Elipse 4257" cx="1.511" cy="1.511" r="1.511" fill="#f9e478"/>
        </g>
        <g id="Grupo_57598" data-name="Grupo 57598" transform="translate(1.511 35.61)">
          <g id="Grupo_57597" data-name="Grupo 57597" clip-path="url(#clip-path)">
            <g id="Grupo_57582" data-name="Grupo 57582">
              <path id="Trazado_103154" data-name="Trazado 103154" d="M1363.759,183.707a26.671,26.671,0,1,1-53.343,0,25.618,25.618,0,0,1,.2-3.234,26.67,26.67,0,0,1,53.143,3.234Z" transform="translate(-1310.416 -157.036)" fill="#2ab9c4"/>
            </g>
            <g id="Grupo_57589" data-name="Grupo 57589" transform="translate(-1.817 -2.44)">
              <g id="Grupo_57583" data-name="Grupo 57583" transform="translate(0 18.276)">
                <path id="Trazado_103155" data-name="Trazado 103155" d="M1321.184,203.7a.462.462,0,0,1-.089-.009.47.47,0,0,1-.374-.551c3.635-19.088-11.258-34.347-11.407-34.5a.471.471,0,1,1,.668-.664c.156.155,15.4,15.756,11.666,35.34A.473.473,0,0,1,1321.184,203.7Z" transform="translate(-1309.176 -167.842)" fill="#31d9e7"/>
              </g>
              <g id="Grupo_57584" data-name="Grupo 57584" transform="translate(1.343 15.378)">
                <path id="Trazado_103156" data-name="Trazado 103156" d="M1326.568,206.739a.434.434,0,0,1-.062,0,.472.472,0,0,1-.406-.53c4.1-31.007-15.514-39.353-15.713-39.434a.471.471,0,1,1,.353-.873c.205.082,20.5,8.668,16.295,40.432A.472.472,0,0,1,1326.568,206.739Z" transform="translate(-1310.093 -165.865)" fill="#31d9e7"/>
              </g>
              <g id="Grupo_57585" data-name="Grupo 57585" transform="translate(5.098 10.907)">
                <path id="Trazado_103157" data-name="Trazado 103157" d="M1332.438,210.514a.461.461,0,0,1-.076-.006.471.471,0,0,1-.388-.541,61.7,61.7,0,0,0-3.728-28.942c-5.814-15.136-15.12-17.259-15.213-17.278a.474.474,0,0,1-.366-.558.465.465,0,0,1,.558-.365c.4.082,9.888,2.207,15.9,17.864a62.666,62.666,0,0,1,3.781,29.432A.473.473,0,0,1,1332.438,210.514Z" transform="translate(-1312.655 -162.814)" fill="#31d9e7"/>
              </g>
              <g id="Grupo_57586" data-name="Grupo 57586" transform="translate(8.332 6.615)">
                <path id="Trazado_103158" data-name="Trazado 103158" d="M1341.6,209.523h-.047a.474.474,0,0,1-.422-.517c.016-.138,1.331-13.921-5.777-30.942-7.027-16.831-19.9-17.231-20.031-17.233a.472.472,0,0,1-.464-.478.5.5,0,0,1,.478-.466c.135,0,13.611.385,20.886,17.815,7.206,17.255,5.862,31.262,5.848,31.4A.472.472,0,0,1,1341.6,209.523Z" transform="translate(-1314.862 -159.885)" fill="#31d9e7"/>
              </g>
              <g id="Grupo_57587" data-name="Grupo 57587" transform="translate(15.649 1.962)">
                <path id="Trazado_103159" data-name="Trazado 103159" d="M1344.377,212.462a.471.471,0,0,1-.322-.816c.1-.091,9.617-9.385-.734-31.911-10.38-22.594-22.838-22.072-22.966-22.076a.471.471,0,1,1-.059-.941c.531-.038,13.228-.566,23.882,22.623s.938,32.607.519,33A.47.47,0,0,1,1344.377,212.462Z" transform="translate(-1319.854 -156.71)" fill="#31d9e7"/>
              </g>
              <g id="Grupo_57588" data-name="Grupo 57588" transform="translate(28.017)">
                <path id="Trazado_103160" data-name="Trazado 103160" d="M1348.493,207.811a.481.481,0,0,1-.2-.047.473.473,0,0,1-.221-.629c.037-.078,3.615-7.881-.837-25.357a43.161,43.161,0,0,0-18.694-25.523.471.471,0,0,1,.456-.825,44.14,44.14,0,0,1,19.153,26.115c4.549,17.861.928,25.676.772,26A.471.471,0,0,1,1348.493,207.811Z" transform="translate(-1328.294 -155.371)" fill="#31d9e7"/>
              </g>
            </g>
            <g id="Grupo_57590" data-name="Grupo 57590" transform="translate(0 5.711)">
              <path id="Trazado_103161" data-name="Trazado 103161" d="M1363.759,181.892a26.589,26.589,0,0,1-1.524,8.906,59.912,59.912,0,0,0-47.028,6.351,26.589,26.589,0,0,1-4.791-15.257,25.618,25.618,0,0,1,.2-3.234,72.629,72.629,0,0,1,19.834-12.508c9.017-3.724,18.1-5.588,23.213-5.156A26.621,26.621,0,0,1,1363.759,181.892Z" transform="translate(-1310.416 -160.933)" fill="#31d9e7"/>
            </g>
            <g id="Grupo_57596" data-name="Grupo 57596" transform="translate(-2.708 5.113)">
              <g id="Grupo_57591" data-name="Grupo 57591" transform="translate(3.754 27.833)">
                <path id="Trazado_103162" data-name="Trazado 103162" d="M1311.6,191.207a.472.472,0,0,1-.3-.837c.226-.183,22.746-18.1,54.626-7.5a.472.472,0,0,1-.3.9c-31.376-10.43-53.514,7.16-53.734,7.339A.477.477,0,0,1,1311.6,191.207Z" transform="translate(-1311.13 -179.517)" fill="#95f7ff"/>
              </g>
              <g id="Grupo_57592" data-name="Grupo 57592" transform="translate(0.357)">
                <path id="Trazado_103163" data-name="Trazado 103163" d="M1309.284,181.183a.47.47,0,0,1-.333-.8c.211-.211,21.4-20.971,48.63-19.806a.472.472,0,1,1-.04.942c-26.814-1.118-47.716,19.326-47.925,19.531A.468.468,0,0,1,1309.284,181.183Z" transform="translate(-1308.812 -160.525)" fill="#95f7ff"/>
              </g>
              <g id="Grupo_57593" data-name="Grupo 57593" transform="translate(0 5.053)">
                <path id="Trazado_103164" data-name="Trazado 103164" d="M1309.04,184.585a.472.472,0,0,1-.292-.843c.243-.192,24.764-19.325,52.585-19.77a.464.464,0,0,1,.479.465.471.471,0,0,1-.465.478c-27.5.44-51.775,19.377-52.016,19.567A.463.463,0,0,1,1309.04,184.585Z" transform="translate(-1308.568 -163.973)" fill="#95f7ff"/>
              </g>
              <g id="Grupo_57594" data-name="Grupo 57594" transform="translate(1.341 13.026)">
                <path id="Trazado_103165" data-name="Trazado 103165" d="M1309.955,186.165a.471.471,0,0,1-.286-.847c.258-.195,26.15-19.561,55.158-15.29a.472.472,0,0,1,.4.535.479.479,0,0,1-.536.4c-28.589-4.213-54.2,14.913-54.45,15.108A.468.468,0,0,1,1309.955,186.165Z" transform="translate(-1309.483 -169.413)" fill="#95f7ff"/>
              </g>
              <g id="Grupo_57595" data-name="Grupo 57595" transform="translate(2.235 21.268)">
                <path id="Trazado_103166" data-name="Trazado 103166" d="M1310.565,187.9a.471.471,0,0,1-.283-.849c.238-.177,24.083-17.628,57.694-10.162a.471.471,0,0,1,.357.563.464.464,0,0,1-.561.358c-33.18-7.376-56.693,9.822-56.926,10A.467.467,0,0,1,1310.565,187.9Z" transform="translate(-1310.093 -175.037)" fill="#95f7ff"/>
              </g>
            </g>
          </g>
        </g>
        <g id="Grupo_57599" data-name="Grupo 57599" transform="translate(39.841 23.067)">
          <path id="Trazado_103168" data-name="Trazado 103168" d="M1337.042,171.95a.461.461,0,0,1-.271-.085.472.472,0,0,1-.114-.657l15.824-22.531a.471.471,0,1,1,.771.542l-15.824,22.529A.468.468,0,0,1,1337.042,171.95Z" transform="translate(-1336.571 -148.477)" fill="#f9e478"/>
        </g>
        <g id="Grupo_57600" data-name="Grupo 57600" transform="translate(1.04 21.157)">
          <path id="Trazado_103169" data-name="Trazado 103169" d="M1323.573,176.548a.472.472,0,0,1-.428-.276l-13.008-28.431a.471.471,0,0,1,.857-.393L1324,175.88a.473.473,0,0,1-.233.626A.461.461,0,0,1,1323.573,176.548Z" transform="translate(-1310.095 -147.174)" fill="#f9e478"/>
        </g>
        <g id="Grupo_57601" data-name="Grupo 57601" transform="translate(54.624 22.027)">
          <circle id="Elipse_4258" data-name="Elipse 4258" cx="1.511" cy="1.511" r="1.511" fill="#f9e478"/>
        </g>
        <g id="Grupo_57602" data-name="Grupo 57602" transform="translate(0 20.117)">
          <circle id="Elipse_4259" data-name="Elipse 4259" cx="1.511" cy="1.511" r="1.511" fill="#f9e478"/>
        </g>
      </g>
    </g>
  </g>
</svg>
