<svg xmlns="http://www.w3.org/2000/svg" width="149" height="149" viewBox="0 0 149 149">
  <g id="Grupo_57326" data-name="Grupo 57326" transform="translate(-1000 -526)">
    <rect id="Rectángulo_6583" data-name="Rectángulo 6583" width="149" height="149" transform="translate(1000 526)" fill="none"/>
    <g id="bmp" transform="translate(995 538)">
      <path id="Trazado_102870" data-name="Trazado 102870" d="M116,8H53.538V18.769H32v28H53.538v81.846h86.154V29.538L118.154,8Z" transform="translate(-5.846 -5.846)" fill="#ffdc69"/>
      <path id="Trazado_102871" data-name="Trazado 102871" d="M346.154,8H344V31.692h23.692V29.538Z" transform="translate(-233.846 -5.846)" fill="#ffb855"/>
      <rect id="Rectángulo_6565" data-name="Rectángulo 6565" width="72.872" height="28.028" transform="translate(26.402 12.813)" fill="#ff8c5a"/>
      <rect id="Rectángulo_6566" data-name="Rectángulo 6566" width="26.426" height="42.442" transform="translate(77.653 80.079)" fill="#feec9f"/>
      <path id="Trazado_102872" data-name="Trazado 102872" d="M232.615,380.308,224,388.923v8.615h25.846V376l-10.769,10.769Z" transform="translate(-146.154 -274.769)" fill="#b4ebbe"/>
      <path id="Trazado_102873" data-name="Trazado 102873" d="M249.846,409.231,232.615,392,224,400.615v8.615Z" transform="translate(-146.154 -286.462)" fill="#a0d778"/>
      <path id="Trazado_102874" data-name="Trazado 102874" d="M284.923,296v12.923A12.933,12.933,0,0,1,272,296Z" transform="translate(-181.231 -216.308)" fill="#fff"/>
      <path id="Trazado_102875" data-name="Trazado 102875" d="M97.641,83.267c0-1.928-1.032-3-3.093-3.407v-.09a3.175,3.175,0,0,0,2.421-3.138C96.969,73.762,94.5,73,91.455,73H86.208V87.569H91.9C95.041,87.571,97.641,86.272,97.641,83.267Zm-7.575-7.306h1.3c1.256,0,1.839.36,1.839,1.256s-.584,1.525-1.839,1.525h-1.3Zm0,8.652V81.43h1.57c1.525,0,2.242.448,2.242,1.525s-.717,1.658-2.242,1.658Z" transform="translate(-45.46 -53.346)"/>
      <path id="Trazado_102876" data-name="Trazado 102876" d="M140.671,83.273a50.488,50.488,0,0,0-.493-5.2h.09l1.167,3.407,2.018,4.909h1.434l2.018-4.909,1.21-3.407h.09a50.492,50.492,0,0,0-.493,5.2v4.3H151.3V73.008h-3.991l-2.2,6.052-.808,2.376h-.093L143.4,79.06l-2.287-6.052h-3.989V87.577h3.541v-4.3h0Z" transform="translate(-82.67 -53.352)"/>
      <path id="Trazado_102877" data-name="Trazado 102877" d="M205.557,82.961h1.794c3.05,0,5.828-1.546,5.828-5.111,0-3.677-2.69-4.842-5.828-4.842H201.7V87.577h3.855V82.961Zm0-6.905h1.615c1.434,0,2.242.493,2.242,1.794s-.717,2.063-2.242,2.063h-1.615Z" transform="translate(-129.861 -53.352)"/>
      <path id="Trazado_102878" data-name="Trazado 102878" d="M101.538,40H24V72.308h77.538ZM97.231,68H28.308V44.308H97.231Z" transform="translate(0 -29.231)"/>
      <rect id="Rectángulo_6567" data-name="Rectángulo 6567" width="4.004" height="4.004" transform="translate(32.809 30.43)"/>
      <path id="Trazado_102879" data-name="Trazado 102879" d="M166.462,0H104V4.308h62.462V28h23.692v92.615H164.308V77.538H134.154v43.077H108.308V49.538H104v75.385h90.462V22.8L171.661,0Zm-28,120.615v-5.57l6.462-6.462,12.031,12.031ZM160,117.57,154.43,112l5.57-5.57Zm0-17.231-8.615,8.615-6.462-6.462-6.462,6.462V81.846h8.788A15.087,15.087,0,0,0,160,94.6Zm0-10.1a10.8,10.8,0,0,1-8.4-8.4H160Zm10.769-66.552V5.2l18.493,18.493Z" transform="translate(-58.462)"/>
      <rect id="Rectángulo_6568" data-name="Rectángulo 6568" width="10.41" height="4.004" transform="translate(110.485 90.489)"/>
      <rect id="Rectángulo_6569" data-name="Rectángulo 6569" width="4.004" height="4.004" transform="translate(114.489 99.298)"/>
      <rect id="Rectángulo_6570" data-name="Rectángulo 6570" width="4.004" height="4.004" transform="translate(123.298 99.298)"/>
      <rect id="Rectángulo_6571" data-name="Rectángulo 6571" width="14.414" height="4.805" transform="translate(110.485 107.306)"/>
      <rect id="Rectángulo_6572" data-name="Rectángulo 6572" width="10.41" height="4.004" transform="translate(60.836 99.298)"/>
      <rect id="Rectángulo_6573" data-name="Rectángulo 6573" width="4.805" height="4.004" transform="translate(62.438 90.489)"/>
      <rect id="Rectángulo_6574" data-name="Rectángulo 6574" width="4.004" height="4.004" transform="translate(54.43 90.489)"/>
      <rect id="Rectángulo_6575" data-name="Rectángulo 6575" width="15.215" height="4.805" transform="translate(56.032 81.68)"/>
      <rect id="Rectángulo_6576" data-name="Rectángulo 6576" width="15.215" height="4.805" transform="translate(105.68 60.059)"/>
      <rect id="Rectángulo_6577" data-name="Rectángulo 6577" width="15.215" height="4.805" transform="translate(60.836 60.059)"/>
      <rect id="Rectángulo_6578" data-name="Rectángulo 6578" width="4.805" height="4.004" transform="translate(112.087 68.868)"/>
      <rect id="Rectángulo_6579" data-name="Rectángulo 6579" width="6.406" height="4.004" transform="translate(120.895 68.868)"/>
      <rect id="Rectángulo_6580" data-name="Rectángulo 6580" width="4.004" height="4.004" transform="translate(54.43 68.868)"/>
      <rect id="Rectángulo_6581" data-name="Rectángulo 6581" width="6.406" height="4.004" transform="translate(62.438 68.868)"/>
      <path id="Trazado_102880" data-name="Trazado 102880" d="M240.615,192H232v8.615h4.308v-4.308h4.308Z" transform="translate(-152 -140.308)"/>
      <path id="Trazado_102881" data-name="Trazado 102881" d="M232,240v8.615h8.615v-4.308h-4.308V240Z" transform="translate(-152 -175.385)"/>
      <path id="Trazado_102882" data-name="Trazado 102882" d="M288.615,192H280v4.308h4.308v4.308h4.308Z" transform="translate(-187.077 -140.308)"/>
      <path id="Trazado_102883" data-name="Trazado 102883" d="M284.308,244.308H280v4.308h8.615V240h-4.308Z" transform="translate(-187.077 -175.385)"/>
    </g>
  </g>
</svg>
