<svg xmlns="http://www.w3.org/2000/svg" width="103.048" height="112" viewBox="0 0 103.048 112">
  <g id="bell" transform="translate(0 0)">
    <path id="Trazado_103077" data-name="Trazado 103077" d="M128.125,113.371H44.582c3.828,0,5.993-2,7.221-5.323C57.746,92.018,41.916,45.3,86.355,45.3S114.96,92.018,120.9,108.049c1.23,3.32,3.4,5.323,7.221,5.323Zm0,0" transform="translate(-34.83 -35.391)" fill="#f7d360"/>
    <path id="Trazado_103078" data-name="Trazado 103078" d="M107.326,364.572a8.089,8.089,0,0,1-8.089,8.089H15.695a8.088,8.088,0,1,1,0-16.176H99.237a8.087,8.087,0,0,1,8.089,8.088Zm0,0" transform="translate(-5.942 -278.503)" fill="#e58e13"/>
    <path id="Trazado_103079" data-name="Trazado 103079" d="M120.906,108.055H77.484A8.288,8.288,0,0,1,69.2,99.5c.612-19.8-2.546-53.818,16.827-54.193-53.177.275-19.184,68.07-41.446,68.07h83.542c-3.826,0-5.991-2-7.221-5.323Zm0,0" transform="translate(-34.832 -35.397)" fill="#e58e13"/>
    <path id="Trazado_103080" data-name="Trazado 103080" d="M190.8,364.572a8.089,8.089,0,0,1-8.089,8.089h-60.17a8.088,8.088,0,0,1,0-16.176h60.17a8.087,8.087,0,0,1,8.089,8.088Zm0,0" transform="translate(-89.42 -278.503)" fill="#f7d360"/>
    <path id="Trazado_103081" data-name="Trazado 103081" d="M193.937,430.434a16.178,16.178,0,1,1-32.355,0Zm0,0" transform="translate(-126.236 -336.277)" fill="#e58e13"/>
    <path id="Trazado_103082" data-name="Trazado 103082" d="M234.383,453.246a16.215,16.215,0,0,1-11.069,10.6,16.193,16.193,0,0,1-8.252-5.413,3.2,3.2,0,0,1,2.512-5.19Zm0,0" transform="translate(-167.465 -354.098)" fill="#f7d360"/>
    <path id="Trazado_103083" data-name="Trazado 103083" d="M214.315,16.47c.018-.2.025-.41.025-.619a8.246,8.246,0,1,0-16.492,0c0,.208.006.414.024.619" transform="translate(-154.569 -5.942)" fill="#e58e13"/>
    <path id="Trazado_103084" data-name="Trazado 103084" d="M93.295,76.316h-.007c-3.221,0-5.039-1.673-6.08-5.585-1.064-4-1.1-9.8-1.137-15.946-.045-7.443-.1-15.878-1.947-23.422a1.664,1.664,0,0,0-3.232.792c1.758,7.164,1.807,15.392,1.852,22.651.039,6.361.075,12.369,1.248,16.78a13.364,13.364,0,0,0,2.187,4.73H16.868a13.365,13.365,0,0,0,2.187-4.73c1.173-4.411,1.21-10.419,1.248-16.78.059-9.711.126-20.718,4.1-29.142,4.472-9.482,13.344-14.092,27.121-14.092,7.567,0,13.758,1.422,18.4,4.227a22.326,22.326,0,0,1,9.039,10.567,1.664,1.664,0,0,0,3.046-1.338A25.892,25.892,0,0,0,71.646,12.952,31.568,31.568,0,0,0,61.4,9.145a9.906,9.906,0,0,0-19.754,0,31.868,31.868,0,0,0-9.837,3.562A25.651,25.651,0,0,0,21.393,24.245c-4.286,9.088-4.356,20.485-4.417,30.54-.038,6.143-.073,11.945-1.137,15.946-1.041,3.912-2.859,5.583-6.08,5.585H9.752a9.753,9.753,0,0,0,0,19.505H20.28a1.663,1.663,0,1,0,0-3.327H9.752a6.426,6.426,0,0,1,0-12.852H93.3a6.426,6.426,0,0,1,0,12.852H26.934a1.663,1.663,0,0,0,0,3.327h6.828a17.838,17.838,0,0,0,35.522,0H93.3a9.753,9.753,0,0,0,0-19.505ZM51.524,3.327a6.594,6.594,0,0,1,6.454,5.286,57.056,57.056,0,0,0-12.907,0,6.593,6.593,0,0,1,6.453-5.285Zm0,105.347A14.534,14.534,0,0,1,37.107,95.822H65.94a14.534,14.534,0,0,1-14.416,12.852Zm0,0"/>
    <path id="Trazado_103085" data-name="Trazado 103085" d="M354.594,36.592a21.576,21.576,0,0,1,5.905,5.633c3.9,5.259,5.881,11.828,5.881,19.526a1.664,1.664,0,1,0,3.327,0c0-10.6-3.619-17.632-6.655-21.666a24.312,24.312,0,0,0-6.845-6.4,1.664,1.664,0,0,0-1.614,2.91Zm0,0" transform="translate(-276.362 -26.153)"/>
    <path id="Trazado_103086" data-name="Trazado 103086" d="M412.3,39.578c.267.175,6.556,4.4,6.556,15.013a1.663,1.663,0,0,0,3.327,0c0-12.523-7.758-17.605-8.089-17.815a1.663,1.663,0,0,0-1.794,2.8Zm0,0" transform="translate(-321.515 -28.529)"/>
    <path id="Trazado_103087" data-name="Trazado 103087" d="M46.01,63.414a1.664,1.664,0,0,0,1.664-1.664c0-7.7,1.979-14.267,5.881-19.526a21.648,21.648,0,0,1,5.9-5.633,1.663,1.663,0,0,0-1.613-2.91A24.313,24.313,0,0,0,51,40.084c-3.035,4.034-6.654,11.068-6.654,21.666a1.663,1.663,0,0,0,1.663,1.664Zm0,0" transform="translate(-34.647 -26.152)"/>
    <path id="Trazado_103088" data-name="Trazado 103088" d="M12.554,56.255a1.663,1.663,0,0,0,1.663-1.663c0-10.609,6.279-14.832,6.556-15.013a1.663,1.663,0,0,0-1.794-2.8c-.33.21-8.089,5.291-8.089,17.814a1.663,1.663,0,0,0,1.664,1.663Zm0,0" transform="translate(-8.508 -28.529)"/>
  </g>
</svg>
