<svg xmlns="http://www.w3.org/2000/svg" width="393.978" height="254.443" viewBox="0 0 393.978 254.443">
  <g id="Grupo_57482" data-name="Grupo 57482" transform="translate(-180 -2367.557)">
    <g id="Image_Place_Holder" data-name="Image Place Holder" transform="translate(180 2390.803)">
      <rect id="Image_Place_Holder-2" data-name="Image Place Holder" width="393.978" height="231.197" rx="10" fill="#f6f6f6"/>
    </g>
    <g id="ink" transform="translate(290.269 2367.557)">
      <g id="g7508" transform="translate(27.395 170.721)">
        <path id="path7108" d="M198.813,762.965q-.967,0-.967-1.36a4.939,4.939,0,0,1,1.412-3.032,9.417,9.417,0,0,1,6.536-3.268l1.438-.078a7.335,7.335,0,0,1,6.9,3.791,10.93,10.93,0,0,1,1.281,5.36,17.7,17.7,0,0,1-.209,2.64,15.438,15.438,0,0,1-3.608,7.9,9.478,9.478,0,0,1-7.32,3.582q-4.157,0-5.281-2.327a3.621,3.621,0,0,1-.34-1.543,4.009,4.009,0,0,1,.444-1.751,2.616,2.616,0,0,1,2.353-1.673q.131,0,.157.157a.341.341,0,0,1-.026.288q-.052.157-.183.157a1.85,1.85,0,0,0-1.542,1.15,3.289,3.289,0,0,0-.418,1.49,3,3,0,0,0,.261,1.255q.837,1.777,4,1.778,3.582,0,6.484-3.66a16.751,16.751,0,0,0,3.373-7.739,15.23,15.23,0,0,0,.261-2.719,8.609,8.609,0,0,0-1.281-4.81,5.884,5.884,0,0,0-5.333-2.64q-4.549,0-6.823,3.059a5.056,5.056,0,0,0-1.15,2.928q0,.549.235.549a.642.642,0,0,1-.654.523Zm3.765,9.908a41.487,41.487,0,0,1,.706-7.712,25.33,25.33,0,0,1,1.725-5.935q1.046-2.2,2.013-2.2a.37.37,0,0,1,.418.418,29.981,29.981,0,0,0-2.065,6.484,56.177,56.177,0,0,0-1.647,10.693q0,.34-.366.34Q202.578,774.965,202.578,772.873Z" transform="translate(-197.846 -753.658)"/>
        <path id="path7110" d="M263.9,780.876q-.993,0-.993-2.17a5.661,5.661,0,0,1,.471-2.3,20.379,20.379,0,0,0-3.974,5.752q-2.2,4.183-2.2,5.464,0,.314-.418.314-.758,0-.758-2.065a29.361,29.361,0,0,1,.784-7.059q.784-3.164,1.908-3.163.5,0,.5.575a45.664,45.664,0,0,0-1.725,7.817h.183a26.712,26.712,0,0,1,4.68-7.634,3.978,3.978,0,0,1,2.667-1.569.565.565,0,0,1,.418.157.5.5,0,0,1,.183.392,4.515,4.515,0,0,0-.444.549,7.851,7.851,0,0,0-.706,1.752,9.543,9.543,0,0,0-.444,2.98q0,.209-.131.209Z" transform="translate(-236.171 -766.575)"/>
        <path id="path7112" d="M286.384,789.59q-2.144,0-2.144-3.373a11.671,11.671,0,0,1,.993-4.418,8.744,8.744,0,0,1,3.634-4.6,3.827,3.827,0,0,1,1.8-.523,2.08,2.08,0,0,1,1.307.366,1.681,1.681,0,0,1,.627.732l.157.34q-.078.444-.444.445-.418,0-.5-.183a1.257,1.257,0,0,0-.131-.34,1.41,1.41,0,0,0-.366-.392.946.946,0,0,0-.654-.261q-1.7,0-3.085,3.059a16.4,16.4,0,0,0-1.569,6.641q0,1.568.628,1.569.5,0,1.386-1.1a23.35,23.35,0,0,0,1.909-2.8q1.725-2.876,2.8-4.994.889-1.882,1.83-1.882.5,0,.5.6-.235.5-.6,1.412a28.173,28.173,0,0,0-.967,3.634,25,25,0,0,0-.6,5.412q0,2.693.811,2.693a.768.768,0,0,0,.575-.287,2.308,2.308,0,0,0,.471-.81.349.349,0,0,1,.366-.288.176.176,0,0,1,.157.078.329.329,0,0,1,0,.262,4.872,4.872,0,0,1-.183.5,3.663,3.663,0,0,1-.575.889,1.153,1.153,0,0,1-.889.549q-1.1,0-1.7-1.438a9.129,9.129,0,0,1-.575-3.4,23.889,23.889,0,0,1,.288-3.765h-.261Q288.058,789.59,286.384,789.59Z" transform="translate(-254.755 -767.786)"/>
        <path id="path7114" d="M334.964,774.265a2.418,2.418,0,0,0,1.438.575,1.96,1.96,0,0,0,.994-.183.926.926,0,0,1-.314.654,1.172,1.172,0,0,1-.863.288,3.265,3.265,0,0,1-1.2-.261,19.388,19.388,0,0,1-.81,5.046,15.214,15.214,0,0,1-1.961,4.314q-1.2,1.725-2.379,1.726a2.055,2.055,0,0,1-1.8-.915,5.383,5.383,0,0,1-.654-2.9,21.865,21.865,0,0,1,.131-2.3q-3.242,5.8-4.993,5.8-1.725,0-1.725-2.928a16.406,16.406,0,0,1,1.49-6.484q1.255-2.745,2.3-2.876.5,0,.5.549-.314.758-.784,1.961-.47,1.176-1.255,3.791a15.606,15.606,0,0,0-.758,3.869q0,1.229.549,1.229.68,0,2.118-2.2a40.861,40.861,0,0,0,2.562-4.392l1.124-2.17Q329.4,775,329.97,775t.575.549a32.8,32.8,0,0,0-1.595,8.549q0,1.438.837,1.438.941,0,1.961-1.542a13.954,13.954,0,0,0,1.725-4.052A18.2,18.2,0,0,0,334.18,775v-.157a4.609,4.609,0,0,1-1.229-1.307,2.537,2.537,0,0,1-.471-1.124.942.942,0,0,1,.34-.706,1.062,1.062,0,0,1,.732-.314q.5,0,.889.889A6.632,6.632,0,0,1,334.964,774.265Z" transform="translate(-278.851 -764.305)"/>
        <path id="path7116" d="M393.88,759.048q0,1.934,1.1,2.065-.078.366-.6.366-1.072,0-1.516-1.307a4.487,4.487,0,0,1-.209-1.464,4.555,4.555,0,0,1,.68-2.117q1.543-2.85,5.595-3.66a15.924,15.924,0,0,1,2.954-.261,10.226,10.226,0,0,0,2.719-.314,3.866,3.866,0,0,0,1.542-.706q1.1-1.02,1.621-1.02t.523.314v.157q-.183.732-1.569,1.386a9.185,9.185,0,0,1-1.882.575,3.159,3.159,0,0,0-1.438,2.013,37.063,37.063,0,0,0-1.2,4.706q1.36-.131,2.248-.131.235,0,.209.288a.541.541,0,0,1-.549.34,17.782,17.782,0,0,0-2.065.261,67.293,67.293,0,0,1-2.144,8.575q-2.3,6.353-6.562,6.353a3.547,3.547,0,0,1-3.817-2.8,6.759,6.759,0,0,1-.288-1.935,7.771,7.771,0,0,1,.967-3.66q1.464-2.8,3.843-2.8a.893.893,0,0,1,.549.157.762.762,0,0,1,.314.47,4.3,4.3,0,0,0-3.712,2.327,6.861,6.861,0,0,0-1.15,3.738q0,2.824,1.987,3.451a4.722,4.722,0,0,0,1.229.131,3.405,3.405,0,0,0,1.595-.444,3.811,3.811,0,0,0,1.543-1.568q.706-1.124,1.15-1.883a14.339,14.339,0,0,0,1.02-2.771q.68-2.432,1.15-4.5.471-2.091.575-2.51a15.232,15.232,0,0,1-2.222.235.737.737,0,0,1-.837-.653q-.026-.523.287-.6.131.157.811.157.706,0,2.2-.131a40.589,40.589,0,0,1,1.255-4.157,7.022,7.022,0,0,1,1.412-2.458q-.418.026-1.307.026-5.02,0-7.033,2.954A4.85,4.85,0,0,0,393.88,759.048Zm11.5,5.359c0,.087-.078.131-.235.131a1.147,1.147,0,0,1-.471-.1.319.319,0,0,1-.209-.288,12.6,12.6,0,0,1,.6-4.288q.6-1.647,1.595-1.647a.6.6,0,0,1,.444.183.671.671,0,0,1,.183.5,7.026,7.026,0,0,0-1.7,3.5A9.5,9.5,0,0,0,405.383,764.407Z" transform="translate(-323.912 -750.63)"/>
        <path id="path7118" d="M450.73,780.876q-.993,0-.994-2.17a5.661,5.661,0,0,1,.471-2.3,20.38,20.38,0,0,0-3.974,5.752q-2.2,4.183-2.2,5.464,0,.314-.418.314-.758,0-.758-2.065a29.368,29.368,0,0,1,.784-7.059q.784-3.164,1.909-3.163.5,0,.5.575a45.652,45.652,0,0,0-1.725,7.817h.183a26.715,26.715,0,0,1,4.68-7.634,3.979,3.979,0,0,1,2.667-1.569.565.565,0,0,1,.418.157.5.5,0,0,1,.183.392,4.5,4.5,0,0,0-.444.549,7.847,7.847,0,0,0-.706,1.752,9.543,9.543,0,0,0-.445,2.98Q450.861,780.876,450.73,780.876Z" transform="translate(-359.242 -766.575)"/>
        <path id="path7120" d="M477.771,777.364q1.987,0,1.987,2.327a5.411,5.411,0,0,1-.889,2.8,4.58,4.58,0,0,1-4.026,2.431,1.455,1.455,0,0,1-.654-.131.854.854,0,0,1-.392-.392,4.281,4.281,0,0,0,3.4-2.144,5.534,5.534,0,0,0,1.255-3.163q0-1.072-.863-1.072-1.725,0-3.216,2.693a12.426,12.426,0,0,0-1.595,6.013q0,2.614,1.49,3.137a2.177,2.177,0,0,0,.732.1,2.435,2.435,0,0,0,.941-.209,3.324,3.324,0,0,0,.837-.549,6.035,6.035,0,0,0,1.124-1.386.4.4,0,0,1,.392-.209q.471,0,.445.157a3.591,3.591,0,0,1-.6.967,8,8,0,0,1-.941,1.1,4.02,4.02,0,0,1-1.124.706,3.068,3.068,0,0,1-1.386.34,3.336,3.336,0,0,1-3.529-2.615,7.121,7.121,0,0,1-.235-1.83,10.515,10.515,0,0,1,.81-3.817,9.134,9.134,0,0,1,3.529-4.523,4.85,4.85,0,0,1,2.51-.732Z" transform="translate(-377.726 -768.24)"/>
        <path id="path7122" d="M507.507,777.364q1.987,0,1.987,2.327a5.411,5.411,0,0,1-.889,2.8,4.58,4.58,0,0,1-4.026,2.431,1.455,1.455,0,0,1-.654-.131.855.855,0,0,1-.392-.392,4.281,4.281,0,0,0,3.4-2.144,5.534,5.534,0,0,0,1.255-3.163q0-1.072-.863-1.072-1.725,0-3.216,2.693a12.426,12.426,0,0,0-1.595,6.013q0,2.614,1.49,3.137a2.176,2.176,0,0,0,.732.1,2.435,2.435,0,0,0,.941-.209,3.322,3.322,0,0,0,.837-.549,6.029,6.029,0,0,0,1.124-1.386.4.4,0,0,1,.392-.209q.471,0,.444.157a3.589,3.589,0,0,1-.6.967,8,8,0,0,1-.941,1.1,4.018,4.018,0,0,1-1.124.706,3.068,3.068,0,0,1-1.386.34,3.336,3.336,0,0,1-3.529-2.615,7.118,7.118,0,0,1-.235-1.83,10.511,10.511,0,0,1,.811-3.817A9.133,9.133,0,0,1,505,778.1,4.849,4.849,0,0,1,507.507,777.364Z" transform="translate(-397.313 -768.24)"/>
        <path id="path7124" d="M535.953,779.279a2.381,2.381,0,0,1-2.249-1.595A12.393,12.393,0,0,1,533,772.9a36.6,36.6,0,0,1,.941-7.556,38.866,38.866,0,0,1,2.2-7.242q1.281-2.876,2.222-2.876.444,0,.444.523-.549,1.255-1.386,3.791-.837,2.51-1.412,4.654-.549,2.144-1.019,5.02a33.03,33.03,0,0,0-.445,4.941,9.753,9.753,0,0,0,.392,3.137q.418,1.124,1.124,1.124a1.6,1.6,0,0,0,1.15-.575,3.582,3.582,0,0,0,.784-1.1q.131-.287.471-.157.13.052.052.209a1.959,1.959,0,0,1-.209.444,8.7,8.7,0,0,1-.5.81A2.224,2.224,0,0,1,535.953,779.279Z" transform="translate(-418.617 -753.657)"/>
        <path id="path7126" d="M547.188,798.227A4.113,4.113,0,0,0,550.874,796a16.481,16.481,0,0,0,1.778-4.889,8.684,8.684,0,0,0-7.268,3.608q-.157.235-.5.078-.183-.1-.1-.261a9.539,9.539,0,0,1,3.137-2.9,10.3,10.3,0,0,1,4.889-1.281q.287-1.308.549-3.059t.6-3.4h-.235q-3.4,6.039-5.177,6.039-1.987,0-1.987-3.059a15.648,15.648,0,0,1,1.307-6.144q1.307-3.111,2.379-3.346l.157-.026q.444,0,.444.575-.287.706-.732,1.856-.444,1.124-1.176,3.739a15.989,15.989,0,0,0-.732,4.052q0,1.438.628,1.438.732,0,2.353-2.536a61.557,61.557,0,0,0,4.131-7.529q.758-1.6,1.621-1.6.549,0,.549.6a19.016,19.016,0,0,0-1.2,3.425,50.686,50.686,0,0,0-1.15,5.072q-.445,2.536-.758,3.974,1.987.34,2.3,1.726a3,3,0,0,1,.052.627.921.921,0,0,1-.314.706.861.861,0,0,1-.549.314,2.281,2.281,0,0,0,.026-.654,1.946,1.946,0,0,0-.183-.758,1.864,1.864,0,0,0-.523-.653,2.429,2.429,0,0,0-1.02-.5q-2.013,7.582-6.98,7.582a2.823,2.823,0,0,1-2.85-1.516.432.432,0,0,1-.026-.131q0-.157.288-.209a.382.382,0,0,1,.392.183q.471,1.072,2.2,1.072Z" transform="translate(-426.069 -768.24)"/>
        <path id="path7128" d="M591.042,809.15q-.549,0-.549-1.02a3.083,3.083,0,0,1,.34-1.333,1.057,1.057,0,0,1,.967-.706q.523,0,.523.6a4.545,4.545,0,0,1-.967,2.013Z" transform="translate(-456.489 -787.163)"/>
      </g>
      <g id="g7498" transform="translate(0 129.044)">
        <path id="path7131" d="M124.908,651.835c-.083-3.388-.124-5.289-.124-8.719s0-5.454.124-8.925c.083-3.43.661-3.554,3.554-3.76a.7.7,0,0,0,0-.95c-1.529.083-4.091.207-5.33.207s-4.049-.124-5.372-.207a.7.7,0,0,0,0,.95c2.892.248,3.553.33,3.636,3.76s.124,5.454.124,8.884-.041,5.33-.124,8.76-.744,3.636-3.636,3.76a.7.7,0,0,0,0,.95c1.611-.083,4.132-.207,5.372-.207s3.636.083,5.33.207a.7.7,0,0,0,0-.95c-2.892-.124-3.471-.33-3.554-3.76Z" transform="translate(-117.573 -629.15)"/>
        <path id="path7133" d="M179.356,634.645l.041,14.338c0,.785-.207,1.24-.5,1.24-.331,0-.785-.744-1.983-2.273l-14.173-18.264-5.33-.083a.7.7,0,0,0,0,.95,3.75,3.75,0,0,1,3.471,3.058l-.041,17.768c0,3.677-.7,3.925-3.595,4.215a.7.7,0,0,0,0,.95c2.025-.041,2.727-.207,4.463-.207s2.355.165,4.421.207a.7.7,0,0,0,0-.95c-2.892-.289-3.595-.455-3.595-4.215L162.5,638.2c0-1.4.207-2.025.537-2.025.248,0,.7.455,1.4,1.364l14.421,18.222a2.056,2.056,0,0,0,1.653.992c.578,0,.5-.5.5-1.281l.041-20.825c0-3.677.7-3.925,3.595-4.215a.7.7,0,0,0,0-.95c-2.025.041-2.727.207-4.463.207s-2.355-.165-4.421-.207a.7.7,0,0,0,0,.95C178.654,630.719,179.356,630.884,179.356,634.645Z" transform="translate(-143.586 -629.149)"/>
        <path id="path7135" d="M251.737,651.834c-.083-3.306-.124-5.206-.124-8.471a5.1,5.1,0,0,1,3.76,1.777l6.487,8.181a7.576,7.576,0,0,1,1.487,2.975c0,.124.041.248.207.248a15.435,15.435,0,0,1,1.983-.207c1.611,0,2.645.165,4.587.207a.7.7,0,0,0,0-.95,6.544,6.544,0,0,1-4.049-2.273l-9.049-10.743a1.677,1.677,0,0,1-.537-1.033c0-.289.041-.579,1.446-2.025l6.074-6.239a8.926,8.926,0,0,1,5.62-2.851.7.7,0,0,0,0-.951c-1.942.041-2.686.207-4.339.207s-2.934-.165-4.876-.207a.7.7,0,0,0,0,.951c1.488.124,3.264.826,1.57,2.686l-6.611,7.272a5.819,5.819,0,0,1-3.76,1.818c0-2.892.041-4.876.124-8.016.083-3.43.7-3.636,3.595-3.76a.7.7,0,0,0,0-.951c-2.025.041-3.306.207-5.413.207-2.066,0-3.223-.165-5.289-.207a.7.7,0,0,0,0,.951c2.892.124,3.471.33,3.553,3.76s.165,5.454.165,8.884-.083,5.33-.165,8.76-.661,3.636-3.553,3.76a.7.7,0,0,0,0,.95c2.025-.041,3.264-.207,5.372-.207,2.066,0,3.264.165,5.33.207a.7.7,0,0,0,0-.95C252.439,655.47,251.819,655.264,251.737,651.834Z" transform="translate(-201.145 -629.149)"/>
        <path id="path7137" d="M339.272,629.627c-2.4-.331-2.273-1.116-6.322-1.116-4.173,0-7.851,2.768-7.851,7.148,0,3.884,2.727,5.744,5.95,7.107,2.6,1.157,6.9,2.066,6.9,6.776,0,3.347-1.983,5.5-5.248,5.5a7.412,7.412,0,0,1-7.686-6.281c-.5-.165-.537-.083-.909.124a27.56,27.56,0,0,0,.826,6.281c2.6,0,3.719.95,7.4.95a9.957,9.957,0,0,0,5.124-1.322,8.115,8.115,0,0,0,3.884-6.694c0-3.925-2.686-5.785-5.7-7.066-1.984-.826-7.686-2.438-7.686-6.487,0-2.314,2.19-5.041,4.587-5.041,4.049,0,5.743,2.975,6.57,5.7.455,0,.537.042.909-.248a32.337,32.337,0,0,0-.744-5.33Z" transform="translate(-253.621 -628.511)"/>
        <path id="path7139" d="M396.938,656.114a13.8,13.8,0,0,0,10.909-5.578,1.044,1.044,0,0,0-.95-.62c-2.934,3.223-5.743,4.5-9.586,4.5-6.4,0-9.628-6.487-9.628-12.52,0-6.735,4.3-12.272,9.5-12.272,5.7,0,8.14,3.8,9.214,7.355a1.3,1.3,0,0,0,.95-.207c-.207-2.149-.5-4.132-.909-6.4-2.107-.207-3.967-1.86-9.049-1.86-8.181,0-13.429,6.4-13.429,14.173,0,7.314,4.091,13.429,12.975,13.429Z" transform="translate(-293.049 -628.511)"/>
        <path id="path7141" d="M469.331,644.213c-.909,0-1.2-.331-1.033-.744l4.339-10.7h.124l3.967,11.446Zm-4.669,8.636,2.479-6.4c.207-.537.454-.909,1.446-.909h8.636l2.6,7.6c.578,1.694-1.074,1.694-3.058,1.818a.7.7,0,0,0,0,.95c1.529-.041,3.8-.206,5.413-.206,1.694,0,3.471.165,5,.206a.7.7,0,0,0,0-.95c-1.611-.124-2.975-.289-3.719-2.4l-8.636-24.049a5.6,5.6,0,0,1-2.149.826L463.092,651.9c-1.074,2.521-2.314,2.933-4.132,3.058a.7.7,0,0,0,0,.95c1.529-.041,2.479-.207,4.091-.207,1.694,0,2.934.165,4.462.207a.7.7,0,0,0,0-.95C465.943,654.873,464,654.584,464.662,652.849Z" transform="translate(-342.328 -628.511)"/>
        <path id="path7143" d="M551.849,643.709a12.181,12.181,0,0,0,3.512.372c7.52,0,9.669-4.711,9.669-8.223,0-2.438-1.529-6.983-9.173-6.983-1.074,0-3.967.413-5.62.413-2.066,0-3.223-.165-5.289-.207a.7.7,0,0,0,0,.95c2.892.124,3.512.331,3.554,3.76s.083,5.454.083,8.884,0,5.33-.083,8.76c-.083,3.471-.661,3.636-3.554,3.76a.7.7,0,0,0,0,.95c2.025-.041,3.264-.207,5.372-.207,2.314,0,3.8.165,5.867.207a.7.7,0,0,0,0-.95c-2.851-.165-4.215-.372-4.256-2.768C551.891,649.328,551.849,646.684,551.849,643.709Zm.083-11.859c.041-1.2.7-1.983,3.678-1.983,2.851,0,5.785,1.488,5.785,6.735,0,4.462-2.273,6.487-6.281,6.487a23.174,23.174,0,0,1-3.264-.207v-.207C551.849,639.246,551.891,635.279,551.932,631.85Z" transform="translate(-398.971 -628.75)"/>
        <path id="path7145" d="M624.314,641.428l-4.834.041s-.041-5.62.082-9.008c.042-.992.537-1.818,1.529-1.818h6.446c3.1,0,3.719,2.19,4.628,5.041a1.2,1.2,0,0,0,.992-.206c-.207-1.694-.826-5.785-.909-6.115,0-.083-.041-.124-.165-.124a8.854,8.854,0,0,1-2.066.289H617.951c-1.24,0-3.306-.165-5.371-.207a.7.7,0,0,0,0,.95c2.892.124,3.429.331,3.553,3.76.083,3.388.083,5.454.083,8.884s0,5.372-.083,8.76c-.124,3.43-.661,3.636-3.553,3.76a.7.7,0,0,0,0,.95c2.025-.041,4.215-.207,5.454-.207h9.173c1.983,0,5.289.207,5.289.207a68.494,68.494,0,0,0,1.488-7.025c-.413-.248-.454-.33-.992-.206-.826,2.975-2.314,5.95-5.454,5.95h-6.446c-.909,0-1.488-.661-1.529-1.777-.124-3.471-.083-10.7-.083-10.7l4.835.042c3.512.041,3.677.909,3.8,2.768a.648.648,0,0,0,.909,0c-.041-1.446-.165-1.942-.165-3.223,0-1.364.124-2.314.165-3.554a.648.648,0,0,0-.909,0C627.992,640.932,627.826,641.428,624.314,641.428Z" transform="translate(-443.52 -628.99)"/>
      </g>
      <g id="inkscape-logo" transform="translate(36.936 0)">
        <path id="path2313" d="M61.482,18.526l-43.1,44.1c-14.562,18.033,9.91,15.935,20.4,21.129,3.763,3.847-14.424,6.686-10.661,10.536s22.756,7.411,26.526,11.258-7.7,7.928-3.94,11.774,12.467.2,14.1,9.083c1.161,6.346,15.685,2.727,22.788-2.47,3.763-3.85-7.2-3.487-3.436-7.334,9.358-9.57,18.072-3.478,21.274-13.067,1.582-4.739-13.776-7.305-10.006-11.152,10.828-6.323,48.252-10.44,30.494-28.2L81.244,18.526C75.781,13.281,66.663,13.223,61.482,18.526Zm49.506,85.012c0,2.188,16.121,3.622,16.121-.517C124.812,96.374,112.893,96.823,110.988,103.538ZM38.366,115.165c3.818,3.3,9.714-.821,11.482-5.428C46.149,104.821,32.3,109.913,38.366,115.165Zm70.6-7.132c-4.921,4.415.552,8.893,5.4,6.041C115.45,112.977,114.34,109.13,108.966,108.033Z" transform="translate(-13.874 -14.571)"/>
        <path id="path2315" d="M121.406,224.3c1.152.715,18.572,4.254,22.83,4.96,1.476.311.43,1.832-1.6,2.859C138.044,233.333,115.792,224.3,121.406,224.3Z" transform="translate(-84.113 -152.72)" fill="#fff"/>
        <path id="path2317" d="M139.827,29.72l17.052,17.318c1.617,1.652,1.594,4.854.69,5.775L149.1,46.04l-1.665,10.029-7.074-3.734-11.328,7.158L125.285,44.4,119.2,54.934h-9.3c-3.792,0-4.238-4.812-.792-8.258,6.019-6.5,12.926-13.118,16.68-16.956a10.074,10.074,0,0,1,14.046,0Z" transform="translate(-75.063 -22.671)" fill="#fff"/>
      </g>
    </g>
  </g>
</svg>
