<svg xmlns="http://www.w3.org/2000/svg" width="400" height="320.459" viewBox="0 0 400 320.459">
  <g id="Grupo_57451" data-name="Grupo 57451" transform="translate(-71.57 -135.921)">
    <g id="Grupo_57343" data-name="Grupo 57343" transform="translate(405.445 144.212)">
      <g id="Grupo_57337" data-name="Grupo 57337" transform="translate(6.953 6.656)">
        <path id="Trazado_102906" data-name="Trazado 102906" d="M384.465,172.619h0a11.746,11.746,0,0,1-11.745-11.745h0a11.745,11.745,0,0,1,11.745-11.745h0a11.745,11.745,0,0,1,11.745,11.745h0A11.746,11.746,0,0,1,384.465,172.619Z" transform="translate(-372.72 -149.128)" fill="#ff4900"/>
      </g>
      <g id="Grupo_57342" data-name="Grupo 57342">
        <g id="Grupo_57339" data-name="Grupo 57339" transform="translate(18.311)">
          <g id="Grupo_57338" data-name="Grupo 57338">
            <path id="Trazado_102907" data-name="Trazado 102907" d="M382.781,143.805v32.2c0,1.478-.057,2.967,0,4.446v.06a.578.578,0,0,0,1.154,0v-32.2c0-1.478.055-2.967,0-4.446,0-.019,0-.04,0-.06a.578.578,0,0,0-1.154,0Z" transform="translate(-382.756 -143.247)" fill="#010305"/>
          </g>
        </g>
        <g id="Grupo_57341" data-name="Grupo 57341" transform="translate(0 18.311)">
          <g id="Grupo_57340" data-name="Grupo 57340">
            <path id="Trazado_102908" data-name="Trazado 102908" d="M403.845,159.451h-32.2c-1.478,0-2.969-.057-4.445,0h-.06a.578.578,0,0,0,0,1.154h32.2c1.478,0,2.969.055,4.446,0h.061a.578.578,0,0,0,0-1.154Z" transform="translate(-366.577 -159.426)" fill="#010305"/>
          </g>
        </g>
      </g>
    </g>
    <g id="Grupo_57353" data-name="Grupo 57353" transform="translate(375.58 310.963)">
      <g id="Grupo_57345" data-name="Grupo 57345" transform="translate(0 49.321)">
        <g id="Grupo_57344" data-name="Grupo 57344">
          <path id="Trazado_102909" data-name="Trazado 102909" d="M373.064,353.86a115.543,115.543,0,0,0,19.674-19.7c.077.106.147.213.233.318.148.183.3.353.457.513-1.4,1.793-2.845,3.557-4.358,5.26a116.2,116.2,0,0,1-28.967,23.6,111.4,111.4,0,0,1-19.2,8.735c-.639.221-1.031-.757-.389-.978A112.185,112.185,0,0,0,373.064,353.86Z" transform="translate(-340.188 -334.164)" fill="#febb09"/>
        </g>
      </g>
      <g id="Grupo_57346" data-name="Grupo 57346" transform="translate(37.322 64.291)">
        <path id="Trazado_102910" data-name="Trazado 102910" d="M373.165,348.884c5.833,3.98,13.633,8.249,21.2,10.112a32.6,32.6,0,0,0,13.5.912c2.161-.389,4.406-1.218,5.513-2.715,1.644-2.222.055-4.937-2.372-6.426-2.628-1.613-6.059-2.313-9.445-2.828-9.006-1.368-19.052.17-28.4.945" transform="translate(-373.165 -347.392)" fill="#febb09"/>
      </g>
      <g id="Grupo_57347" data-name="Grupo 57347" transform="translate(49.079 42.049)">
        <path id="Trazado_102911" data-name="Trazado 102911" d="M383.554,339.98c7.793,2.183,17.829,3.954,26.731,3.2,5.039-.427,10.339-1.393,14.992-3.961,2.2-1.215,4.336-2.939,4.989-4.971.97-3.016-1.751-5.38-4.933-6.107-3.444-.787-7.427-.289-11.292.395-10.28,1.819-20.623,7.173-30.487,11.444" transform="translate(-383.554 -327.739)" fill="#febb09"/>
      </g>
      <g id="Grupo_57348" data-name="Grupo 57348" transform="translate(51.291)">
        <path id="Trazado_102912" data-name="Trazado 102912" d="M385.508,342.59c8.725-5.591,18.967-13.676,25.83-22.83,3.884-5.181,7.474-11.072,8.983-17.709.715-3.141.885-6.649-.5-9-2.058-3.5-6.635-2.909-10.041-.485-3.687,2.622-6.6,6.855-9.242,11.132-7.018,11.378-10.709,25.827-15.029,38.9" transform="translate(-385.508 -290.585)" fill="#febb09"/>
      </g>
      <g id="Grupo_57349" data-name="Grupo 57349" transform="translate(35.03 13.592)">
        <path id="Trazado_102913" data-name="Trazado 102913" d="M385.614,342.752a52.522,52.522,0,0,0,.886-21.244,37.014,37.014,0,0,0-4.877-13.183,14.51,14.51,0,0,0-5.032-5.191c-2.893-1.461-4.886.252-5.314,2.7-.464,2.655.315,6.036,1.256,9.36,2.506,8.841,8.317,18.513,13.08,27.554" transform="translate(-371.14 -302.595)" fill="#febb09"/>
      </g>
      <g id="Grupo_57350" data-name="Grupo 57350" transform="translate(22.847 25.626)">
        <path id="Trazado_102914" data-name="Trazado 102914" d="M374.85,353.385a52.525,52.525,0,0,0,.885-21.244,37.013,37.013,0,0,0-4.877-13.183,14.486,14.486,0,0,0-5.032-5.192c-2.892-1.46-4.885.254-5.314,2.706-.464,2.655.315,6.036,1.257,9.36,2.506,8.841,8.317,18.512,13.08,27.554" transform="translate(-360.375 -313.227)" fill="#febb09"/>
      </g>
      <g id="Grupo_57351" data-name="Grupo 57351" transform="translate(23.17 76.342)">
        <path id="Trazado_102915" data-name="Trazado 102915" d="M360.661,358.04a47.651,47.651,0,0,0,13.308,9.035,22.313,22.313,0,0,0,9.044,2.012,6.083,6.083,0,0,0,4.012-1.269c1.342-1.334.547-3.336-.942-4.595a17.622,17.622,0,0,0-6.1-2.889c-5.955-1.856-12.914-1.853-19.321-2.294" transform="translate(-360.661 -358.04)" fill="#febb09"/>
      </g>
      <g id="Grupo_57352" data-name="Grupo 57352" transform="translate(13.333 48.937)">
        <path id="Trazado_102916" data-name="Trazado 102916" d="M361.88,361.322a35.981,35.981,0,0,0,.607-14.546,25.344,25.344,0,0,0-3.34-9.027,9.935,9.935,0,0,0-3.445-3.555c-1.981-1-3.345.173-3.639,1.853-.317,1.819.216,4.133.861,6.409,1.715,6.054,5.7,12.676,8.956,18.866" transform="translate(-351.969 -333.826)" fill="#febb09"/>
      </g>
    </g>
    <g id="Grupo_57360" data-name="Grupo 57360" transform="translate(351.868 375.761)">
      <g id="Grupo_57355" data-name="Grupo 57355" transform="translate(0 64.565)">
        <g id="Grupo_57354" data-name="Grupo 57354">
          <path id="Trazado_102917" data-name="Trazado 102917" d="M324.514,415.444a5.277,5.277,0,1,1,5.277-5.277A5.284,5.284,0,0,1,324.514,415.444Zm0-8.97a3.693,3.693,0,1,0,3.693,3.693A3.7,3.7,0,0,0,324.514,406.473Z" transform="translate(-319.237 -404.889)" fill="#fcb610"/>
        </g>
      </g>
      <g id="Grupo_57356" data-name="Grupo 57356" transform="translate(33.648 39.069)">
        <rect id="Rectángulo_6621" data-name="Rectángulo 6621" width="9.75" height="9.75" transform="translate(6.595 0) rotate(42.563)" fill="#ff4900"/>
      </g>
      <g id="Grupo_57359" data-name="Grupo 57359" transform="translate(20.432)">
        <g id="Grupo_57357" data-name="Grupo 57357" transform="translate(4.452)">
          <path id="Trazado_102918" data-name="Trazado 102918" d="M342.513,359.324h0a1.289,1.289,0,0,1-1.289-1.289v-8.906a1.289,1.289,0,0,1,1.289-1.289h0a1.289,1.289,0,0,1,1.29,1.289v8.906A1.289,1.289,0,0,1,342.513,359.324Z" transform="translate(-341.224 -347.84)" fill="#4b0263"/>
        </g>
        <g id="Grupo_57358" data-name="Grupo 57358" transform="translate(0 4.452)">
          <path id="Trazado_102919" data-name="Trazado 102919" d="M348.774,353.064h0a1.289,1.289,0,0,1-1.289,1.289h-8.906a1.289,1.289,0,0,1-1.289-1.289h0a1.289,1.289,0,0,1,1.289-1.29h8.906A1.289,1.289,0,0,1,348.774,353.064Z" transform="translate(-337.29 -351.774)" fill="#4b0263"/>
        </g>
      </g>
    </g>
    <g id="Grupo_57369" data-name="Grupo 57369" transform="translate(387.883 238.808)">
      <g id="Grupo_57362" data-name="Grupo 57362" transform="translate(1.692 1.209)">
        <g id="Grupo_57361" data-name="Grupo 57361">
          <path id="Trazado_102920" data-name="Trazado 102920" d="M421.476,242.39c-19.574-15.658-37.056-14.844-48.274-11.4a52.79,52.79,0,0,0-19.919,11.365l-.729-.729a53.848,53.848,0,0,1,20.3-11.608c11.466-3.528,29.32-4.383,49.263,11.57Z" transform="translate(-352.554 -227.899)" fill="#00a2e8"/>
        </g>
      </g>
      <g id="Grupo_57364" data-name="Grupo 57364" transform="translate(34.804)">
        <g id="Grupo_57363" data-name="Grupo 57363">
          <rect id="Rectángulo_6622" data-name="Rectángulo 6622" width="3.385" height="3.385" fill="#00a2e8"/>
        </g>
      </g>
      <g id="Grupo_57366" data-name="Grupo 57366" transform="translate(69.566 14.008)">
        <g id="Grupo_57365" data-name="Grupo 57365">
          <rect id="Rectángulo_6623" data-name="Rectángulo 6623" width="3.385" height="3.385" fill="#00a2e8"/>
        </g>
      </g>
      <g id="Grupo_57368" data-name="Grupo 57368" transform="translate(0 14.008)">
        <g id="Grupo_57367" data-name="Grupo 57367">
          <rect id="Rectángulo_6624" data-name="Rectángulo 6624" width="3.385" height="3.385" fill="#00a2e8"/>
        </g>
      </g>
    </g>
    <g id="Grupo_57389" data-name="Grupo 57389" transform="translate(162.378 195.407)">
      <g id="Grupo_57370" data-name="Grupo 57370" transform="translate(0 4.712)" opacity="0.46">
        <circle id="Elipse_4250" data-name="Elipse 4250" cx="111.169" cy="111.169" r="111.169" fill="#febb09"/>
      </g>
      <g id="Grupo_57373" data-name="Grupo 57373" transform="translate(49.625 26.576)">
        <g id="Grupo_57371" data-name="Grupo 57371">
          <path id="Trazado_102921" data-name="Trazado 102921" d="M313.767,298.764l-52.323-85.842a1.554,1.554,0,0,0-2.881.815l.271,76.724a7.7,7.7,0,1,1-4.051-.034l-.272-76.911a1.554,1.554,0,0,0-2.863-.832L195.9,299.862a1.554,1.554,0,0,0-.127,1.433l14.562,22.686a97.03,97.03,0,0,1,14.342,38.293l2.007,13.637a1.554,1.554,0,0,0,1.442.96l54.615-.192a1.555,1.555,0,0,0,1.441-.986l1.5-15.439a81.431,81.431,0,0,1,12.9-36.708l15.307-23.4A1.549,1.549,0,0,0,313.767,298.764Z" transform="translate(-195.654 -211.964)" fill="#339ce9"/>
        </g>
        <g id="Grupo_57372" data-name="Grupo 57372" transform="translate(30.565 170.679)">
          <rect id="Rectángulo_6625" data-name="Rectángulo 6625" width="58.306" height="14.379" rx="0.295" fill="#339ce9"/>
        </g>
      </g>
      <g id="Grupo_57388" data-name="Grupo 57388" transform="translate(22.002)">
        <g id="Grupo_57375" data-name="Grupo 57375" transform="translate(6.084 4.058)">
          <g id="Grupo_57374" data-name="Grupo 57374">
            <path id="Trazado_102922" data-name="Trazado 102922" d="M340.665,226.561c-46.587-37.27-88.2-35.329-114.9-27.139-29,8.9-47.228,26.869-47.408,27.049l-1.735-1.735c.184-.184,18.774-18.536,48.323-27.628,27.291-8.4,69.785-10.436,117.254,27.538Z" transform="translate(-176.623 -192.068)" fill="#00a2e8"/>
          </g>
        </g>
        <g id="Grupo_57377" data-name="Grupo 57377" transform="translate(0 34.696)">
          <g id="Grupo_57376" data-name="Grupo 57376">
            <path id="Trazado_102923" data-name="Trazado 102923" d="M180.768,223.9a4.761,4.761,0,1,1-4.76-4.76A4.76,4.76,0,0,1,180.768,223.9Z" transform="translate(-171.247 -219.139)" fill="#00a2e8"/>
          </g>
        </g>
        <g id="Grupo_57379" data-name="Grupo 57379" transform="translate(166.132 34.696)">
          <g id="Grupo_57378" data-name="Grupo 57378">
            <path id="Trazado_102924" data-name="Trazado 102924" d="M327.56,223.9a4.761,4.761,0,1,1-4.76-4.76A4.76,4.76,0,0,1,327.56,223.9Z" transform="translate(-318.039 -219.139)" fill="#00a2e8"/>
          </g>
        </g>
        <g id="Grupo_57381" data-name="Grupo 57381" transform="translate(84.895 1.182)">
          <g id="Grupo_57380" data-name="Grupo 57380">
            <rect id="Rectángulo_6626" data-name="Rectángulo 6626" width="8.056" height="8.056" fill="#00a2e8"/>
          </g>
        </g>
        <g id="Grupo_57383" data-name="Grupo 57383" transform="translate(170.276)">
          <g id="Grupo_57382" data-name="Grupo 57382">
            <rect id="Rectángulo_6627" data-name="Rectángulo 6627" width="8.056" height="8.056" fill="#00a2e8"/>
          </g>
        </g>
        <g id="Grupo_57385" data-name="Grupo 57385" transform="translate(2.924 1.083)">
          <g id="Grupo_57384" data-name="Grupo 57384">
            <rect id="Rectángulo_6628" data-name="Rectángulo 6628" width="8.056" height="8.056" fill="#00a2e8"/>
          </g>
        </g>
        <g id="Grupo_57387" data-name="Grupo 57387" transform="translate(7.973 2.818)">
          <g id="Grupo_57386" data-name="Grupo 57386" transform="translate(0 0)">
            <rect id="Rectángulo_6629" data-name="Rectángulo 6629" width="166.096" height="2.454" transform="translate(0 1.049) rotate(-0.362)" fill="#00a2e8"/>
          </g>
        </g>
      </g>
    </g>
    <g id="Grupo_57400" data-name="Grupo 57400" transform="translate(97.021 147.855)">
      <g id="Grupo_57390" data-name="Grupo 57390">
        <path id="Trazado_102925" data-name="Trazado 102925" d="M94.058,146.466" transform="translate(-94.058 -146.466)" fill="none"/>
      </g>
      <g id="Grupo_57391" data-name="Grupo 57391" transform="translate(20.104 14.211)">
        <path id="Trazado_102926" data-name="Trazado 102926" d="M420.112,434.9H111.822V159.023h308.29Zm-307.233-1.058H419.055V160.081H112.879Z" transform="translate(-111.822 -159.023)" fill="#00a2e8"/>
      </g>
      <g id="Grupo_57392" data-name="Grupo 57392" transform="translate(171.667 12.157)">
        <path id="Trazado_102927" data-name="Trazado 102927" d="M250.906,162.374H245.74v-5.166h5.166Zm-4.108-1.058h3.05v-3.05H246.8Z" transform="translate(-245.74 -157.208)" fill="#00a2e8"/>
      </g>
      <g id="Grupo_57393" data-name="Grupo 57393" transform="translate(18.05 144.573)">
        <path id="Trazado_102928" data-name="Trazado 102928" d="M115.173,279.376h-5.166v-5.168h5.166Zm-4.108-1.058h3.05v-3.051h-3.05Z" transform="translate(-110.007 -274.208)" fill="#00a2e8"/>
      </g>
      <g id="Grupo_57394" data-name="Grupo 57394" transform="translate(18.05 12.157)">
        <path id="Trazado_102929" data-name="Trazado 102929" d="M115.173,162.374h-5.166v-5.166h5.166Zm-4.108-1.058h3.05v-3.05h-3.05Z" transform="translate(-110.007 -157.208)" fill="#00a2e8"/>
      </g>
      <g id="Grupo_57395" data-name="Grupo 57395" transform="translate(325.283 144.573)">
        <path id="Trazado_102930" data-name="Trazado 102930" d="M386.638,279.376h-5.165v-5.168h5.165Zm-4.107-1.058h3.05v-3.051h-3.05Z" transform="translate(-381.473 -274.208)" fill="#00a2e8"/>
      </g>
      <g id="Grupo_57396" data-name="Grupo 57396" transform="translate(325.283 12.157)">
        <path id="Trazado_102931" data-name="Trazado 102931" d="M386.638,162.374h-5.165v-5.166h5.165Zm-4.107-1.058h3.05v-3.05h-3.05Z" transform="translate(-381.473 -157.208)" fill="#00a2e8"/>
      </g>
      <g id="Grupo_57397" data-name="Grupo 57397" transform="translate(325.283 286.972)">
        <path id="Trazado_102932" data-name="Trazado 102932" d="M386.638,405.2h-5.165V400.03h5.165Zm-4.107-1.058h3.05v-3.051h-3.05Z" transform="translate(-381.473 -400.03)" fill="#00a2e8"/>
      </g>
      <g id="Grupo_57398" data-name="Grupo 57398" transform="translate(171.667 286.972)">
        <path id="Trazado_102933" data-name="Trazado 102933" d="M250.906,405.2H245.74V400.03h5.166Zm-4.108-1.058h3.05v-3.051H246.8Z" transform="translate(-245.74 -400.03)" fill="#00a2e8"/>
      </g>
      <g id="Grupo_57399" data-name="Grupo 57399" transform="translate(18.05 286.972)">
        <path id="Trazado_102934" data-name="Trazado 102934" d="M115.173,405.2h-5.166V400.03h5.166Zm-4.108-1.058h3.05v-3.051h-3.05Z" transform="translate(-110.007 -400.03)" fill="#00a2e8"/>
      </g>
    </g>
    <g id="Grupo_57429" data-name="Grupo 57429" transform="translate(75.89 244.247)">
      <g id="Grupo_57410" data-name="Grupo 57410" transform="translate(4.918 11.257)">
        <g id="Grupo_57402" data-name="Grupo 57402" transform="translate(31.669 57.429)">
          <g id="Grupo_57401" data-name="Grupo 57401">
            <path id="Trazado_102935" data-name="Trazado 102935" d="M108.782,320.023a115.528,115.528,0,0,1,2.946-27.683c-.131.007-.258.019-.394.019-.237,0-.464-.012-.686-.034-.512,2.219-.978,4.449-1.351,6.7a116.223,116.223,0,0,0-.139,37.364,111.523,111.523,0,0,0,5.277,20.421c.231.635,1.237.325,1-.312A112.189,112.189,0,0,1,108.782,320.023Z" transform="translate(-107.715 -292.326)" fill="#febb09"/>
          </g>
        </g>
        <g id="Grupo_57403" data-name="Grupo 57403" transform="translate(0 50.374)">
          <path id="Trazado_102936" data-name="Trazado 102936" d="M113.553,316.356l-1.528-.46c-4.891-1.47-14.173-4.753-21.374-10.222-4.457-3.385-7.429-6.6-9.353-10.1-.95-1.734-1.965-4.252-1.406-6.408a3.834,3.834,0,0,1,1.949-2.489,6.751,6.751,0,0,1,5.276-.1c3.029,1.073,5.793,3.366,8.331,5.684,5.443,4.972,9.832,11.631,14.074,18.073,1.048,1.589,2.088,3.168,3.133,4.7ZM84.411,287.221a4.364,4.364,0,0,0-2.037.453,2.7,2.7,0,0,0-1.385,1.775c-.363,1.4.1,3.383,1.3,5.578,1.845,3.364,4.718,6.46,9.045,9.747,6.368,4.836,14.429,7.938,19.483,9.563q-1.119-1.674-2.241-3.383c-4.2-6.383-8.554-12.983-13.893-17.86-2.449-2.236-5.106-4.445-7.945-5.45A7.021,7.021,0,0,0,84.411,287.221Z" transform="translate(-79.733 -286.093)" fill="#febb09"/>
        </g>
        <g id="Grupo_57404" data-name="Grupo 57404" transform="translate(7.52 21.013)">
          <path id="Trazado_102937" data-name="Trazado 102937" d="M113.83,303.79l-1.3-.925c-4.768-3.389-13.632-10.352-19.436-18.92-3.59-5.3-5.635-9.863-6.434-14.368-.394-2.216-.572-5.3.811-7.413a4.313,4.313,0,0,1,2.973-1.95,7.64,7.64,0,0,1,5.7,1.811c2.883,2.266,5.039,5.762,6.938,9.2,4.082,7.386,6.4,16.221,8.644,24.767.555,2.11,1.1,4.206,1.675,6.26Zm-22.546-42.51a4.038,4.038,0,0,0-.658.052,3.163,3.163,0,0,0-2.208,1.453c-.921,1.406-1.15,3.748-.645,6.6.772,4.341,2.759,8.768,6.257,13.93,5.213,7.7,12.967,14.095,17.855,17.692-.422-1.557-.836-3.135-1.253-4.722-2.226-8.478-4.527-17.245-8.54-24.506-1.842-3.335-3.923-6.718-6.647-8.859A7.019,7.019,0,0,0,91.284,261.281Z" transform="translate(-86.377 -260.15)" fill="#febb09"/>
        </g>
        <g id="Grupo_57405" data-name="Grupo 57405" transform="translate(33.591)">
          <path id="Trazado_102938" data-name="Trazado 102938" d="M110.359,301.687l-.175-1.586c-.822-7.432-1.715-21.818,1.527-34.641,2-7.925,4.618-13.749,8.227-18.331,1.766-2.241,4.53-5.011,7.678-5.48a5.362,5.362,0,0,1,4.275,1.148,9.636,9.636,0,0,1,3.065,6.879c.287,4.656-1.213,9.676-2.877,14.409-3.579,10.174-10.045,19.912-16.3,29.329-1.545,2.326-3.078,4.636-4.555,6.931ZM128.5,242.714a4.9,4.9,0,0,0-.719.055c-2.17.323-4.64,2.121-6.957,5.061-3.507,4.452-6.055,10.143-8.017,17.908-2.981,11.791-2.414,24.955-1.665,32.647,1.206-1.855,2.446-3.72,3.691-5.6,6.217-9.359,12.644-19.037,16.175-29.079,1.625-4.62,3.091-9.509,2.816-13.964a8.5,8.5,0,0,0-2.648-6.068A4.155,4.155,0,0,0,128.5,242.714Z" transform="translate(-109.414 -241.583)" fill="#febb09"/>
        </g>
        <g id="Grupo_57406" data-name="Grupo 57406" transform="translate(32.79 43.327)">
          <path id="Trazado_102939" data-name="Trazado 102939" d="M108.706,299.983l.914-1.192c2.689-3.5,8.361-10.007,16.142-14.2a37.192,37.192,0,0,1,13.52-4.559c2.151-.258,5.2-.343,7.5.694a4.162,4.162,0,0,1,2.621,2.879,4.465,4.465,0,0,1-1.191,3.841c-1.863,2.133-5.077,3.691-8.272,5.056-6.828,2.917-15.4,4.5-23.683,6.037-2.052.38-4.088.757-6.08,1.151ZM141.924,281a21.386,21.386,0,0,0-2.509.155,36.1,36.1,0,0,0-13.115,4.433,51.4,51.4,0,0,0-14.841,12.7c1.513-.29,3.049-.574,4.593-.859,8.226-1.523,16.732-3.1,23.444-5.967,3.072-1.312,6.151-2.8,7.865-4.759a3.361,3.361,0,0,0,.937-2.855,3.149,3.149,0,0,0-1.979-2.088A10.986,10.986,0,0,0,141.924,281Z" transform="translate(-108.706 -279.866)" fill="#febb09"/>
        </g>
        <g id="Grupo_57407" data-name="Grupo 57407" transform="translate(31.093 60.367)">
          <path id="Trazado_102940" data-name="Trazado 102940" d="M107.206,315.038l.913-1.192c2.69-3.5,8.364-10.007,16.143-14.2a37.174,37.174,0,0,1,13.52-4.56c2.153-.257,5.2-.342,7.5.695a4.162,4.162,0,0,1,2.621,2.879,4.463,4.463,0,0,1-1.191,3.841c-1.863,2.133-5.077,3.691-8.272,5.056-6.831,2.919-15.405,4.506-23.7,6.04-2.047.379-4.079.755-6.066,1.146Zm33.218-18.981a21.643,21.643,0,0,0-2.509.154,36.141,36.141,0,0,0-13.115,4.433,51.437,51.437,0,0,0-14.842,12.7c1.51-.291,3.04-.574,4.579-.859,8.231-1.522,16.743-3.1,23.459-5.968,3.072-1.312,6.151-2.8,7.865-4.759a3.36,3.36,0,0,0,.937-2.855,3.151,3.151,0,0,0-1.981-2.088A10.937,10.937,0,0,0,140.424,296.057Z" transform="translate(-107.206 -294.922)" fill="#febb09"/>
        </g>
        <g id="Grupo_57408" data-name="Grupo 57408" transform="translate(8.38 80.106)">
          <path id="Trazado_102941" data-name="Trazado 102941" d="M113.4,330.32l-1.58-.223c-3.476-.491-10.121-1.761-15.584-4.732a22.5,22.5,0,0,1-7.43-5.921,6.635,6.635,0,0,1-1.65-4.318,2.8,2.8,0,0,1,1.134-2.011,4.81,4.81,0,0,1,3.7-.644,18.106,18.106,0,0,1,6.291,3.013c4.217,2.816,7.883,6.88,11.43,10.812.871.965,1.736,1.925,2.6,2.857ZM90.864,313.495a3.228,3.228,0,0,0-1.9.529,1.668,1.668,0,0,0-.682,1.218,5.452,5.452,0,0,0,1.421,3.516,21.46,21.46,0,0,0,7.072,5.615,45.72,45.72,0,0,0,13.612,4.357c-.5-.553-1.01-1.114-1.517-1.675-3.5-3.88-7.119-7.891-11.218-10.628a17.162,17.162,0,0,0-5.875-2.843A4.914,4.914,0,0,0,90.864,313.495Z" transform="translate(-87.137 -312.363)" fill="#febb09"/>
        </g>
        <g id="Grupo_57409" data-name="Grupo 57409" transform="translate(31.661 83.909)">
          <path id="Trazado_102942" data-name="Trazado 102942" d="M107.708,329.94l.914-1.191a36.8,36.8,0,0,1,11.11-9.77,25.65,25.65,0,0,1,9.32-3.142,10.511,10.511,0,0,1,5.23.49,3.018,3.018,0,0,1,1.9,2.1,3.23,3.23,0,0,1-.854,2.784c-1.3,1.489-3.522,2.567-5.729,3.51-4.7,2.005-10.578,3.094-16.266,4.147-1.4.259-2.79.516-4.149.784Zm23.178-13.084a14.821,14.821,0,0,0-1.7.1,24.608,24.608,0,0,0-8.916,3.015,34.733,34.733,0,0,0-9.8,8.272c.875-.166,1.761-.33,2.649-.495,5.627-1.041,11.445-2.12,16.027-4.075,2.084-.89,4.171-1.9,5.322-3.213a2.124,2.124,0,0,0,.6-1.8,1.989,1.989,0,0,0-1.254-1.306A7.315,7.315,0,0,0,130.886,316.856Z" transform="translate(-107.708 -315.723)" fill="#febb09"/>
        </g>
      </g>
      <g id="Grupo_57411" data-name="Grupo 57411" transform="translate(37.485 1.488)">
        <rect id="Rectángulo_6630" data-name="Rectángulo 6630" width="37.46" height="0.565" transform="matrix(0.688, -0.725, 0.725, 0.688, 0, 27.175)" fill="#00a2e8"/>
      </g>
      <g id="Grupo_57412" data-name="Grupo 57412" transform="translate(62.742)">
        <path id="Trazado_102943" data-name="Trazado 102943" d="M131.055,232.089a1.139,1.139,0,1,1,.222,1.6A1.14,1.14,0,0,1,131.055,232.089Z" transform="translate(-130.825 -231.637)" fill="#00a2e8"/>
      </g>
      <g id="Grupo_57413" data-name="Grupo 57413" transform="translate(36.205 27.534)">
        <path id="Trazado_102944" data-name="Trazado 102944" d="M107.608,256.418a1.139,1.139,0,1,1,.222,1.6A1.14,1.14,0,0,1,107.608,256.418Z" transform="translate(-107.378 -255.966)" fill="#00a2e8"/>
      </g>
      <g id="Grupo_57414" data-name="Grupo 57414" transform="translate(0 4.58)">
        <path id="Trazado_102945" data-name="Trazado 102945" d="M75.387,235.683" transform="translate(-75.387 -235.683)" fill="none"/>
      </g>
      <g id="Grupo_57415" data-name="Grupo 57415" transform="translate(4.661 10.814)">
        <path id="Trazado_102946" data-name="Trazado 102946" d="M153.67,363.269H79.505V241.192H153.67Zm-73.6-.566H153.1V241.758H80.071Z" transform="translate(-79.505 -241.192)" fill="#00a2e8"/>
      </g>
      <g id="Grupo_57416" data-name="Grupo 57416" transform="translate(40.685 9.623)">
        <rect id="Rectángulo_6631" data-name="Rectángulo 6631" width="2.116" height="2.949" fill="#00a2e8"/>
      </g>
      <g id="Grupo_57417" data-name="Grupo 57417" transform="translate(3.714 67.856)">
        <path id="Trazado_102947" data-name="Trazado 102947" d="M81.126,294.283H78.669v-2.69h2.457ZM79.8,293.151h.194v-.427H79.8Z" transform="translate(-78.669 -291.593)" fill="#00a2e8"/>
      </g>
      <g id="Grupo_57418" data-name="Grupo 57418" transform="translate(3.885 9.623)">
        <rect id="Rectángulo_6632" data-name="Rectángulo 6632" width="2.116" height="2.949" fill="#00a2e8"/>
      </g>
      <g id="Grupo_57419" data-name="Grupo 57419" transform="translate(77.26 67.946)">
        <path id="Trazado_102948" data-name="Trazado 102948" d="M146.218,294.238h-2.565v-2.565h2.565Zm-1.433-1.132h.3v-.3h-.3Z" transform="translate(-143.653 -291.673)" fill="#00a2e8"/>
      </g>
      <g id="Grupo_57420" data-name="Grupo 57420" transform="translate(41.026 32.119)">
        <rect id="Rectángulo_6633" data-name="Rectángulo 6633" width="1.433" height="1.433" fill="#00a2e8"/>
      </g>
      <g id="Grupo_57421" data-name="Grupo 57421" transform="translate(49.865 14.914)">
        <rect id="Rectángulo_6634" data-name="Rectángulo 6634" width="1.433" height="1.433" fill="#00a2e8"/>
      </g>
      <g id="Grupo_57422" data-name="Grupo 57422" transform="translate(62.088 14.914)">
        <rect id="Rectángulo_6635" data-name="Rectángulo 6635" width="1.433" height="1.433" fill="#00a2e8"/>
      </g>
      <g id="Grupo_57423" data-name="Grupo 57423" transform="translate(59.57 33.916)">
        <rect id="Rectángulo_6636" data-name="Rectángulo 6636" width="1.433" height="1.433" fill="#00a2e8"/>
      </g>
      <g id="Grupo_57424" data-name="Grupo 57424" transform="translate(49.149 53.72)">
        <rect id="Rectángulo_6637" data-name="Rectángulo 6637" width="1.433" height="1.433" fill="#00a2e8"/>
      </g>
      <g id="Grupo_57425" data-name="Grupo 57425" transform="translate(77.485 9.623)">
        <rect id="Rectángulo_6638" data-name="Rectángulo 6638" width="2.116" height="2.949" fill="#00a2e8"/>
      </g>
      <g id="Grupo_57426" data-name="Grupo 57426" transform="translate(77.485 131.133)">
        <rect id="Rectángulo_6639" data-name="Rectángulo 6639" width="2.116" height="2.949" fill="#00a2e8"/>
      </g>
      <g id="Grupo_57427" data-name="Grupo 57427" transform="translate(40.685 131.133)">
        <rect id="Rectángulo_6640" data-name="Rectángulo 6640" width="2.116" height="2.949" fill="#00a2e8"/>
      </g>
      <g id="Grupo_57428" data-name="Grupo 57428" transform="translate(3.885 131.133)">
        <rect id="Rectángulo_6641" data-name="Rectángulo 6641" width="2.116" height="2.949" fill="#00a2e8"/>
      </g>
    </g>
    <g id="Grupo_57436" data-name="Grupo 57436" transform="translate(129.052 176.905)">
      <g id="Grupo_57430" data-name="Grupo 57430" transform="translate(6.952 6.655)">
        <rect id="Rectángulo_6642" data-name="Rectángulo 6642" width="23.491" height="23.491" fill="#febb09"/>
      </g>
      <g id="Grupo_57435" data-name="Grupo 57435">
        <g id="Grupo_57432" data-name="Grupo 57432" transform="translate(18.311)">
          <g id="Grupo_57431" data-name="Grupo 57431">
            <path id="Trazado_102949" data-name="Trazado 102949" d="M138.564,172.692v32.2c0,1.478-.057,2.969,0,4.446v.061a.578.578,0,0,0,1.154,0V177.2c0-1.478.057-2.969,0-4.446v-.06a.578.578,0,0,0-1.154,0Z" transform="translate(-138.539 -172.134)" fill="#010305"/>
          </g>
        </g>
        <g id="Grupo_57434" data-name="Grupo 57434" transform="translate(0 18.31)">
          <g id="Grupo_57433" data-name="Grupo 57433">
            <path id="Trazado_102950" data-name="Trazado 102950" d="M159.628,188.337h-32.2c-1.478,0-2.967-.055-4.446,0-.019,0-.04,0-.06,0a.578.578,0,0,0,0,1.156h32.2c1.478,0,2.969.055,4.447,0,.019,0,.04,0,.06,0a.578.578,0,0,0,0-1.156Z" transform="translate(-122.36 -188.312)" fill="#010305"/>
          </g>
        </g>
      </g>
    </g>
    <g id="Grupo_57443" data-name="Grupo 57443" transform="translate(77.515 389.1)">
      <g id="Grupo_57438" data-name="Grupo 57438" transform="translate(39.054 56.727)">
        <g id="Grupo_57437" data-name="Grupo 57437">
          <path id="Trazado_102951" data-name="Trazado 102951" d="M116.607,420.3a5.277,5.277,0,1,1,5.277-5.276A5.282,5.282,0,0,1,116.607,420.3Zm0-8.97a3.693,3.693,0,1,0,3.694,3.694A3.7,3.7,0,0,0,116.607,411.332Z" transform="translate(-111.331 -409.749)" fill="#fcb610"/>
        </g>
      </g>
      <g id="Grupo_57439" data-name="Grupo 57439" transform="translate(0 33.897)">
        <rect id="Rectángulo_6643" data-name="Rectángulo 6643" width="10.896" height="10.896" transform="translate(7.37 0) rotate(42.563)" fill="#ff4900"/>
      </g>
      <g id="Grupo_57442" data-name="Grupo 57442" transform="translate(15.084)">
        <g id="Grupo_57440" data-name="Grupo 57440" transform="translate(4.452)">
          <path id="Trazado_102952" data-name="Trazado 102952" d="M95.375,371.11h0a1.289,1.289,0,0,1-1.29-1.289v-8.906a1.289,1.289,0,0,1,1.29-1.289h0a1.289,1.289,0,0,1,1.289,1.289v8.906A1.289,1.289,0,0,1,95.375,371.11Z" transform="translate(-94.085 -359.626)" fill="#4b0263"/>
        </g>
        <g id="Grupo_57441" data-name="Grupo 57441" transform="translate(0 4.452)">
          <path id="Trazado_102953" data-name="Trazado 102953" d="M101.635,364.85h0a1.289,1.289,0,0,1-1.289,1.289H91.44a1.289,1.289,0,0,1-1.289-1.289h0a1.289,1.289,0,0,1,1.289-1.29h8.906A1.289,1.289,0,0,1,101.635,364.85Z" transform="translate(-90.151 -363.56)" fill="#4b0263"/>
        </g>
      </g>
    </g>
    <g id="Grupo_57450" data-name="Grupo 57450" transform="translate(71.57 135.922)">
      <g id="Grupo_57445" data-name="Grupo 57445" transform="translate(9.899 58.204)">
        <g id="Grupo_57444" data-name="Grupo 57444">
          <path id="Trazado_102954" data-name="Trazado 102954" d="M85.594,197.9a5.277,5.277,0,1,1,5.277-5.276A5.283,5.283,0,0,1,85.594,197.9Zm0-8.97a3.693,3.693,0,1,0,3.693,3.694A3.7,3.7,0,0,0,85.594,188.933Z" transform="translate(-80.317 -187.35)" fill="#fcb610"/>
        </g>
      </g>
      <g id="Grupo_57446" data-name="Grupo 57446" transform="translate(49.632)">
        <rect id="Rectángulo_6644" data-name="Rectángulo 6644" width="10.896" height="10.896" transform="matrix(0.737, 0.676, -0.676, 0.737, 7.37, 0)" fill="#ff4900"/>
      </g>
      <g id="Grupo_57449" data-name="Grupo 57449" transform="translate(0 9.987)">
        <g id="Grupo_57447" data-name="Grupo 57447" transform="translate(4.452)">
          <path id="Trazado_102955" data-name="Trazado 102955" d="M76.793,156.23h0a1.289,1.289,0,0,1-1.289-1.289v-8.906a1.289,1.289,0,0,1,1.289-1.289h0a1.289,1.289,0,0,1,1.29,1.289v8.906A1.289,1.289,0,0,1,76.793,156.23Z" transform="translate(-75.504 -144.746)" fill="#4b0263"/>
        </g>
        <g id="Grupo_57448" data-name="Grupo 57448" transform="translate(0 4.452)">
          <path id="Trazado_102956" data-name="Trazado 102956" d="M83.054,149.97h0a1.289,1.289,0,0,1-1.289,1.289H72.859a1.289,1.289,0,0,1-1.289-1.289h0a1.29,1.29,0,0,1,1.289-1.29h8.906A1.29,1.29,0,0,1,83.054,149.97Z" transform="translate(-71.57 -148.68)" fill="#4b0263"/>
        </g>
      </g>
    </g>
  </g>
</svg>
