<svg xmlns="http://www.w3.org/2000/svg" width="135.001" height="130.574" viewBox="0 0 135.001 130.574">
  <g id="node" transform="translate(0)">
    <path id="Trazado_103193" data-name="Trazado 103193" d="M8.289,368.535H138.741v27.217H8.289Zm0,0" transform="translate(-6.015 -267.412)" fill="#00efd1"/>
    <path id="Trazado_103194" data-name="Trazado 103194" d="M54.3,326.3h84.437v11.59H8.289V326.3Zm0,0" transform="translate(-6.015 -236.764)" fill="#00acea"/>
    <path id="Trazado_103195" data-name="Trazado 103195" d="M425.441,21.918h13.84V35.761h-13.84Zm0,0" transform="translate(-308.704 -15.904)" fill="#fedb41"/>
    <path id="Trazado_103196" data-name="Trazado 103196" d="M385.215,176.578h9.535v17.393H377.359V176.578Zm0,0" transform="translate(-273.815 -128.127)" fill="#00acea"/>
    <path id="Trazado_103197" data-name="Trazado 103197" d="M186.871,127.043a5.307,5.307,0,1,0,5.307,5.307A5.307,5.307,0,0,0,186.871,127.043Zm0-26.2,22.36,42.245-2.971,19.617h-38.6l-3.149-19.617Zm0,0" transform="translate(-119.371 -73.176)" fill="#00efd1"/>
    <path id="Trazado_103198" data-name="Trazado 103198" d="M219.58,8.008a9.728,9.728,0,1,1-6.881,2.85,9.728,9.728,0,0,1,6.881-2.85Zm0,0" transform="translate(-152.27 -5.811)" fill="#00efd1"/>
    <path id="Trazado_103199" data-name="Trazado 103199" d="M237.274,201.623a5.307,5.307,0,1,1-5.307-5.307A5.307,5.307,0,0,1,237.274,201.623Zm0,0" transform="translate(-164.467 -142.449)" fill="#fedb41"/>
    <path id="Trazado_103200" data-name="Trazado 103200" d="M49.879,176.578H67.271v17.393H49.879Zm0,0" transform="translate(-36.193 -128.127)" fill="#00acea"/>
    <path id="Trazado_103201" data-name="Trazado 103201" d="M29.961,29.313v6.448H16.121V21.918h13.84Zm0,0" transform="translate(-11.698 -15.904)" fill="#fedb41"/>
    <g id="Grupo_57649" data-name="Grupo 57649" transform="translate(0 0)">
      <path id="Trazado_103202" data-name="Trazado 103202" d="M10.228,22.189h13.84a2.421,2.421,0,0,0,2.316-2.332V15.6H50.445a47.338,47.338,0,0,0-23.2,30.732H19.491a2.1,2.1,0,0,0-2.162,2.116V65.844a2.145,2.145,0,0,0,2.162,2.168H36.883a2.113,2.113,0,0,0,2.123-2.168V48.451a2.068,2.068,0,0,0-2.123-2.116H31.767A42.727,42.727,0,0,1,61.8,15.741a11.951,11.951,0,0,0,22.631,0,42.707,42.707,0,0,1,30.033,30.593h-5.115a2.216,2.216,0,0,0-2.294,2.116V65.844a2.258,2.258,0,0,0,2.294,2.168H126.74a2.234,2.234,0,0,0,2.267-2.168V48.451a2.191,2.191,0,0,0-2.267-2.116h-7.754A47.32,47.32,0,0,0,95.795,15.6h24.432v4.253a2.421,2.421,0,0,0,2.316,2.332h13.84a2.345,2.345,0,0,0,2.228-2.332V6.014A2.234,2.234,0,0,0,136.382,3.8h-13.84a2.312,2.312,0,0,0-2.316,2.209v5.2H85.017a11.923,11.923,0,0,0-23.8,0H26.384v-5.2A2.312,2.312,0,0,0,24.068,3.8H10.228A2.234,2.234,0,0,0,8,6.014V19.857a2.344,2.344,0,0,0,2.228,2.332ZM34.616,50.726v12.9H21.72v-12.9Zm90,0v12.9H111.446v-12.9Zm0-42.531h9.6v9.6h-9.6ZM67.786,6.6a7.54,7.54,0,1,1-2.2,5.329,7.539,7.539,0,0,1,2.2-5.329ZM12.39,8.2h9.6v9.6h-9.6Zm0,0" transform="translate(-5.805 0)" fill="#12263f"/>
      <path id="Trazado_103203" data-name="Trazado 103203" d="M132.726,154.571H89.442l2.588-17.034a2.1,2.1,0,0,0-.229-1.326L69.44,93.981a2.2,2.2,0,0,0-3.88.011L43.2,136.24a2.023,2.023,0,0,0-.227,1.316l2.742,17.016H2.274A2.367,2.367,0,0,0,0,156.885v38.807a2.3,2.3,0,0,0,2.274,2.234H132.726A2.3,2.3,0,0,0,135,195.692V156.885a2.367,2.367,0,0,0-2.274-2.313ZM67.5,123.414a3.112,3.112,0,1,1-3.112,3.112,3.112,3.112,0,0,1,3.112-3.112Zm-2.2-19.55v15.49a7.5,7.5,0,1,0,4.39,0v-15.49L87.581,137.6,85,154.571H50.161l-2.737-16.985Zm65.305,89.672h-9.329v-6.228a2.2,2.2,0,0,0-4.39,0v6.228h-7.134V182.718a2.2,2.2,0,1,0-4.39,0v10.817H98.232v-6.228a2.2,2.2,0,0,0-4.39,0v6.228h-6.86V182.718a2.2,2.2,0,1,0-4.39,0v10.817H75.458v-6.228a2.2,2.2,0,0,0-4.39,0v6.228H63.933V182.718a2.2,2.2,0,1,0-4.39,0v10.817H52.409v-6.228a2.2,2.2,0,0,0-4.39,0v6.228h-6.86V182.718a2.2,2.2,0,1,0-4.39,0v10.817H29.634v-6.228a2.2,2.2,0,0,0-4.39,0v6.228H18.11V182.718a2.2,2.2,0,1,0-4.39,0v10.817H4.39V170.76H130.61Zm0-27.165H4.39v-7.409H130.61Zm0,0" transform="translate(0 -67.351)" fill="#12263f"/>
    </g>
  </g>
</svg>
