<svg xmlns="http://www.w3.org/2000/svg" width="149" height="149" viewBox="0 0 149 149">
  <g id="Grupo_57327" data-name="Grupo 57327" transform="translate(-424 -526)">
    <rect id="Rectángulo_6582" data-name="Rectángulo 6582" width="149" height="149" transform="translate(424 526)" fill="none"/>
    <g id="vector" transform="translate(431 503.451)">
      <path id="Trazado_102866" data-name="Trazado 102866" d="M160.144,95.369l-34.349,57.695,14.4,24.24h39.889l14.4-24.24Zm0,57.67a5.961,5.961,0,1,1,5.961-5.961A5.961,5.961,0,0,1,160.144,153.039Z" transform="translate(-92.504 -41.047)" fill="#ffd039"/>
      <g id="Grupo_57324" data-name="Grupo 57324" transform="translate(1.988 41.801)">
        <circle id="Elipse_4248" data-name="Elipse 4248" cx="6.26" cy="6.26" r="6.26" transform="translate(0 0)" fill="#ff6137"/>
        <circle id="Elipse_4249" data-name="Elipse 4249" cx="6.26" cy="6.26" r="6.26" transform="translate(118.785 0)" fill="#ff6137"/>
      </g>
      <g id="Grupo_57325" data-name="Grupo 57325" transform="translate(1.987 41.535)">
        <rect id="Rectángulo_6560" data-name="Rectángulo 6560" width="12.527" height="12.527" transform="translate(0 65.952)" fill="#ffd039"/>
        <rect id="Rectángulo_6561" data-name="Rectángulo 6561" width="12.527" height="12.527" transform="translate(59.389 0)" fill="#ffd039"/>
        <rect id="Rectángulo_6562" data-name="Rectángulo 6562" width="12.527" height="12.527" transform="translate(119 65.952)" fill="#ffd039"/>
      </g>
      <path id="Trazado_102867" data-name="Trazado 102867" d="M246.383,95.369l-3.312,5.563,31.037,52.132L259.7,177.3h6.624l14.4-24.24Z" transform="translate(-178.743 -41.047)" fill="#ffae47"/>
      <rect id="Rectángulo_6563" data-name="Rectángulo 6563" width="52.034" height="15.875" transform="translate(41.624 136.252)" fill="#546f7a"/>
      <rect id="Rectángulo_6564" data-name="Rectángulo 6564" width="6.624" height="15.875" transform="translate(87.034 136.252)" fill="#475d63"/>
      <path id="Trazado_102868" data-name="Trazado 102868" d="M135.131,287.8H130.59V275.9h4.044l.041,0h23.264a1.987,1.987,0,0,0,1.987-1.987h0v0a1.987,1.987,0,0,0-1.987-1.987H135.8l-13.221-22.249,11.86-19.92a1.987,1.987,0,0,0-3.415-2.033l-12.464,20.936a1.987,1.987,0,0,0,0,2.032l12.619,21.235H128.6a1.987,1.987,0,0,0-1.987,1.987v15.875a1.987,1.987,0,0,0,1.987,1.987h6.528a1.987,1.987,0,0,0,0-3.975Z" transform="translate(-86.98 -137.663)"/>
      <path id="Trazado_102869" data-name="Trazado 102869" d="M133.512,105.5h-4.425A61.523,61.523,0,0,0,90.268,50.234h28.81a8.248,8.248,0,1,0-.092-3.975H75.89V41.536A1.987,1.987,0,0,0,73.9,39.549H61.377a1.987,1.987,0,0,0-1.987,1.987V46.26h-43.1a8.247,8.247,0,1,0-.092,3.974h28.81A61.523,61.523,0,0,0,6.192,105.5H1.987A1.987,1.987,0,0,0,0,107.488v12.526A1.987,1.987,0,0,0,1.987,122H14.513a1.987,1.987,0,0,0,1.987-1.987V107.488a1.987,1.987,0,0,0-1.987-1.987H10.169a57.506,57.506,0,0,1,49.221-55v3.564a1.987,1.987,0,0,0,1.987,1.987H64.3L48.144,83.184a1.987,1.987,0,1,0,3.415,2.033L65.653,61.544V98.335a7.948,7.948,0,1,0,3.974,0V61.544l30.049,50.473L86.455,134.266H78.908a1.989,1.989,0,0,0,0,3.977h8.677l.041,0H91.67v11.9H56.1a1.987,1.987,0,0,0,0,3.974H93.657a1.987,1.987,0,0,0,1.987-1.987V136.253a1.987,1.987,0,0,0-1.987-1.987H91.079L103.7,113.031a1.987,1.987,0,0,0,0-2.032L70.981,56.05H73.9a1.987,1.987,0,0,0,1.987-1.987V50.5a57.506,57.506,0,0,1,49.221,55h-4.125A1.987,1.987,0,0,0,119,107.488v12.526A1.987,1.987,0,0,0,120.986,122h12.526a1.987,1.987,0,0,0,1.987-1.987V107.488A1.988,1.988,0,0,0,133.512,105.5ZM12.526,118.026H3.974v-8.552h8.552ZM127.033,43.788a4.273,4.273,0,1,1-4.273,4.273A4.278,4.278,0,0,1,127.033,43.788ZM8.247,52.334a4.273,4.273,0,1,1,4.273-4.273A4.278,4.278,0,0,1,8.247,52.334Zm63.366,53.7a3.974,3.974,0,1,1-3.974-3.973A3.978,3.978,0,0,1,71.614,106.031Zm.3-53.956H63.364V43.523h8.552v8.552Zm59.61,65.951h-8.552v-8.552h8.552Z"/>
    </g>
  </g>
</svg>
