<svg xmlns="http://www.w3.org/2000/svg" width="359.559" height="140" viewBox="0 0 359.559 140">
  <g id="Grupo_57770" data-name="Grupo 57770" transform="translate(-202.5 -1312.5)">
    <g id="Grupo_57715" data-name="Grupo 57715" transform="translate(401.5 1313)">
      <g id="Grupo_57712" data-name="Grupo 57712" transform="translate(0 0)">
        <rect id="Rectángulo_6806" data-name="Rectángulo 6806" width="132.426" height="132.426" transform="translate(5.592 3.287)" fill="none" stroke="#2480ff" stroke-width="1"/>
        <rect id="Rectángulo_6807" data-name="Rectángulo 6807" width="6.574" height="6.574" transform="translate(134.731)" fill="#fff" stroke="#2480ff" stroke-width="1"/>
        <rect id="Rectángulo_6808" data-name="Rectángulo 6808" width="6.574" height="6.574" transform="translate(134.731 132.426)" fill="#fff" stroke="#2480ff" stroke-width="1"/>
        <rect id="Rectángulo_6809" data-name="Rectángulo 6809" width="6.574" height="6.574" transform="translate(2.305 132.426)" fill="#fff" stroke="#2480ff" stroke-width="1"/>
        <rect id="Rectángulo_6810" data-name="Rectángulo 6810" width="6.574" height="6.574" transform="translate(2.305)" fill="#fff" stroke="#2480ff" stroke-width="1"/>
        <rect id="Rectángulo_6811" data-name="Rectángulo 6811" width="5.635" height="5.635" transform="translate(68.988 0.939)" fill="#fff" stroke="#2480ff" stroke-width="1"/>
        <rect id="Rectángulo_6814" data-name="Rectángulo 6814" width="5.635" height="5.635" transform="translate(68.988 133.365)" fill="#fff" stroke="#2480ff" stroke-width="1"/>
        <rect id="Rectángulo_6812" data-name="Rectángulo 6812" width="5.635" height="5.635" transform="translate(135.201 66.682)" fill="#fff" stroke="#2480ff" stroke-width="1"/>
        <rect id="Rectángulo_6815" data-name="Rectángulo 6815" width="7.514" height="7.514" rx="3.757" transform="translate(153.045 65.4)" fill="#2480ff"/>
        <rect id="Rectángulo_6813" data-name="Rectángulo 6813" width="5.635" height="5.635" transform="translate(2.775 66.682)" fill="#fff" stroke="#2480ff" stroke-width="1"/>
        <line id="Línea_451" data-name="Línea 451" x1="15.966" transform="translate(137.933 69.5)" fill="none" stroke="#2480ff" stroke-width="1"/>
        <line id="Línea_452" data-name="Línea 452" x1="99.554" transform="translate(21.473 109.505)" fill="none" stroke="#2480ff" stroke-width="1"/>
        <rect id="Rectángulo_6816" data-name="Rectángulo 6816" width="6.574" height="6.574" transform="translate(134.731 132.426)" fill="#fff" stroke="#2480ff" stroke-width="1"/>
        <rect id="Rectángulo_6817" data-name="Rectángulo 6817" width="11.185" height="11.185" transform="translate(132.426 95.797)" fill="none" stroke="#2480ff" stroke-width="1"/>
        <rect id="Rectángulo_6818" data-name="Rectángulo 6818" width="11.185" height="11.185" transform="translate(0 26.297)" fill="none" stroke="#2480ff" stroke-width="1"/>
        <g id="Grupo_57711" data-name="Grupo 57711" transform="translate(27.578 15.154)">
          <path id="Trazado_103261" data-name="Trazado 103261" d="M351.036,134.555H316.952L310.471,154H289.8l35.122-94.35h18.016L378.254,154H357.582ZM322.2,118.808h23.586L333.929,83.492Z" transform="translate(-289.799 -59.645)" fill="#0ac4bf"/>
        </g>
      </g>
    </g>
    <g id="Grupo_57714" data-name="Grupo 57714" transform="translate(203 1313)">
      <g id="Grupo_57710" data-name="Grupo 57710" transform="translate(23.821 15.154)">
        <path id="Trazado_103260" data-name="Trazado 103260" d="M77.91,167.892V156.554l6.74-.972,30-82.04h19.374l29.809,82.04,6.74.972v11.339H138.435V156.554l6.544-1.168-4.147-12.959H107.654l-4.147,12.959,6.544,1.168v11.339Zm34.215-39.4h24.237L125.345,96.158l-.907-2.85h-.388l-.972,3.044Z" transform="translate(-77.91 -73.542)" fill="#bf3976"/>
      </g>
      <g id="Grupo_57713" data-name="Grupo 57713" transform="translate(0 0)">
        <rect id="Rectángulo_6806-2" data-name="Rectángulo 6806" width="132.426" height="132.426" transform="translate(5.592 3.287)" fill="none" stroke="#2480ff" stroke-width="1"/>
        <rect id="Rectángulo_6807-2" data-name="Rectángulo 6807" width="6.574" height="6.574" transform="translate(134.731)" fill="#fff" stroke="#2480ff" stroke-width="1"/>
        <rect id="Rectángulo_6808-2" data-name="Rectángulo 6808" width="6.574" height="6.574" transform="translate(134.731 132.426)" fill="#fff" stroke="#2480ff" stroke-width="1"/>
        <rect id="Rectángulo_6809-2" data-name="Rectángulo 6809" width="6.574" height="6.574" transform="translate(2.305 132.426)" fill="#fff" stroke="#2480ff" stroke-width="1"/>
        <rect id="Rectángulo_6810-2" data-name="Rectángulo 6810" width="6.574" height="6.574" transform="translate(2.305)" fill="#fff" stroke="#2480ff" stroke-width="1"/>
        <rect id="Rectángulo_6811-2" data-name="Rectángulo 6811" width="5.635" height="5.635" transform="translate(68.988 0.939)" fill="#fff" stroke="#2480ff" stroke-width="1"/>
        <rect id="Rectángulo_6814-2" data-name="Rectángulo 6814" width="5.635" height="5.635" transform="translate(68.988 133.365)" fill="#fff" stroke="#2480ff" stroke-width="1"/>
        <rect id="Rectángulo_6812-2" data-name="Rectángulo 6812" width="5.635" height="5.635" transform="translate(135.201 66.682)" fill="#fff" stroke="#2480ff" stroke-width="1"/>
        <rect id="Rectángulo_6815-2" data-name="Rectángulo 6815" width="7.514" height="7.514" rx="3.757" transform="translate(153.045 65.4)" fill="#2480ff"/>
        <rect id="Rectángulo_6813-2" data-name="Rectángulo 6813" width="5.635" height="5.635" transform="translate(2.775 66.682)" fill="#fff" stroke="#2480ff" stroke-width="1"/>
        <line id="Línea_451-2" data-name="Línea 451" x1="15.966" transform="translate(137.933 69.5)" fill="none" stroke="#2480ff" stroke-width="1"/>
        <line id="Línea_452-2" data-name="Línea 452" x1="99.554" transform="translate(21.473 109.505)" fill="none" stroke="#2480ff" stroke-width="1"/>
        <rect id="Rectángulo_6816-2" data-name="Rectángulo 6816" width="6.574" height="6.574" transform="translate(134.731 132.426)" fill="#fff" stroke="#2480ff" stroke-width="1"/>
        <rect id="Rectángulo_6817-2" data-name="Rectángulo 6817" width="11.185" height="11.185" transform="translate(132.426 95.797)" fill="none" stroke="#2480ff" stroke-width="1"/>
        <rect id="Rectángulo_6818-2" data-name="Rectángulo 6818" width="11.185" height="11.185" transform="translate(0 26.297)" fill="none" stroke="#2480ff" stroke-width="1"/>
      </g>
    </g>
  </g>
</svg>
