<svg xmlns="http://www.w3.org/2000/svg" width="283" height="388" viewBox="0 0 283 388">
  <g id="Grupo_57827" data-name="Grupo 57827" transform="translate(6792 532)">
    <rect id="Rectángulo_6927" data-name="Rectángulo 6927" width="283" height="388" transform="translate(-6792 -532)" fill="#fff"/>
    <path id="Trazado_103268" data-name="Trazado 103268" d="M815.4,883.08v73.44s-11.52,17.28-19.44,77.04-13.68,171.36-13.68,171.36H731.16s-8.28-151.92-4.86-230.4,14.94-100.683,14.94-100.683S763.56,882.36,815.4,883.08Z" transform="translate(-7479.472 -1377.379)" fill="none" stroke="#afafaf" stroke-miterlimit="10" stroke-width="2"/>
    <path id="Trazado_103269" data-name="Trazado 103269" d="M725.472,883.08v73.44s11.52,17.28,19.44,77.04,13.68,171.36,13.68,171.36h51.12s8.28-151.92,4.86-230.4-14.94-100.683-14.94-100.683S777.312,882.36,725.472,883.08Z" transform="translate(-7370.472 -1377.379)" fill="none" stroke="#afafaf" stroke-miterlimit="10" stroke-width="2"/>
  </g>
</svg>
