<svg xmlns="http://www.w3.org/2000/svg" width="85.996" height="86" viewBox="0 0 85.996 86">
  <g id="Page-1" transform="translate(0 0)">
    <g id="_012---Edit-Text" data-name="012---Edit-Text" transform="translate(0 0)">
      <path id="Shape" d="M48.094,1c-.731,0-1.449.029-2.166.1,9.266.932,9.7,8.133,9.7,15.06V33.99l-4.4,6.426,4.045.387,4.662-6.813V16.161C59.928,8.731,59.425,1,48.094,1ZM37.05,9.118a1.434,1.434,0,0,0,2.022.9,19.029,19.029,0,0,1,6.211-1.75,20.509,20.509,0,0,0-2.481-.1A18.588,18.588,0,0,0,37.05,9.118Z" transform="translate(16.092 0.435)" fill="#f57c00"/>
      <path id="Shape-2" data-name="Shape" d="M47.078,1.07A22.837,22.837,0,0,0,37.97,3.724a1.419,1.419,0,0,0-.66,1.549l.875,3.772c0,.014.014.029.014.043a18.588,18.588,0,0,1,5.752-.947,20.509,20.509,0,0,1,2.481.1,15.507,15.507,0,0,1,1.822-.1,10.731,10.731,0,0,1,3.944.473,2.9,2.9,0,0,1,1.879,3.055,31.187,31.187,0,0,1-.172,3.643c-5.465-.029-11.3.143-15.462,4.16a12.8,12.8,0,0,0-3.571,12.766,10.757,10.757,0,0,0,10.184,7.444l7.315.7,4.4-6.426V16.13C56.774,9.2,56.344,2,47.078,1.07ZM53.906,27.2a5.69,5.69,0,0,1-.316,1.736,7.458,7.458,0,0,1-7.243,5.02,5.783,5.783,0,0,1-2.008-.33A4.742,4.742,0,0,1,41.2,28.753c0-4.432,3.916-5.823,8.405-6.182,1.42-.115,2.883-.115,4.3-.086Z" transform="translate(14.942 0.465)" fill="#ff9801"/>
      <path id="Shape-3" data-name="Shape" d="M65.408,23.661a1.288,1.288,0,0,0-.129-.143,1.747,1.747,0,0,0-1.836-.416l-.459.172V23.3a1.747,1.747,0,0,1-.516,1.248,1.735,1.735,0,0,1,2.123-.273,1.578,1.578,0,0,1,.359.273,1.721,1.721,0,0,1,.516,1.234,1.77,1.77,0,0,0,.33-1.033A1.721,1.721,0,0,0,65.408,23.661ZM67.76,26a1.577,1.577,0,0,0-.359-.273,1.751,1.751,0,0,0-.875-.244,1.7,1.7,0,0,0-1.061.359,1.516,1.516,0,0,1-.1.545L55.755,53.28a2.055,2.055,0,0,1-.5.8l-4.274,4.26a2.043,2.043,0,0,1-1.09.588l-8.864,1.779a2.186,2.186,0,0,0-1.1.588l-1.234,1.234c-.057-.129-.66.717-1.176,1.363l2.137,2.137c.172.172,1.75-2.266,1.85-2.051l1.234-1.234a2.185,2.185,0,0,1,1.1-.588L52.7,60.38a2.043,2.043,0,0,0,1.09-.588l4.274-4.26a2.055,2.055,0,0,0,.5-.8l9.61-26.894A1.747,1.747,0,0,0,67.76,26Z" transform="translate(16.292 9.989)" fill="#fec108"/>
      <path id="Shape-4" data-name="Shape" d="M56.87,25.155A.991.991,0,0,1,57.056,25V24.94A2.485,2.485,0,0,1,56.87,25.155Z" transform="translate(24.7 10.833)" fill="#fec108"/>
      <path id="Shape-5" data-name="Shape" d="M69.164,25.7a1.721,1.721,0,0,0-.516-1.234,1.578,1.578,0,0,0-.359-.273,1.735,1.735,0,0,0-2.123.273,1.747,1.747,0,0,0,.516-1.248V23.19L40.248,32.628a2.055,2.055,0,0,0-.8.5L35.185,37.4a2.043,2.043,0,0,0-.588,1.09l-1.779,8.864a2.185,2.185,0,0,1-.588,1.1L31,49.7c.215.1-2.166,1.736-1.994,1.908L41.209,63.81c.516-.645,1.119-1.492,1.176-1.363l1.234-1.234a2.186,2.186,0,0,1,1.1-.588l8.864-1.779a2.043,2.043,0,0,0,1.09-.588L58.951,54a2.055,2.055,0,0,0,.5-.8L69.063,26.3a1.516,1.516,0,0,0,.1-.545.991.991,0,0,0-.186.158A2.485,2.485,0,0,0,69.164,25.7ZM55.007,45.967a4.294,4.294,0,0,1-6.1,0,1.156,1.156,0,0,1-.172-.2,4.287,4.287,0,0,1,3.643-7.114,4.047,4.047,0,0,1,1.463.4,4.3,4.3,0,0,1,1.162,6.913Z" transform="translate(12.593 10.073)" fill="#ffdc00"/>
      <path id="Shape-6" data-name="Shape" d="M33.937,33.99h-.6l-2.983-7.172-2.4-5.737L19.967,1.889A1.434,1.434,0,0,0,18.633,1h-4.3a1.434,1.434,0,0,1,1.334.889l7.989,19.191,2.4,5.737,2.983,7.172h.6A2.877,2.877,0,0,1,32.5,36.858v1.434a1.434,1.434,0,0,1-1.434,1.434h4.3a1.434,1.434,0,0,0,1.434-1.434V36.858A2.877,2.877,0,0,0,33.937,33.99Z" transform="translate(6.224 0.435)" fill="#f57c00"/>
      <path id="Shape-7" data-name="Shape" d="M35.424,33.99h-.6l-2.983-7.172-2.4-5.737L21.453,1.889A1.434,1.434,0,0,0,20.12,1h-.947a1.434,1.434,0,0,0-1.334.889L9.85,21.081l-2.4,5.737L4.471,33.99h-.6A2.877,2.877,0,0,0,1,36.858v1.434a1.434,1.434,0,0,0,1.434,1.434H11.04a1.434,1.434,0,0,0,1.434-1.434V36.858a2.889,2.889,0,0,0-2.295-2.811l2.639-6.34a1.434,1.434,0,0,1,1.334-.889H28.008a1.434,1.434,0,0,1,1.334.889l2.869,6.9a2.9,2.9,0,0,0-1.09,2.252v1.434a1.434,1.434,0,0,0,1.434,1.434h4.3a1.434,1.434,0,0,0,1.434-1.434V36.858A2.877,2.877,0,0,0,35.424,33.99ZM25.5,21.081H16.663a.717.717,0,0,1-.66-.99l2.926-7.028,1.492-3.586a.717.717,0,0,1,1.32,0l4.418,10.614a.717.717,0,0,1-.66.99Z" transform="translate(0.434 0.435)" fill="#ff9801"/>
      <path id="Shape-8" data-name="Shape" d="M44.685,59.425l-2.539,2.539L25.91,45.727l.416-.4,2.123-2.137a2.179,2.179,0,0,1,2.453-.416,2.09,2.09,0,0,1,.588.416l13.2,13.2a2.09,2.09,0,0,1,.416.588A2.179,2.179,0,0,1,44.685,59.425Z" transform="translate(11.253 18.488)" fill="#0377bc"/>
      <path id="Shape-9" data-name="Shape" d="M43.408,61.007,39.85,64.549a2.139,2.139,0,0,1-3.041,0L23.628,51.368a2.008,2.008,0,0,1-.617-1.434,2.042,2.042,0,0,1,.617-1.606l3.543-3.557Z" transform="translate(9.992 19.445)" fill="#283593"/>
      <path id="Shape-10" data-name="Shape" d="M43.125,54.95a2.113,2.113,0,0,1-.617,1.606L39.97,59.1,26.2,45.326l2.123-2.137a2.179,2.179,0,0,1,2.453-.416,2.09,2.09,0,0,1,.588.416Z" transform="translate(11.379 18.488)" fill="#02a9f4"/>
      <path id="Shape-11" data-name="Shape" d="M41.356,58.26l-.416.4L37.8,61.8a2.139,2.139,0,0,1-3.041,0L23.011,50.055a2.042,2.042,0,0,1,.617-1.606l3.543-3.557.416-.4Z" transform="translate(9.992 19.324)" fill="#3f51b5"/>
      <path id="Shape-12" data-name="Shape" d="M41.6,41.6H32.99a2.869,2.869,0,0,1-2.869-2.869V37.292a4.279,4.279,0,0,1,.843-2.557l-2.517-6.049H14.583l-2.1,5.063a4.322,4.322,0,0,1,1.865,3.543v1.434A2.869,2.869,0,0,1,11.475,41.6H2.869A2.869,2.869,0,0,1,0,38.727V37.292A4.31,4.31,0,0,1,3.943,33L16.954,1.766A2.869,2.869,0,0,1,19.6,0h5.258A2.869,2.869,0,0,1,27.51,1.766L40.521,33a4.31,4.31,0,0,1,3.943,4.289v1.434A2.869,2.869,0,0,1,41.6,41.6ZM14.583,25.818H28.447A2.869,2.869,0,0,1,31.1,27.584l2.869,6.906a1.434,1.434,0,0,1-.43,1.668,1.478,1.478,0,0,0-.545,1.135v1.434H41.6V37.292a1.434,1.434,0,0,0-1.434-1.434h-.6a1.434,1.434,0,0,1-1.324-.884L24.861,2.869H19.6L6.229,34.975a1.434,1.434,0,0,1-1.324.884H4.3a1.434,1.434,0,0,0-1.434,1.434v1.434h8.606V37.292a1.449,1.449,0,0,0-1.147-1.407A1.434,1.434,0,0,1,9.3,33.929l2.639-6.347A2.86,2.86,0,0,1,14.583,25.818Zm11.35-2.869H17.1a2.151,2.151,0,0,1-1.987-2.979L19.528,9.356a2.151,2.151,0,0,1,3.972,0L27.919,19.97a2.151,2.151,0,0,1-1.987,2.979Zm-7.761-2.869h6.687l-3.343-8.032Z" transform="translate(0 0.001)"/>
      <path id="Shape-13" data-name="Shape" d="M42.571,62.822a1.425,1.425,0,0,1-1.014-.42L25.329,46.175a1.434,1.434,0,0,1,2.028-2.028L43.585,60.373a1.434,1.434,0,0,1-1.014,2.448Z" transform="translate(10.826 19)"/>
      <path id="Shape-14" data-name="Shape" d="M38.77,67.964a3.573,3.573,0,0,1-2.534-1.047L23.05,53.731a3.586,3.586,0,0,1,0-5.07l6.086-6.086a3.586,3.586,0,0,1,5.07,0L47.388,55.759a3.586,3.586,0,0,1,0,5.072l-6.082,6.086A3.573,3.573,0,0,1,38.77,67.964Zm-7.1-23.57a.718.718,0,0,0-.508.209l-6.086,6.086a.717.717,0,0,0,0,1.014L38.264,64.887a.717.717,0,0,0,1.014,0L45.364,58.8a.717.717,0,0,0,0-1.016L32.184,44.6A.717.717,0,0,0,31.672,44.394Z" transform="translate(9.555 18.036)"/>
      <path id="Shape-15" data-name="Shape" d="M29.884,53a1.434,1.434,0,0,1-1.014-2.448l2.582-2.582a.717.717,0,0,0,.2-.366l1.773-8.866A3.566,3.566,0,0,1,34.4,36.9l4.267-4.269A3.6,3.6,0,0,1,40,31.8l26.9-9.61a3.191,3.191,0,0,1,3.332,5.267L56.253,41.428A1.434,1.434,0,0,1,54.225,39.4L68.2,25.424a.323.323,0,0,0-.339-.528l-26.9,9.61a.717.717,0,0,0-.267.168l-4.267,4.253a.717.717,0,0,0-.2.367l-1.771,8.864a3.571,3.571,0,0,1-.983,1.833L30.9,52.573A1.434,1.434,0,0,1,29.884,53Z" transform="translate(12.357 9.554)"/>
      <path id="Shape-16" data-name="Shape" d="M39.783,66.433a1.434,1.434,0,0,1-1.014-2.448L41.351,61.4a3.571,3.571,0,0,1,1.833-.981l8.864-1.773a.717.717,0,0,0,.367-.2l4.269-4.269a.727.727,0,0,0,.168-.265l9.61-26.9a.317.317,0,0,0-.075-.33.275.275,0,0,0-.453,0L51.956,40.664a1.434,1.434,0,0,1-2.028-2.028L63.906,24.659a3.259,3.259,0,0,1,4.5,0,3.2,3.2,0,0,1,.752,3.319l-9.61,26.9a3.585,3.585,0,0,1-.841,1.328L54.443,60.48a3.574,3.574,0,0,1-1.833.981l-8.864,1.773a.717.717,0,0,0-.367.2L40.8,66.012A1.435,1.435,0,0,1,39.783,66.433Z" transform="translate(16.656 10.319)"/>
      <path id="Shape-17" data-name="Shape" d="M46.744,44.429A5.737,5.737,0,1,1,50.8,42.748,5.737,5.737,0,0,1,46.744,44.429Zm0-8.606a2.869,2.869,0,0,0-2.028,4.9,2.938,2.938,0,0,0,4.056,0,2.869,2.869,0,0,0-2.028-4.9Z" transform="translate(17.809 14.313)"/>
      <path id="Shape-18" data-name="Shape" d="M45.489,41.581h-.073a12.249,12.249,0,0,1-11.486-8.463,14.3,14.3,0,0,1,3.949-14.2c4.106-3.964,9.477-4.528,15.149-4.563.029-.816.047-1.833.047-2.209.022-1.106-.357-1.476-.978-1.721a9.8,9.8,0,0,0-3.3-.386,17.537,17.537,0,0,0-7.517,1.708,2.9,2.9,0,0,1-2.506.011,2.847,2.847,0,0,1-1.549-1.919l-.876-3.779a2.869,2.869,0,0,1,1.364-3.13A25.234,25.234,0,0,1,49.675,0C62.943,0,62.943,10.389,62.943,16.6V34.424a1.434,1.434,0,0,1-2.869,0V16.6c0-8.038-.746-13.727-10.4-13.727A22.3,22.3,0,0,0,39.1,5.439l.912,3.741A20.367,20.367,0,0,1,48.8,7.172a11.636,11.636,0,0,1,4.353.574,4.281,4.281,0,0,1,2.785,4.418c0,3.769,0,5.049-1.606,5.049-5.744-.036-10.813.232-14.465,3.757a11.406,11.406,0,0,0-3.194,11.32,9.3,9.3,0,0,0,8.881,6.427,1.435,1.435,0,1,1-.07,2.869Zm1.284-5.723a6.259,6.259,0,0,1-6.581-6.642,6.51,6.51,0,0,1,1.918-4.847c2.738-2.682,7.73-2.943,12.258-2.854a1.434,1.434,0,0,1,1.4,1.434v4.716a7.149,7.149,0,0,1-.384,2.189A8.916,8.916,0,0,1,46.772,35.858ZM52.9,24.369c-3.21.01-7.037.336-8.785,2.05a3.7,3.7,0,0,0-1.057,2.8,3.427,3.427,0,0,0,3.712,3.774,6,6,0,0,0,5.9-4.052,4.266,4.266,0,0,0,.234-1.272Z" transform="translate(14.511 0)"/>
      <path id="Shape-19" data-name="Shape" d="M39.292,36.869H3.434a1.434,1.434,0,1,1,0-2.869H39.292a1.434,1.434,0,0,1,0,2.869Z" transform="translate(0.869 14.768)"/>
      <path id="Shape-20" data-name="Shape" d="M3.434,44.343A1.434,1.434,0,0,1,2,42.909V31.434a1.434,1.434,0,0,1,2.869,0V42.909A1.434,1.434,0,0,1,3.434,44.343Z" transform="translate(0.869 13.03)"/>
      <path id="Shape-21" data-name="Shape" d="M28.434,44.343A1.434,1.434,0,0,1,27,42.909V31.434a1.434,1.434,0,0,1,2.869,0V42.909A1.434,1.434,0,0,1,28.434,44.343Z" transform="translate(11.727 13.03)"/>
    </g>
  </g>
</svg>
